<?xml version="1.0" encoding="UTF-8" standalone="no"?>
<svg
   viewBox="0 0 500 500"
   version="1.1"
   id="svg70"
   xmlns="http://www.w3.org/2000/svg"
   xmlns:svg="http://www.w3.org/2000/svg">
  <defs
     id="defs70" />
  <g
     id="g70"
     transform="translate(0,83.73)">
    <g
       id="freepik--Calculator--inject-6">
      <path
         d="m 362.94,123.05 a 8.34,8.34 0 0 0 -8.42,-9 H 216.09 a 9.78,9.78 0 0 0 -9.61,9 L 203.3,171 183.37,318.41 a 7.69,7.69 0 0 0 7.79,9 H 329.6 a 10.64,10.64 0 0 0 10.23,-9 L 359.76,171 Z"
         style="fill:#2117fb"
         id="path1" />
      <path
         d="m 362.94,123.05 a 8.34,8.34 0 0 0 -8.42,-9 H 216.09 a 9.78,9.78 0 0 0 -9.61,9 L 203.3,171 183.37,318.41 a 7.69,7.69 0 0 0 7.79,9 H 329.6 a 10.64,10.64 0 0 0 10.23,-9 L 359.76,171 Z"
         style="opacity:0.2"
         id="path2" />
      <path
         d="M 324.67,327.42 H 186.23 a 7.7,7.7 0 0 1 -7.79,-9 L 198.37,171 H 354.83 L 334.9,318.41 a 10.64,10.64 0 0 1 -10.23,9.01 z"
         style="fill:#2117fb"
         id="path3" />
      <rect
         x="216.05"
         y="110.53"
         width="20.620001"
         height="1"
         style="fill:#2117fb"
         id="rect3" />
      <path
         d="m 206.3,112.6 -0.42,-0.91 a 12.64,12.64 0 0 1 5.28,-1.16 v 1 a 11.61,11.61 0 0 0 -4.86,1.07 z"
         style="fill:#2117fb"
         id="path4" />
      <path
         d="M 349.6,114 H 211.16 a 9.78,9.78 0 0 0 -9.61,9 l -3.18,48 H 354.83 L 358,123.05 A 8.33,8.33 0 0 0 349.6,114 Z"
         style="fill:#2117fb"
         id="path5" />
      <path
         d="m 206.1,159.26 2.22,-33.53 a 5.15,5.15 0 0 1 5.06,-4.74 h 133.07 a 4.38,4.38 0 0 1 4.43,4.74 l -2.22,33.53 A 5.16,5.16 0 0 1 343.6,164 H 210.53 a 4.39,4.39 0 0 1 -4.43,-4.74 z"
         style="opacity:0.9;fill:#ffffff"
         id="path6" />
      <g
         style="opacity:0.4"
         id="g11">
        <path
           d="m 336.86,126.48 -1.51,1.41 a 0.39,0.39 0 0 1 -0.28,0.11 h -8 a 0.39,0.39 0 0 1 -0.3,-0.13 l -1.3,-1.4 a 0.41,0.41 0 0 1 0.3,-0.69 h 10.83 a 0.4,0.4 0 0 1 0.26,0.7 z"
           style="fill:#2117fb"
           id="path7" />
        <path
           d="m 334.74,152.47 h -10.83 a 0.41,0.41 0 0 1 -0.28,-0.71 l 1.5,-1.4 a 0.43,0.43 0 0 1 0.28,-0.11 h 8 a 0.37,0.37 0 0 1 0.3,0.14 l 1.31,1.4 a 0.41,0.41 0 0 1 -0.28,0.68 z"
           style="fill:#2117fb"
           id="path8" />
        <path
           d="m 335.79,139.4 -0.77,0.73 a 0.43,0.43 0 0 1 -0.28,0.11 h -9.39 a 0.41,0.41 0 0 1 -0.4,-0.44 l 0.1,-1.41 a 0.41,0.41 0 0 1 0.41,-0.38 h 9.42 a 0.4,0.4 0 0 1 0.3,0.13 l 0.64,0.69 a 0.4,0.4 0 0 1 -0.03,0.57 z"
           style="fill:#2117fb"
           id="path9" />
        <path
           d="M 337.07,140.17 336.28,151 a 0.41,0.41 0 0 1 -0.71,0.24 l -1.29,-1.4 a 0.41,0.41 0 0 1 -0.11,-0.31 l 0.59,-8.05 a 0.37,0.37 0 0 1 0.13,-0.27 l 1.5,-1.4 a 0.41,0.41 0 0 1 0.68,0.36 z"
           style="fill:#2117fb"
           id="path10" />
        <path
           d="m 338,127.32 -0.79,10.86 a 0.41,0.41 0 0 1 -0.71,0.25 l -1.3,-1.41 a 0.41,0.41 0 0 1 -0.1,-0.3 l 0.58,-8.05 a 0.43,0.43 0 0 1 0.13,-0.27 l 1.5,-1.41 a 0.41,0.41 0 0 1 0.69,0.33 z"
           style="fill:#2117fb"
           id="path11" />
      </g>
      <path
         d="m 319.52,157 v 0 a 1.52,1.52 0 0 1 1.48,-1.39 h 17 a 1.44,1.44 0 0 1 1.45,1.54 v 0 a 1.52,1.52 0 0 1 -1.49,1.39 H 321 A 1.42,1.42 0 0 1 319.52,157 Z"
         style="opacity:0.4;fill:#2117fb"
         id="path12" />
      <path
         d="m 298.26,157 v 0 a 1.52,1.52 0 0 1 1.48,-1.39 h 17 a 1.44,1.44 0 0 1 1.45,1.54 v 0 a 1.52,1.52 0 0 1 -1.49,1.39 h -17 A 1.42,1.42 0 0 1 298.26,157 Z"
         style="opacity:0.4;fill:#2117fb"
         id="path13" />
      <path
         d="m 277,157 v 0 a 1.52,1.52 0 0 1 1.48,-1.39 h 17 a 1.44,1.44 0 0 1 1.44,1.54 v 0 a 1.51,1.51 0 0 1 -1.49,1.39 h -17 A 1.42,1.42 0 0 1 277,157 Z"
         style="opacity:0.4;fill:#2117fb"
         id="path14" />
      <path
         d="m 255.74,157 v 0 a 1.52,1.52 0 0 1 1.48,-1.39 h 17 a 1.44,1.44 0 0 1 1.44,1.54 v 0 a 1.51,1.51 0 0 1 -1.49,1.39 h -17 A 1.42,1.42 0 0 1 255.74,157 Z"
         style="opacity:0.4;fill:#2117fb"
         id="path15" />
      <path
         d="m 208.79,239.37 6.26,-46.27 a 6.55,6.55 0 0 1 6.3,-5.55 h 46.27 a 4.74,4.74 0 0 1 4.8,5.55 l -6.26,46.27 a 6.54,6.54 0 0 1 -6.29,5.55 h -46.28 a 4.74,4.74 0 0 1 -4.8,-5.55 z"
         style="opacity:0.1;fill:#263238"
         id="path16" />
      <path
         d="M 274.71,239.37 281,193.1 a 6.55,6.55 0 0 1 6.3,-5.55 h 46.27 a 4.73,4.73 0 0 1 4.8,5.55 l -6.25,46.27 a 6.56,6.56 0 0 1 -6.3,5.55 H 279.5 a 4.73,4.73 0 0 1 -4.79,-5.55 z"
         style="opacity:0.1;fill:#263238"
         id="path17" />
      <path
         d="M 199.88,305.29 206.14,259 a 6.56,6.56 0 0 1 6.3,-5.55 h 46.27 a 4.74,4.74 0 0 1 4.8,5.55 l -6.26,46.28 a 6.54,6.54 0 0 1 -6.29,5.54 h -46.28 a 4.74,4.74 0 0 1 -4.8,-5.53 z"
         style="opacity:0.1;fill:#263238"
         id="path18" />
      <path
         d="M 265.8,305.29 272.05,259 a 6.56,6.56 0 0 1 6.3,-5.55 h 46.27 a 4.74,4.74 0 0 1 4.8,5.55 l -6.25,46.28 a 6.56,6.56 0 0 1 -6.3,5.54 h -46.28 a 4.73,4.73 0 0 1 -4.79,-5.53 z"
         style="opacity:0.1;fill:#263238"
         id="path19" />
      <path
         d="M 205.71,239.37 212,193.1 a 6.55,6.55 0 0 1 6.3,-5.55 h 46.27 a 4.74,4.74 0 0 1 4.8,5.55 l -6.26,46.27 a 6.54,6.54 0 0 1 -6.29,5.55 h -46.31 a 4.74,4.74 0 0 1 -4.8,-5.55 z"
         style="fill:#2117fb"
         id="path20" />
      <path
         d="M 205.71,239.37 212,193.1 a 6.55,6.55 0 0 1 6.3,-5.55 h 46.27 a 4.74,4.74 0 0 1 4.8,5.55 l -6.26,46.27 a 6.54,6.54 0 0 1 -6.29,5.55 h -46.31 a 4.74,4.74 0 0 1 -4.8,-5.55 z"
         style="opacity:0.2;fill:#ffffff"
         id="path21" />
      <path
         d="m 271.63,239.37 6.25,-46.27 a 6.55,6.55 0 0 1 6.3,-5.55 h 46.27 a 4.73,4.73 0 0 1 4.8,5.55 L 329,239.37 a 6.56,6.56 0 0 1 -6.3,5.55 h -46.28 a 4.73,4.73 0 0 1 -4.79,-5.55 z"
         style="fill:#2117fb"
         id="path22" />
      <path
         d="m 271.63,239.37 6.25,-46.27 a 6.55,6.55 0 0 1 6.3,-5.55 h 46.27 a 4.73,4.73 0 0 1 4.8,5.55 L 329,239.37 a 6.56,6.56 0 0 1 -6.3,5.55 h -46.28 a 4.73,4.73 0 0 1 -4.79,-5.55 z"
         style="opacity:0.2;fill:#ffffff"
         id="path23" />
      <path
         d="M 196.8,305.29 203.06,259 a 6.56,6.56 0 0 1 6.3,-5.55 h 46.27 a 4.74,4.74 0 0 1 4.8,5.55 l -6.26,46.28 a 6.54,6.54 0 0 1 -6.29,5.54 H 201.6 a 4.74,4.74 0 0 1 -4.8,-5.53 z"
         style="fill:#2117fb"
         id="path24" />
      <path
         d="M 196.8,305.29 203.06,259 a 6.56,6.56 0 0 1 6.3,-5.55 h 46.27 a 4.74,4.74 0 0 1 4.8,5.55 l -6.26,46.28 a 6.54,6.54 0 0 1 -6.29,5.54 H 201.6 a 4.74,4.74 0 0 1 -4.8,-5.53 z"
         style="opacity:0.2;fill:#ffffff"
         id="path25" />
      <path
         d="M 262.72,305.29 269,259 a 6.56,6.56 0 0 1 6.3,-5.55 h 46.27 a 4.74,4.74 0 0 1 4.8,5.55 l -6.25,46.28 a 6.56,6.56 0 0 1 -6.3,5.54 h -46.31 a 4.73,4.73 0 0 1 -4.79,-5.53 z"
         style="fill:#2117fb"
         id="path26" />
      <path
         d="M 262.72,305.29 269,259 a 6.56,6.56 0 0 1 6.3,-5.55 h 46.27 a 4.74,4.74 0 0 1 4.8,5.55 l -6.25,46.28 a 6.56,6.56 0 0 1 -6.3,5.54 h -46.31 a 4.73,4.73 0 0 1 -4.79,-5.53 z"
         style="opacity:0.2;fill:#ffffff"
         id="path27" />
      <path
         d="m 234.92,235.49 v 0 a 4.76,4.76 0 0 1 -4.8,-5.55 l 3.71,-27.4 a 6.58,6.58 0 0 1 6.3,-5.56 v 0 a 4.75,4.75 0 0 1 4.8,5.56 l -3.7,27.4 a 6.58,6.58 0 0 1 -6.31,5.55 z"
         style="fill:#ffffff"
         id="path28" />
      <path
         d="m 218.27,216.24 v 0 a 6.59,6.59 0 0 1 6.31,-5.56 H 252 a 4.76,4.76 0 0 1 4.8,5.56 v 0 a 6.58,6.58 0 0 1 -6.3,5.55 h -27.4 a 4.76,4.76 0 0 1 -4.83,-5.55 z"
         style="fill:#ffffff"
         id="path29" />
      <path
         d="m 213.16,295.76 v 0 c -1.87,-2.16 -1.39,-5.69 1.06,-7.85 l 22,-19.38 c 2.45,-2.16 6,-2.16 7.85,0 v 0 c 1.87,2.16 1.39,5.7 -1.06,7.86 l -22,19.37 c -2.45,2.16 -6.01,2.16 -7.85,0 z"
         style="fill:#ffffff"
         id="path30" />
      <path
         d="m 216.84,268.53 v 0 c 2.45,-2.16 6,-2.16 7.86,0 l 16.75,19.38 c 1.87,2.16 1.39,5.69 -1.06,7.85 v 0 c -2.45,2.16 -6,2.16 -7.85,0 l -16.76,-19.37 c -1.87,-2.16 -1.39,-5.7 1.06,-7.86 z"
         style="fill:#ffffff"
         id="path31" />
      <path
         d="m 284.18,216.24 v 0 a 6.59,6.59 0 0 1 6.31,-5.56 h 27.4 a 4.75,4.75 0 0 1 4.8,5.56 v 0 a 6.58,6.58 0 0 1 -6.3,5.55 H 289 a 4.76,4.76 0 0 1 -4.82,-5.55 z"
         style="fill:#ffffff"
         id="path32" />
      <path
         d="m 276.44,273.51 v 0 a 6.58,6.58 0 0 1 6.31,-5.55 h 27.4 a 4.76,4.76 0 0 1 4.8,5.55 v 0 a 6.58,6.58 0 0 1 -6.3,5.56 h -27.41 a 4.76,4.76 0 0 1 -4.8,-5.56 z"
         style="fill:#ffffff"
         id="path33" />
      <path
         d="m 274.11,290.78 v 0 a 6.58,6.58 0 0 1 6.3,-5.55 h 27.4 a 4.76,4.76 0 0 1 4.81,5.55 v 0 a 6.59,6.59 0 0 1 -6.31,5.56 h -27.4 a 4.75,4.75 0 0 1 -4.8,-5.56 z"
         style="fill:#ffffff"
         id="path34" />
    </g>
    <g
       id="freepik--Character--inject-6">
      <path
         d="m 133.36,179.7 c -1.8,3.34 -3.65,6.94 -5.34,10.46 -1.69,3.52 -3.32,7.11 -4.72,10.7 -0.37,0.9 -0.67,1.8 -1,2.7 a 4.68,4.68 0 0 0 -0.3,1.44 10,10 0 0 0 0.77,4.14 38.63,38.63 0 0 0 5.65,9.34 l -3.41,4 a 29.63,29.63 0 0 1 -2.74,-2 29.17,29.17 0 0 1 -2.51,-2.21 27.88,27.88 0 0 1 -4.39,-5.42 17.72,17.72 0 0 1 -2.62,-7.52 13.37,13.37 0 0 1 0.37,-4.59 c 0.28,-1 0.54,-2.1 0.86,-3.13 a 102.51,102.51 0 0 1 4.43,-12 c 0.86,-1.93 1.74,-3.84 2.71,-5.72 0.97,-1.88 1.9,-3.7 3.06,-5.62 z"
         style="fill:#ff8b7b"
         id="path35" />
      <path
         d="m 127,217.33 5,1.32 -3.72,7.23 c 0,0 -3.72,-1.42 -4.64,-4.69 z"
         style="fill:#ff8b7b"
         id="path36" />
      <polygon
         points="134.42,226.6 128.29,225.88 132.01,218.65 138.9,220.93 "
         style="fill:#ff8b7b"
         id="polygon36" />
      <path
         d="m 156.94,141.56 c 0.11,0.56 0.5,0.95 0.86,0.88 0.36,-0.07 0.57,-0.59 0.45,-1.14 -0.12,-0.55 -0.5,-1 -0.86,-0.88 -0.36,0.12 -0.57,0.58 -0.45,1.14 z"
         style="fill:#263238"
         id="path37" />
      <path
         d="m 157.39,142.52 a 20.26,20.26 0 0 0 3.62,4.22 3.29,3.29 0 0 1 -2.56,1 z"
         style="fill:#ff5652"
         id="path38" />
      <path
         d="m 158.14,146.3 c -1.63,0 -3.25,-1.78 -3.74,-4.22 a 6.38,6.38 0 0 1 0.23,-3.58 2.57,2.57 0 0 1 4.55,-0.93 6.86,6.86 0 0 1 1.38,6.79 2.83,2.83 0 0 1 -2,1.9 2.18,2.18 0 0 1 -0.42,0.04 z m -1.08,-9.49 a 1.81,1.81 0 0 0 -0.4,0 2.59,2.59 0 0 0 -1.8,1.74 6.17,6.17 0 0 0 -0.22,3.44 c 0.51,2.53 2.25,4.32 3.89,4 a 2.56,2.56 0 0 0 1.8,-1.74 6.61,6.61 0 0 0 -1.32,-6.52 2.79,2.79 0 0 0 -1.95,-0.92 z"
         style="fill:#263238"
         id="path39" />
      <path
         d="m 209.64,199.2 6.41,-1.36 0.83,8.7 c 0,0 -5.54,1.06 -8.19,-3.32 z"
         style="fill:#ff8b7b"
         id="path40" />
      <polygon
         points="221.7,206.14 216.88,206.54 216.05,197.84 222.11,199.79 "
         style="fill:#ff8b7b"
         id="polygon40" />
      <path
         d="m 154.27,138.89 a 0.31,0.31 0 0 1 -0.22,-0.09 0.32,0.32 0 0 1 0,-0.47 3.31,3.31 0 0 1 2.83,-1.1 0.33,0.33 0 0 1 0.28,0.38 0.35,0.35 0 0 1 -0.39,0.28 v 0 a 2.61,2.61 0 0 0 -2.23,0.89 0.36,0.36 0 0 1 -0.27,0.11 z"
         style="fill:#263238"
         id="path41" />
      <path
         d="m 141.5,151.68 c 1,5.15 1.62,12.28 -2,15.71 0,0 1.4,5.22 11,5.22 10.52,0 5.06,-4.58 5.06,-4.58 -4.37,-1.36 -4.33,-6.33 -3.33,-10.33 z"
         style="fill:#ff8b7b"
         id="path42" />
      <path
         d="m 152.3,166.14 c 2.36,-1.7 5.85,-3.69 6.58,-1.61 0.44,1.25 0.62,7.36 -1.81,6.9 -3.59,-0.67 -4.77,-5.29 -4.77,-5.29 z"
         style="fill:#263238"
         id="path43" />
      <path
         d="m 137.55,170.83 c -0.94,-1.32 -0.9,-5.51 0.1,-6.25 1.61,-1.19 8.51,-1.47 17.81,0.67 -1,4.06 1.15,6.19 1.15,6.19 z"
         style="fill:#2117fb"
         id="path44" />
      <path
         d="m 106.29,408.24 a 2.27,2.27 0 0 0 1.75,-0.1 0.65,0.65 0 0 0 0.16,-0.77 0.73,0.73 0 0 0 -0.42,-0.49 c -1,-0.46 -3.14,0.43 -3.23,0.47 a 0.16,0.16 0 0 0 -0.1,0.15 0.17,0.17 0 0 0 0.09,0.16 9.56,9.56 0 0 0 1.75,0.58 z m 1.15,-1.13 0.19,0.07 a 0.45,0.45 0 0 1 0.26,0.28 c 0.09,0.3 0,0.4 -0.06,0.43 -0.38,0.32 -1.79,0 -2.77,-0.37 a 5.49,5.49 0 0 1 2.38,-0.41 z"
         style="fill:#2117fb"
         id="path45" />
      <path
         d="m 104.58,407.67 h 0.08 c 0.8,-0.24 2.5,-1.45 2.52,-2.24 a 0.55,0.55 0 0 0 -0.43,-0.54 0.88,0.88 0 0 0 -0.74,0.06 c -0.94,0.48 -1.53,2.42 -1.55,2.51 a 0.17,0.17 0 0 0 0.12,0.21 z m 2,-2.49 h 0.07 c 0.21,0.07 0.21,0.17 0.21,0.22 0,0.47 -1.14,1.42 -2,1.8 a 4,4 0 0 1 1.28,-2 0.57,0.57 0 0 1 0.43,-0.02 z"
         style="fill:#2117fb"
         id="path46" />
      <path
         d="m 158.22,409.42 c 0.91,0 1.78,-0.13 2.07,-0.53 a 0.65,0.65 0 0 0 0,-0.73 0.83,0.83 0 0 0 -0.53,-0.39 c -1.17,-0.32 -3.63,1.08 -3.73,1.14 a 0.18,0.18 0 0 0 -0.09,0.17 0.18,0.18 0 0 0 0.14,0.14 12.07,12.07 0 0 0 2.14,0.2 z m 1.12,-1.37 a 1.55,1.55 0 0 1 0.32,0 0.54,0.54 0 0 1 0.33,0.23 c 0.12,0.21 0.07,0.31 0,0.37 -0.33,0.46 -2.11,0.47 -3.41,0.28 a 7.61,7.61 0 0 1 2.76,-0.88 z"
         style="fill:#2117fb"
         id="path47" />
      <path
         d="m 156.1,409.22 h 0.07 c 0.85,-0.38 2.53,-1.9 2.4,-2.7 0,-0.19 -0.16,-0.42 -0.62,-0.46 a 1.23,1.23 0 0 0 -0.93,0.28 4.82,4.82 0 0 0 -1.09,2.71 0.17,0.17 0 0 0 0.17,0.18 z m 1.71,-2.85 h 0.1 c 0.3,0 0.32,0.14 0.33,0.18 0.08,0.48 -1.07,1.68 -1.93,2.2 a 3.87,3.87 0 0 1 0.93,-2.17 0.83,0.83 0 0 1 0.57,-0.21 z"
         style="fill:#2117fb"
         id="path48" />
      <polygon
         points="155.4,409.06 156.1,392.77 149.06,392.77 148.36,409.06 "
         style="fill:#ff8b7b"
         id="polygon48" />
      <polygon
         points="103.61,407.29 110.52,392.12 103.64,390.63 96.74,405.8 "
         style="fill:#ff8b7b"
         id="polygon49" />
      <path
         d="m 104.27,406.6 -7.72,-1.67 a 0.62,0.62 0 0 0 -0.69,0.34 l -2.68,5.82 a 1,1 0 0 0 0.74,1.44 c 2.71,0.53 4.06,0.66 7.45,1.39 2.09,0.46 6.81,1.61 9.69,2.23 2.88,0.62 3.88,-2.15 2.76,-2.66 -5,-2.31 -7.16,-4.34 -8.52,-6.23 a 1.71,1.71 0 0 0 -1.03,-0.66 z"
         style="fill:#263238"
         id="path49" />
      <path
         d="m 155.35,408.24 h -7.68 a 0.61,0.61 0 0 0 -0.6,0.48 l -1.39,6.28 a 1,1 0 0 0 1,1.26 c 2.77,-0.05 6.78,-0.21 10.26,-0.21 4.07,0 7.59,0.22 12.37,0.22 2.88,0 3.69,-2.92 2.48,-3.19 -5.51,-1.2 -10,-1.33 -14.75,-4.26 a 3.27,3.27 0 0 0 -1.69,-0.58 z"
         style="fill:#263238"
         id="path50" />
      <path
         d="m 126.92,169 c -6.59,1.51 -12,18.34 -12,18.34 l 13.24,10.09 a 28.86,28.86 0 0 0 7,-13 c 2.26,-8.84 -1.5,-16.99 -8.24,-15.43 z"
         style="fill:#2117fb"
         id="path51" />
      <path
         d="m 126.92,169 c -6.59,1.51 -12,18.34 -12,18.34 l 13.24,10.09 a 28.86,28.86 0 0 0 7,-13 c 2.26,-8.84 -1.5,-16.99 -8.24,-15.43 z"
         style="opacity:0.4;fill:#ffffff"
         id="path52" />
      <path
         d="m 166.45,177 11.11,10.22 c 1.85,1.7 3.7,3.39 5.56,5.05 1.86,1.66 3.72,3.32 5.51,4.76 l -1.55,-0.83 c 0.86,0.32 1.76,0.63 2.71,0.88 0.95,0.25 1.93,0.46 2.94,0.66 a 62.2,62.2 0 0 0 6.28,0.81 c 2.15,0.18 4.35,0.3 6.56,0.36 2.21,0.06 4.5,0.11 6.67,0.12 l 1,5.18 a 52.36,52.36 0 0 1 -7,2 59.27,59.27 0 0 1 -7.22,1.1 49.1,49.1 0 0 1 -7.49,0.11 35.14,35.14 0 0 1 -7.83,-1.35 l -0.75,-0.22 -0.79,-0.61 c -2.2,-1.69 -4.15,-3.34 -6.11,-5 -1.96,-1.66 -3.86,-3.38 -5.76,-5.09 -3.78,-3.44 -7.53,-6.86 -11.2,-10.41 z"
         style="fill:#ff8b7b"
         id="path53" />
      <path
         d="m 132.57,181.36 c -3.58,3.54 -4.75,10 -5,15.6 l 0.59,0.45 a 28.93,28.93 0 0 0 7,-13 c 0.13,-0.52 0.25,-1 0.34,-1.57 z"
         style="opacity:0.2"
         id="path54" />
      <path
         d="m 168.58,176 c 1.44,7.6 2.34,23.21 -1.84,54.11 h -37.62 c -0.26,-5.77 3.37,-33.95 -2.2,-61.16 a 99,99 0 0 1 12.6,-1.59 139.73,139.73 0 0 1 16,0 c 1.76,0.16 3.49,0.42 5,0.69 a 10,10 0 0 1 8.06,7.95 z"
         style="fill:#2117fb"
         id="path55" />
      <path
         d="m 168.58,176 c 1.44,7.6 2.34,23.21 -1.84,54.11 h -37.62 c -0.26,-5.77 3.37,-33.95 -2.2,-61.16 a 99,99 0 0 1 12.6,-1.59 139.73,139.73 0 0 1 16,0 c 1.76,0.16 3.49,0.42 5,0.69 a 10,10 0 0 1 8.06,7.95 z"
         style="opacity:0.4;fill:#ffffff"
         id="path56" />
      <path
         d="m 162.82,187.27 6.8,-1.63 c 0.21,4.12 0.23,9.22 -0.08,15.53 -3.13,-3.56 -7.12,-9.12 -6.72,-13.9 z"
         style="opacity:0.2"
         id="path57" />
      <polygon
         points="155.74,401.17 148.7,401.17 149.06,392.77 156.1,392.77 "
         style="opacity:0.2"
         id="polygon57" />
      <polygon
         points="110.52,392.12 106.95,399.94 100.08,398.45 103.64,390.63 "
         style="opacity:0.2"
         id="polygon58" />
      <path
         d="m 138.15,144.16 c 1.81,6.74 2.53,10.78 6.69,13.58 6.26,4.22 14,-0.62 14.29,-7.77 0.22,-6.43 -2.77,-16.38 -10,-17.74 a 9.53,9.53 0 0 0 -10.98,11.93 z"
         style="fill:#ff8b7b"
         id="path58" />
      <path
         d="m 153.45,144.67 c 3.16,-0.45 2.25,-4.1 1.07,-5.89 0,0 7,-8.45 -1.07,-11.86 -8.07,-3.41 -6.12,1.91 -6.12,1.91 0,0 -6.33,-4.75 -11.83,-0.91 -5.5,3.84 -0.75,5.5 -0.75,5.5 0,0 -10,2.94 -6,8 4,5.06 8.13,4.55 8.13,4.55 0,0 -8.29,3.27 -2,6.94 6.29,3.67 8.65,3.83 8.65,3.83 v 0 a 7.18,7.18 0 0 0 7.76,-5.05 z"
         style="fill:#263238"
         id="path59" />
      <path
         d="m 150.73,144.69 a 7.91,7.91 0 0 0 2,4.67 c 1.53,1.69 3.13,0.63 3.41,-1.42 0.24,-1.86 -0.26,-5 -2.14,-5.9 -1.88,-0.9 -3.39,0.56 -3.27,2.65 z"
         style="fill:#ff8b7b"
         id="path60" />
      <path
         d="m 153.4,230.14 c 0,0 -8,53.75 -12.37,73.89 -4.8,22.05 -30.53,95 -30.53,95 L 97.91,396.3 c 0,0 18,-59.46 22,-90.29 3.1,-23.68 9.19,-75.89 9.19,-75.89 z"
         style="fill:#263238"
         id="path61" />
      <path
         d="m 113.52,394.84 c 0,0 -2.35,4.56 -2.35,4.56 L 97,396.33 l 1.2,-4.26 z"
         style="fill:#2117fb"
         id="path62" />
      <path
         d="m 148.35,249.29 c -9.23,1.81 -8.25,36.23 -7.14,53.94 2.66,-12.52 6.56,-36.6 9.22,-53.69 a 3.15,3.15 0 0 0 -2.08,-0.25 z"
         style="opacity:0.3"
         id="path63" />
      <path
         d="m 166.74,230.14 c 0,0 1,52.59 0.21,74 -0.8,22.31 -8.59,95.36 -8.59,95.36 h -11.92 c 0,0 -0.43,-71.75 -1,-93.66 C 144.9,282 142,230.14 142,230.14 Z"
         style="fill:#263238"
         id="path64" />
      <path
         d="m 160.65,394.8 c 0.06,0 -0.67,4.94 -0.67,4.94 h -14.5 l -0.39,-4.41 z"
         style="fill:#2117fb"
         id="path65" />
      <path
         d="m 153.84,178.34 c -3.38,9.09 16.44,19.8 16.44,19.8 l 8.58,-11 c 0,0 -5.73,-11.39 -12.75,-16.53 -8.68,-6.37 -9.71,0.81 -12.27,7.73 z"
         style="fill:#2117fb"
         id="path66" />
      <path
         d="m 153.84,178.34 c -3.38,9.09 16.44,19.8 16.44,19.8 l 8.58,-11 c 0,0 -5.73,-11.39 -12.75,-16.53 -8.68,-6.37 -9.71,0.81 -12.27,7.73 z"
         style="opacity:0.4;fill:#ffffff"
         id="path67" />
      <ellipse
         cx="210.75999"
         cy="200.10001"
         rx="2.46"
         ry="1.85"
         style="fill:#263238"
         id="ellipse67" />
      <path
         d="m 209.81,206 a 0.5,0.5 0 0 1 -0.39,-0.18 0.5,0.5 0 0 1 0.06,-0.7 c 0.06,-0.05 1.34,-1.22 0.79,-3.94 a 0.49,0.49 0 0 1 0.39,-0.58 0.5,0.5 0 0 1 0.59,0.39 c 0.68,3.33 -1.05,4.83 -1.12,4.89 a 0.51,0.51 0 0 1 -0.32,0.12 z"
         style="fill:#263238"
         id="path68" />
      <path
         d="m 212.76,200 c 0,0.76 -0.89,1.37 -2,1.37 -1.11,0 -2,-0.61 -2,-1.37 0,-0.76 0.89,-1.36 2,-1.36 1.11,0 2,0.57 2,1.36 z"
         style="opacity:0.4;fill:#ffffff"
         id="path69" />
      <path
         d="m 156.94,167.47 c -4.6,3.29 -12.57,16 -14,23.51 a 0.25,0.25 0 0 1 -0.46,0.08 51.26,51.26 0 0 1 -7.51,-23.26 0.25,0.25 0 0 0 -0.27,-0.23 30.35,30.35 0 0 0 -3.34,0.41 0.26,0.26 0 0 0 -0.19,0.25 50.79,50.79 0 0 0 10.52,28.37 0.18,0.18 0 0 1 0,0.16 c -0.61,11.25 0.2,31.36 0.3,33.75 a 0.25,0.25 0 0 0 0.25,0.24 h 3 a 0.25,0.25 0 0 0 0.25,-0.26 c -0.14,-2.3 -1.08,-19.77 0,-34.1 v 0 c 1.69,-10.66 11.8,-25.07 15.35,-27.92 a 0.24,0.24 0 0 0 -0.11,-0.43 c -1.5,-0.33 -3.22,-0.54 -3.63,-0.58 a 0.25,0.25 0 0 0 -0.16,0.01 z"
         style="fill:#2117fb"
         id="path70" />
    </g>
  </g>
</svg>
