<?xml version="1.0" encoding="UTF-8" standalone="no"?>
<svg
   viewBox="0 0 500 500"
   version="1.1"
   id="svg51"
   xmlns="http://www.w3.org/2000/svg"
   xmlns:svg="http://www.w3.org/2000/svg">
  <defs
     id="defs51" />
  <g
     id="g51"
     transform="translate(0,83.76)">
    <g
       id="freepik--Character--inject-42">
      <polygon
         points="272.1,395.69 275.12,378.39 282.35,380.52 279.32,397.83 "
         style="fill:#ffb573"
         id="polygon1" />
      <polygon
         points="334.52,408.54 332.64,391.09 340.18,391.09 342.06,408.54 "
         style="fill:#ffb573"
         id="polygon2" />
      <path
         d="m 333.9,407.67 h 9.19 a 0.64,0.64 0 0 1 0.64,0.51 l 1.49,6.7 a 1.1,1.1 0 0 1 -1.1,1.34 c -3,-0.05 -5.12,-0.22 -8.84,-0.22 -2.29,0 -9.2,0.24 -12.36,0.24 -3.16,0 -3.58,-3.13 -2.29,-3.41 5.81,-1.27 10.19,-3 12.05,-4.7 a 1.81,1.81 0 0 1 1.22,-0.46 z"
         style="fill:#263238"
         id="path2" />
      <path
         d="m 272.39,394.87 7.9,2.34 a 0.66,0.66 0 0 1 0.47,0.67 l -0.48,6.85 a 1.1,1.1 0 0 1 -1.42,1 c -2.83,-0.89 -6.89,-2.28 -10.47,-3.33 -4.19,-1.24 -7.87,-2.08 -12.78,-3.53 -3,-0.88 -2.9,-4.12 -1.58,-4 6,0.44 10.68,1.67 16.46,0.1 a 3.51,3.51 0 0 1 1.9,-0.1 z"
         style="fill:#263238"
         id="path3" />
      <path
         d="m 324.9,178.44 c -3.87,2.75 -7.75,5.27 -11.76,7.73 -4.01,2.46 -8.07,4.77 -12.3,6.94 l -1.59,0.81 -0.44,0.22 -0.73,0.34 a 12.27,12.27 0 0 1 -1.52,0.5 12,12 0 0 1 -5.75,0 20.63,20.63 0 0 1 -7.78,-4 45.44,45.44 0 0 1 -9.87,-11.21 l 4.37,-3.59 a 65.16,65.16 0 0 0 10.4,7.52 13,13 0 0 0 4.73,1.7 1.81,1.81 0 0 0 1.11,-0.18 0.39,0.39 0 0 0 0.1,-0.08 l 0.05,-0.05 0.31,-0.19 1.43,-0.89 c 3.8,-2.39 7.6,-4.88 11.38,-7.4 l 11.36,-7.53 z"
         style="fill:#ffb573"
         id="path4" />
      <path
         d="m 303.27,176.19 8.2,17.7 c 36.29,-12 25.11,-39.89 -8.2,-17.7 z"
         style="fill:#263238"
         id="path5" />
      <path
         d="m 322.54,177.09 a 38.05,38.05 0 0 0 -9.93,16.4 c 7.38,-2.56 12.68,-5.8 16.16,-9.09 z"
         style="opacity:0.2"
         id="path6" />
      <path
         d="m 278.34,177.84 -2.67,-7.58 -6.38,6 a 8.11,8.11 0 0 0 4.88,4.46 z"
         style="fill:#ffb573"
         id="path7" />
      <polygon
         points="266.38,173.74 269.29,176.25 275.67,170.26 271.35,168.23 "
         style="fill:#ffb573"
         id="polygon7" />
      <polygon
         points="273.56,387.31 280.79,389.45 282.35,380.53 275.12,378.39 "
         style="opacity:0.2"
         id="polygon8" />
      <polygon
         points="332.64,391.09 333.61,400.09 341.15,400.09 340.18,391.09 "
         style="opacity:0.2"
         id="polygon9" />
      <path
         d="m 359.32,174.36 a 4.4,4.4 0 0 1 2.61,5.72 179.8,179.8 0 0 0 -6.21,19.9 c -1.43,5.71 -2.55,11.19 -3.45,16.17 -2.1,11.68 -3,20.67 -3.7,23.66 L 309,232 c 7.39,-58.79 13.05,-63.84 13.05,-63.84 a 77.74,77.74 0 0 1 9.7,0 q 1,0.06 2.07,0.18 a 147.8,147.8 0 0 1 16.82,3.31 c 1,0.26 2.11,0.55 3.14,0.86 2.03,0.63 3.95,1.28 5.54,1.85 z"
         style="fill:#263238"
         id="path9" />
      <path
         d="m 352.14,185.48 a 31.7,31.7 0 0 0 2.77,17.91 c 0.25,-1.13 0.53,-2.26 0.81,-3.4 1.08,-4.29 2.34,-8.71 3.82,-13.15 z"
         style="opacity:0.2"
         id="path10" />
      <path
         d="m 352.73,152.43 -12.07,6.78 c 0.23,4.41 -0.5,8.91 -6.82,9.16 -1.39,1.6 -2.78,5.37 1.78,8.72 l -1,3.11 c 9,-0.66 14.13,-5.57 16,-8.51 -3.04,-4.36 -0.02,-14.06 2.11,-19.26 z"
         style="fill:#ffb573"
         id="path11" />
      <path
         d="m 323,235 v 0 a 0.25,0.25 0 0 1 -0.21,-0.28 c 4.33,-33.52 12.5,-57.5 12.58,-57.74 a 0.27,0.27 0 0 1 0.32,-0.16 0.26,0.26 0 0 1 0.16,0.32 c -0.09,0.24 -8.24,24.18 -12.57,57.64 A 0.24,0.24 0 0 1 323,235 Z"
         style="fill:#ffffff"
         id="path12" />
      <path
         d="m 329.75,180 a 30.21,30.21 0 0 1 5.87,-2.91 c -1.08,-1.15 -1.74,-6.55 -0.91,-9.05 h -2 c 0,0 -4.58,1.63 -2.96,11.96 z"
         style="fill:#ffffff"
         id="path13" />
      <path
         d="M 342.61,183.21 A 9.84,9.84 0 0 0 339.36,179 c 3.25,-1 8.81,-3.78 10.7,-8.72 0.77,0.63 2,1.51 2,1.51 0,0 1.94,7.42 -9.45,11.42 z"
         style="fill:#ffffff"
         id="path14" />
      <path
         d="m 336.77,182.59 c -0.13,0.62 -0.54,1.12 -0.91,1.12 -0.37,0 -0.58,-0.51 -0.46,-1.13 0.12,-0.62 0.53,-1.12 0.91,-1.12 0.38,0 0.58,0.54 0.46,1.13 z"
         style="fill:#ffffff"
         id="path15" />
      <path
         d="m 347.81,155.2 -7.14,4 a 17.59,17.59 0 0 1 -0.07,3.09 c 2.37,0.12 6,-1.78 6.76,-4.15 a 8.34,8.34 0 0 0 0.45,-2.94 z"
         style="opacity:0.2"
         id="path16" />
      <path
         d="m 340.62,129.87 c -5.16,1.25 -7.62,11.82 -1.16,15.4 12.61,-2.84 15.71,-18.93 1.16,-15.4 z"
         style="fill:#263238"
         id="path17" />
      <path
         d="m 356.76,143.93 c -2.13,7.17 -3,11.47 -7.55,14.36 -6.82,4.34 -15,-1.07 -15.09,-8.73 -0.05,-6.9 3.44,-17.47 11.23,-18.72 a 10.21,10.21 0 0 1 11.41,13.09 z"
         style="fill:#ffb573"
         id="path18" />
      <path
         d="m 358.19,134 c -7.33,-1.77 -9.53,13.64 -3.08,17.22 14.89,-3.37 10.8,-15.39 3.08,-17.22 z"
         style="fill:#263238"
         id="path19" />
      <path
         d="m 356.42,129.66 c -8.05,-1.5 -13,-8 -13,-8 0,0 -6.73,5.2 -4.81,9.24 1.92,4.04 10.94,8.59 15.27,8.76 0,0 -2,9.52 6.57,4.16 11.49,-7.15 3.55,-12.74 -4.03,-14.16 z"
         style="fill:#263238"
         id="path20" />
      <path
         d="m 363.21,139.56 a 9.75,9.75 0 0 1 4.43,5.07 c 0.63,-5.63 -3.27,-5.22 -4.43,-5.07 z"
         style="fill:#263238"
         id="path21" />
      <path
         d="m 344.4,135 a 16,16 0 0 1 -8.82,-6.74 c 0.82,9.25 7,7.33 8.82,6.74 z"
         style="fill:#263238"
         id="path22" />
      <path
         d="m 340.82,150.81 v 0 a 5.54,5.54 0 0 0 4.93,-1.15 0.2,0.2 0 0 0 0,-0.27 0.19,0.19 0 0 0 -0.27,0 5.19,5.19 0 0 1 -4.57,1.05 0.2,0.2 0 0 0 -0.09,0.38 z"
         style="fill:#263238"
         id="path23" />
      <path
         d="m 357.42,151.36 a 6.46,6.46 0 0 1 -4.25,2.07 c -2.05,0.11 -2.38,-2 -1.23,-3.79 1,-1.64 3.36,-3.66 5.14,-2.91 1.78,0.75 1.76,3.1 0.34,4.63 z"
         style="fill:#ffb573"
         id="path24" />
      <path
         d="m 271.34,384.84 12.25,3.62 c 0,0 12.25,-41.7 19.86,-67.55 2,-6.85 5.1,-16.49 8.77,-26.71 4.63,-12.88 10.15,-26.74 14.61,-37.58 4.69,-11.42 8.19,-19.48 8.19,-19.48 L 309,232 c 0,0 -21.84,59.7 -26.67,82.2 -5,23.41 -10.99,70.64 -10.99,70.64 z"
         style="fill:#2117fb"
         id="path25" />
      <path
         d="m 312.22,294.2 c 4.63,-12.88 10.15,-26.74 14.61,-37.58 l -2,-6.21 c -7.47,6.92 -12.23,30.59 -12.61,43.79 z"
         style="opacity:0.2"
         id="path26" />
      <path
         d="m 323,234.78 c 0,0 -5.23,64.59 -5.25,86.68 0,24.18 12.34,76.89 12.34,76.89 h 13.81 c 0,0 -5.4,-46.64 -5.51,-70.36 -0.12,-26.86 10.14,-88.17 10.14,-88.17 z"
         style="fill:#2117fb"
         id="path27" />
      <polygon
         points="344.74,398.64 344.74,393.79 326.56,393.47 328.48,398.64 "
         style="fill:#263238"
         id="polygon27" />
      <polygon
         points="284.31,388.99 286.4,384.24 270.65,379.56 270.49,384.9 "
         style="fill:#263238"
         id="polygon28" />
      <path
         d="m 345.25,143.41 c -0.13,0.59 -0.56,1 -0.95,0.91 -0.39,-0.09 -0.59,-0.64 -0.45,-1.23 0.14,-0.59 0.56,-1 0.95,-0.91 0.39,0.09 0.59,0.64 0.45,1.23 z"
         style="fill:#263238"
         id="path28" />
      <path
         d="m 338.56,141.86 c -0.14,0.6 -0.56,1 -0.95,0.91 -0.39,-0.09 -0.59,-0.64 -0.45,-1.23 0.14,-0.59 0.56,-1 0.94,-0.91 0.38,0.09 0.59,0.64 0.46,1.23 z"
         style="fill:#263238"
         id="path29" />
      <path
         d="m 340.62,142.65 a 21.72,21.72 0 0 1 -4,4.41 c 0.82,1.22 2.82,1.06 2.82,1.06 z"
         style="fill:#ed893e"
         id="path30" />
      <path
         d="m 347.83,141.73 a 0.38,0.38 0 0 1 -0.31,-0.21 2.81,2.81 0 0 0 -2,-1.68 0.36,0.36 0 0 1 -0.29,-0.41 0.36,0.36 0 0 1 0.41,-0.3 3.57,3.57 0 0 1 2.5,2.09 0.37,0.37 0 0 1 -0.18,0.48 0.51,0.51 0 0 1 -0.13,0.03 z"
         style="fill:#263238"
         id="path31" />
      <path
         d="m 336.22,138.89 a 0.44,0.44 0 0 1 -0.21,-0.07 0.37,0.37 0 0 1 -0.05,-0.51 3.55,3.55 0 0 1 3,-1.38 0.36,0.36 0 1 1 -0.07,0.71 v 0 a 2.83,2.83 0 0 0 -2.32,1.12 0.36,0.36 0 0 1 -0.35,0.13 z"
         style="fill:#263238"
         id="path32" />
      <path
         d="m 331.41,409 a 2.25,2.25 0 0 1 -1.45,-0.39 1.06,1.06 0 0 1 -0.37,-0.94 0.58,0.58 0 0 1 0.3,-0.51 c 0.84,-0.43 3.27,1.07 3.54,1.24 a 0.17,0.17 0 0 1 0.08,0.18 0.18,0.18 0 0 1 -0.13,0.15 9.19,9.19 0 0 1 -1.97,0.27 z m -1.12,-1.56 a 0.5,0.5 0 0 0 -0.23,0 0.22,0.22 0 0 0 -0.12,0.21 0.76,0.76 0 0 0 0.25,0.65 3.64,3.64 0 0 0 2.67,0.13 7.18,7.18 0 0 0 -2.57,-1 z"
         style="fill:#2117fb"
         id="path33" />
      <path
         d="m 333.34,408.72 h -0.09 c -0.78,-0.42 -2.29,-2.08 -2.13,-2.92 a 0.59,0.59 0 0 1 0.57,-0.46 0.93,0.93 0 0 1 0.76,0.23 c 0.88,0.71 1.06,2.89 1.07,3 a 0.18,0.18 0 0 1 -0.18,0.19 z m -1.52,-3.06 h -0.08 c -0.24,0 -0.26,0.13 -0.26,0.18 -0.1,0.5 0.86,1.74 1.64,2.33 a 4.34,4.34 0 0 0 -0.89,-2.36 0.68,0.68 0 0 0 -0.41,-0.15 z"
         style="fill:#2117fb"
         id="path34" />
      <path
         d="m 271.39,395.66 v 0 c -1.23,-0.11 -3.39,-0.44 -4,-1.38 a 1,1 0 0 1 -0.08,-0.92 0.56,0.56 0 0 1 0.42,-0.37 c 1,-0.22 3.49,2.1 3.77,2.36 a 0.19,0.19 0 0 1 0,0.21 0.16,0.16 0 0 1 -0.11,0.1 z m -3.53,-2.33 h -0.05 a 0.22,0.22 0 0 0 -0.16,0.15 0.65,0.65 0 0 0 0,0.62 c 0.33,0.52 1.5,0.94 3.17,1.15 -0.95,-0.9 -2.37,-1.98 -2.96,-1.92 z"
         style="fill:#2117fb"
         id="path35" />
      <path
         d="m 271.39,395.66 a 0.17,0.17 0 0 1 -0.13,0 c -0.75,-0.65 -2,-2.72 -1.65,-3.5 0.09,-0.19 0.3,-0.38 0.78,-0.29 a 1.27,1.27 0 0 1 0.86,0.57 c 0.7,1 0.32,3 0.3,3.12 a 0.16,0.16 0 0 1 -0.11,0.13 z m -1.27,-3.5 a 0.22,0.22 0 0 0 -0.19,0.11 c -0.22,0.47 0.59,2 1.32,2.84 a 4.14,4.14 0 0 0 -0.29,-2.51 1,1 0 0 0 -0.63,-0.42 0.9,0.9 0 0 0 -0.21,-0.02 z"
         style="fill:#2117fb"
         id="path36" />
      <path
         d="m 361,176.4 c 0.58,0.58 1,1 1.44,1.49 0.44,0.49 0.87,1 1.29,1.46 0.84,1 1.66,2 2.45,3 a 70.32,70.32 0 0 1 4.39,6.36 60.24,60.24 0 0 1 3.65,6.95 44.45,44.45 0 0 1 2.62,7.62 l 0.24,1 0.23,1.17 c 0.1,0.77 0.2,1.54 0.23,2.29 a 27.1,27.1 0 0 1 -0.15,4.35 37.58,37.58 0 0 1 -1.81,7.86 55,55 0 0 1 -7,13.61 l -5,-2.73 1.08,-3.22 c 0.36,-1.09 0.66,-2.2 1,-3.29 a 66.84,66.84 0 0 0 1.49,-6.55 35.47,35.47 0 0 0 0.57,-6.27 16.83,16.83 0 0 0 -0.24,-2.82 11.87,11.87 0 0 0 -0.26,-1.27 l -0.17,-0.58 -0.24,-0.71 A 50.82,50.82 0 0 0 361,194.77 c -1.22,-1.82 -2.53,-3.61 -3.9,-5.35 q -1,-1.32 -2.1,-2.58 l -1,-1.24 -1,-1.13 z"
         style="fill:#ffb573"
         id="path37" />
      <path
         d="m 349.81,187.31 c 2.35,6.63 5.09,11.67 8.95,15.38 L 373.23,188.9 C 360,163.07 346.22,177.2 349.81,187.31 Z"
         style="fill:#263238"
         id="path38" />
      <path
         d="m 364.55,229.64 -5.65,5.16 8.86,3.76 c 0,0 3.84,-5.46 1.17,-7.82 z"
         style="fill:#ffb573"
         id="path39" />
      <polygon
         points="365.28,243.76 367.76,238.56 358.9,234.8 357.81,241 "
         style="fill:#ffb573"
         id="polygon39" />
    </g>
    <g
       id="freepik--filing-system--inject-42">
      <path
         d="m 223.92,94.84 -58.61,14.4 -3.84,-8.16 a 1.64,1.64 0 0 0 -1.88,-0.9 l -36.3,8.92 a 1.65,1.65 0 0 0 -1.25,1.67 l 0.38,9 -23.42,5.76 a 2.55,2.55 0 0 0 -1.86,3.08 l 19.32,78.61 a 2.54,2.54 0 0 0 3.08,1.87 l 124.9,-30.7 a 2.55,2.55 0 0 0 1.87,-3.08 L 227,96.7 a 2.55,2.55 0 0 0 -3.08,-1.86 z"
         style="fill:#2117fb"
         id="path40" />
      <path
         d="m 223.92,94.84 -58.61,14.4 -3.84,-8.16 a 1.64,1.64 0 0 0 -1.88,-0.9 l -36.3,8.92 a 1.65,1.65 0 0 0 -1.25,1.67 l 0.38,9 -23.42,5.76 a 2.55,2.55 0 0 0 -1.86,3.08 l 19.32,78.61 a 2.54,2.54 0 0 0 3.08,1.87 l 124.9,-30.7 a 2.55,2.55 0 0 0 1.87,-3.08 L 227,96.7 a 2.55,2.55 0 0 0 -3.08,-1.86 z"
         style="opacity:0.5;fill:#ffffff"
         id="path41" />
      <rect
         x="127.11"
         y="107.51"
         width="31.08"
         height="4.1300001"
         transform="rotate(-13.81,142.61602,109.5615)"
         style="fill:#ffffff"
         id="rect41" />
      <path
         d="m 225.67,121 -63,15.48 -3.84,-8.16 a 1.64,1.64 0 0 0 -1.88,-0.9 l -36.3,8.92 A 1.64,1.64 0 0 0 119.4,138 l 0.38,9 -19,4.67 a 2.55,2.55 0 0 0 -1.87,3.08 l 19.32,78.61 a 2.55,2.55 0 0 0 3.08,1.87 l 124.91,-30.7 a 2.54,2.54 0 0 0 1.86,-3.08 l -19.31,-78.61 a 2.55,2.55 0 0 0 -3.1,-1.84 z"
         style="fill:#2117fb"
         id="path42" />
      <path
         d="m 225.67,121 -63,15.48 -3.84,-8.16 a 1.64,1.64 0 0 0 -1.88,-0.9 l -36.3,8.92 A 1.64,1.64 0 0 0 119.4,138 l 0.38,9 -19,4.67 a 2.55,2.55 0 0 0 -1.87,3.08 l 19.32,78.61 a 2.55,2.55 0 0 0 3.08,1.87 l 124.91,-30.7 a 2.54,2.54 0 0 0 1.86,-3.08 l -19.31,-78.61 a 2.55,2.55 0 0 0 -3.1,-1.84 z"
         style="opacity:0.4;fill:#ffffff"
         id="path43" />
      <rect
         x="124.47"
         y="134.71001"
         width="31.08"
         height="4.1300001"
         transform="rotate(-13.81,139.99162,136.76743)"
         style="fill:#ffffff"
         id="rect43" />
      <path
         d="m 227.43,147.08 -67.43,16.56 -3.84,-8.16 a 1.64,1.64 0 0 0 -1.88,-0.9 L 118,163.5 a 1.64,1.64 0 0 0 -1.25,1.67 l 0.38,9 -14.61,3.59 a 2.55,2.55 0 0 0 -1.87,3.08 L 120,259.46 a 2.55,2.55 0 0 0 3.08,1.87 L 248,230.63 a 2.54,2.54 0 0 0 1.87,-3.08 l -19.32,-78.61 a 2.53,2.53 0 0 0 -3.12,-1.86 z"
         style="fill:#2117fb"
         id="path44" />
      <path
         d="m 227.43,147.08 -67.43,16.56 -3.84,-8.16 a 1.64,1.64 0 0 0 -1.88,-0.9 L 118,163.5 a 1.64,1.64 0 0 0 -1.25,1.67 l 0.38,9 -14.61,3.59 a 2.55,2.55 0 0 0 -1.87,3.08 L 120,259.46 a 2.55,2.55 0 0 0 3.08,1.87 L 248,230.63 a 2.54,2.54 0 0 0 1.87,-3.08 l -19.32,-78.61 a 2.53,2.53 0 0 0 -3.12,-1.86 z"
         style="opacity:0.3;fill:#ffffff"
         id="path45" />
      <rect
         x="121.83"
         y="161.91"
         width="31.08"
         height="4.1300001"
         transform="rotate(-13.81,137.33094,163.92707)"
         style="fill:#ffffff"
         id="rect45" />
      <path
         d="m 277.59,175.25 -73.83,3.75 -2.23,-8.74 a 1.65,1.65 0 0 0 -1.68,-1.24 l -37.33,1.9 a 1.65,1.65 0 0 0 -1.55,1.4 l -1.33,8.92 -10.5,0.54 a 2.54,2.54 0 0 0 -2.42,2.67 l 4.12,80.84 a 2.55,2.55 0 0 0 2.67,2.42 L 282,261.18 a 2.55,2.55 0 0 0 2.42,-2.67 l -4.12,-80.85 a 2.54,2.54 0 0 0 -2.71,-2.41 z"
         style="fill:#2117fb"
         id="path46" />
      <path
         d="m 277.59,175.25 -73.83,3.75 -2.23,-8.74 a 1.65,1.65 0 0 0 -1.68,-1.24 l -37.33,1.9 a 1.65,1.65 0 0 0 -1.55,1.4 l -1.33,8.92 -10.5,0.54 a 2.54,2.54 0 0 0 -2.42,2.67 l 4.12,80.84 a 2.55,2.55 0 0 0 2.67,2.42 L 282,261.18 a 2.55,2.55 0 0 0 2.42,-2.67 l -4.12,-80.85 a 2.54,2.54 0 0 0 -2.71,-2.41 z"
         style="opacity:0.2;fill:#ffffff"
         id="path47" />
      <rect
         x="165.89999"
         y="172.99001"
         width="31.08"
         height="4.1300001"
         transform="rotate(-2.91,181.69362,175.19744)"
         style="fill:#ffffff"
         id="rect47" />
      <path
         d="M 230.94,199.31 154.75,218 150.92,209.84 A 1.66,1.66 0 0 0 149,209 l -36.3,8.92 a 1.64,1.64 0 0 0 -1.25,1.67 l 0.38,9 L 106,230 a 2.55,2.55 0 0 0 -1.87,3.08 l 19.32,78.61 a 2.56,2.56 0 0 0 3.09,1.87 l 124.9,-30.7 a 2.55,2.55 0 0 0 1.86,-3.08 L 234,201.18 a 2.56,2.56 0 0 0 -3.06,-1.87 z"
         style="fill:#2117fb"
         id="path48" />
      <path
         d="M 230.94,199.31 154.75,218 150.92,209.84 A 1.66,1.66 0 0 0 149,209 l -36.3,8.92 a 1.64,1.64 0 0 0 -1.25,1.67 l 0.38,9 L 106,230 a 2.55,2.55 0 0 0 -1.87,3.08 l 19.32,78.61 a 2.56,2.56 0 0 0 3.09,1.87 l 124.9,-30.7 a 2.55,2.55 0 0 0 1.86,-3.08 L 234,201.18 a 2.56,2.56 0 0 0 -3.06,-1.87 z"
         style="opacity:0.1;fill:#ffffff"
         id="path49" />
      <rect
         x="116.55"
         y="216.31"
         width="31.08"
         height="4.1300001"
         transform="rotate(-13.81,132.08214,218.33893)"
         style="fill:#ffffff"
         id="rect49" />
      <rect
         x="113.66"
         y="239.53999"
         width="133.71001"
         height="86.040001"
         rx="2.55"
         transform="rotate(-13.81,180.48876,282.51622)"
         style="fill:#2117fb"
         id="rect50" />
      <path
         d="m 151.12,247.76 -39.85,9.79 a 1.65,1.65 0 0 1 -2,-1.53 l -0.39,-9.25 a 1.64,1.64 0 0 1 1.25,-1.67 l 36.3,-8.92 a 1.66,1.66 0 0 1 1.89,0.9 l 3.94,8.37 a 1.66,1.66 0 0 1 -1.14,2.31 z"
         style="fill:#2117fb"
         id="path50" />
      <rect
         x="113.91"
         y="243.50999"
         width="31.08"
         height="4.1300001"
         transform="rotate(-13.81,129.41645,245.53986)"
         style="fill:#ffffff"
         id="rect51" />
    </g>
  </g>
</svg>
