<?xml version="1.0" encoding="UTF-8" standalone="no"?>
<svg
   viewBox="0 0 500 500"
   version="1.1"
   id="svg80"
   xmlns="http://www.w3.org/2000/svg"
   xmlns:svg="http://www.w3.org/2000/svg">
  <defs
     id="defs80" />
  <g
     id="g80"
     transform="translate(0,83.25)">
    <g
       id="freepik--Character--inject-37">
      <path
         d="m 169.55,169 c 0.1,0.77 0.58,1.35 1.09,1.31 0.51,-0.04 0.83,-0.7 0.73,-1.47 -0.1,-0.77 -0.58,-1.35 -1.08,-1.31 -0.5,0.04 -0.83,0.72 -0.74,1.47 z"
         style="fill:#263238"
         id="path14" />
      <path
         d="m 170.39,170.15 a 24.53,24.53 0 0 0 3.46,5.55 c -1.1,1.11 -3.11,0.66 -3.11,0.66 z"
         style="fill:#a02724"
         id="path15" />
      <path
         d="m 167,166.07 a 0.63,0.63 0 0 1 -0.23,0 0.47,0.47 0 0 1 -0.25,-0.6 4.41,4.41 0 0 1 3.1,-2.69 0.45,0.45 0 0 1 0.52,0.37 0.46,0.46 0 0 1 -0.37,0.53 3.41,3.41 0 0 0 -2.4,2.14 0.48,0.48 0 0 1 -0.37,0.25 z"
         style="fill:#263238"
         id="path16" />
      <path
         d="m 146.89,181.07 6,4.6 8.19,6.27 a 8.48,8.48 0 0 0 -0.8,3 c -0.29,2.3 -0.58,4 4.53,5.41 a 2.91,2.91 0 0 1 2.18,2.27 c 0.2,1.36 -0.63,3 -5.35,3.81 a 21.69,21.69 0 0 1 -13.33,-2.27 c -2,-1 -2,-2.2 -1.16,-4.23 2.52,-5.77 1.3,-13.13 -0.26,-18.86 z"
         style="fill:#b55b52"
         id="path17" />
      <path
         d="m 140,201.75 a 41.67,41.67 0 0 0 2.84,-6.92 c 0,0 15.2,-0.83 20.22,0.67 5.02,1.5 8.14,8 8.14,8 z"
         style="fill:#2117fb"
         id="path18" />
      <path
         d="m 146.36,213.06 c -0.37,1.12 -0.78,2.49 -1.17,3.75 l -1.13,3.9 c -0.7,2.6 -1.38,5.21 -1.91,7.81 a 74.52,74.52 0 0 0 -1.29,7.7 36.54,36.54 0 0 0 -0.22,7.17 16.17,16.17 0 0 0 0.46,3 c 0.06,0.2 0.11,0.42 0.18,0.61 l 0.2,0.54 v 0 c 0,0 0,0 0,0 a 2.54,2.54 0 0 0 -0.16,-0.28 4.79,4.79 0 0 0 -0.33,-0.42 2.39,2.39 0 0 0 -0.44,-0.41 c -0.2,-0.14 -0.23,-0.12 -0.19,-0.07 a 4.91,4.91 0 0 0 0.94,0.53 c 0.45,0.2 1,0.4 1.55,0.59 1.13,0.38 2.38,0.73 3.67,1.07 5.16,1.3 10.79,2.31 16.28,3.48 l -0.18,6.93 a 88.26,88.26 0 0 1 -8.84,0.73 85,85 0 0 1 -9,-0.15 43.22,43.22 0 0 1 -4.73,-0.58 c -0.82,-0.15 -1.67,-0.32 -2.57,-0.57 a 15.74,15.74 0 0 1 -3,-1.11 10.76,10.76 0 0 1 -2,-1.25 9.1,9.1 0 0 1 -1.21,-1.16 9.39,9.39 0 0 1 -0.64,-0.85 c -0.1,-0.17 -0.21,-0.34 -0.3,-0.51 l -0.13,-0.24 -0.69,-1.41 c -0.21,-0.47 -0.38,-0.93 -0.56,-1.4 a 28.11,28.11 0 0 1 -1.36,-5.4 c -1,-6.95 -0.21,-13.15 0.83,-19.18 0.56,-3 1.22,-6 2,-8.85 0.4,-1.45 0.82,-2.9 1.27,-4.33 0.45,-1.43 0.93,-2.81 1.51,-4.38 z"
         style="fill:#b55b52"
         id="path19" />
      <path
         d="m 137.11,200.51 c 9.45,-2.5 15.06,5.24 11.86,18 -3.2,12.76 -4.27,13.24 -4.27,13.24 l -19.49,-3.25 c 2.4,-12.5 2.21,-25.44 11.9,-27.99 z"
         style="fill:#2117fb"
         id="path20" />
      <path
         d="m 167.64,249.26 -1.47,-0.13 c -4.18,0 -4.9,1.14 -7.47,3.53 l -1,5.26 c 6.75,3.45 10.37,-0.34 10.38,-0.34 h 6.25 l -2.2,-5 a 5.5,5.5 0 0 0 -4.49,-3.32 z"
         style="fill:#b55b52"
         id="path21" />
      <path
         d="m 144.31,171.12 c 1.7,9.11 2.23,14.53 7.45,18.6 7.84,6.11 18.64,0.3 19.7,-9.18 0.95,-8.53 -2,-22 -11.42,-24.39 a 12.88,12.88 0 0 0 -15.73,14.97 z"
         style="fill:#b55b52"
         id="path22" />
      <path
         d="m 162.36,174.3 c 6.5,-0.52 4.6,-7.37 2.59,-8.8 3.05,-1.16 5.15,-6 2.22,-9.32 1.72,-4.49 -3.2,-9.9 -11.83,-9.09 -6.3,0.58 -7,3.91 -7,3.91 0,0 -7.55,-0.79 -10.69,5.44 -2.68,5.34 0.57,8.19 0.57,8.19 0,0 -5.64,1.64 -4.08,9 1.66,7.94 7.76,6.1 7.76,6.1 0,0 -1.37,7.28 6.88,7.38 7.13,0.09 7.22,-5.25 7.22,-5.25 0,0 9.24,-0.86 6.36,-7.56 z"
         style="fill:#263238"
         id="path23" />
      <path
         d="m 157.52,174.83 a 8.47,8.47 0 0 0 4,4.54 c 2.38,1.22 4.2,-1.31 3.78,-3.91 -0.38,-2.33 -2.41,-5.32 -4.92,-5.46 -2.51,-0.14 -3.75,2.41 -2.86,4.83 z"
         style="fill:#b55b52"
         id="path24" />
      <polygon
         points="263.36,396.56 257.08,375.21 248.19,378.81 254.47,400.17 "
         style="fill:#b55b52"
         id="polygon24" />
      <polygon
         points="260.22,385.87 257.08,375.21 248.19,378.81 251.24,389.17 "
         style="opacity:0.2"
         id="polygon25" />
      <path
         d="m 262.59,393 -10.17,3.53 a 0.68,0.68 0 0 0 -0.45,0.85 l 2.3,8.22 a 1.71,1.71 0 0 0 2.15,1.06 c 3.51,-1.3 4.93,-2 9.27,-3.88 a 137,137 0 0 0 12.52,-6 c 3.39,-2 1.35,-5.41 -0.3,-4.85 -3.91,1.32 -10.32,2.18 -13.57,1.06 a 2.69,2.69 0 0 0 -1.75,0.01 z"
         style="fill:#263238"
         id="path25" />
      <path
         d="m 183.07,277 c 0,0 67.19,6 68.93,25.33 3.5,39.33 8.87,77.25 8.87,77.25 l -13.67,5 c 0,0 -16.73,-43.2 -16.51,-74 -19.38,-5.47 -70.34,2.56 -78.67,-12.39 -7.36,-13.2 -0.9,-22.68 -0.9,-22.68 z"
         style="fill:#263238"
         id="path26" />
      <polygon
         points="263.2,381.94 262.46,374.19 243.27,380.37 246.18,387.69 "
         style="fill:#2117fb"
         id="polygon26" />
      <path
         d="m 266.34,393.41 a 11.61,11.61 0 0 1 -2.52,0.51 0.22,0.22 0 0 1 -0.22,-0.11 0.23,0.23 0 0 1 0,-0.24 c 0.22,-0.3 2.18,-2.94 3.43,-2.9 a 0.87,0.87 0 0 1 0.7,0.43 1.23,1.23 0 0 1 0.13,1.24 2.6,2.6 0 0 1 -1.52,1.07 z m -2,0 c 1.73,-0.24 2.91,-0.7 3.18,-1.27 a 0.78,0.78 0 0 0 -0.11,-0.8 0.39,0.39 0 0 0 -0.34,-0.22 c -0.72,-0.03 -1.96,1.26 -2.78,2.29 z"
         style="fill:#2117fb"
         id="path27" />
      <path
         d="m 263.87,393.91 a 0.2,0.2 0 0 1 -0.11,0 0.23,0.23 0 0 1 -0.17,-0.13 c 0,-0.11 -1.15,-2.64 -0.55,-3.84 a 1.13,1.13 0 0 1 0.79,-0.6 0.85,0.85 0 0 1 1,0.37 c 0.55,0.92 -0.14,3.27 -0.85,4.12 a 0.23,0.23 0 0 1 -0.11,0.08 z m 0,-4.1 a 0.67,0.67 0 0 0 -0.39,0.35 c -0.36,0.71 0.08,2.23 0.41,3.08 0.55,-0.94 0.95,-2.69 0.59,-3.29 -0.07,-0.11 -0.19,-0.24 -0.51,-0.17 z"
         style="fill:#2117fb"
         id="path28" />
      <polygon
         points="216.4,406.07 217.95,383.64 208.45,384.09 206.9,406.52 "
         style="fill:#b55b52"
         id="polygon28" />
      <path
         d="m 216.62,404.45 -10.76,-0.34 a 0.68,0.68 0 0 0 -0.73,0.63 l -0.79,8.49 A 1.71,1.71 0 0 0 206,415 c 3.75,0.05 5.54,-0.11 10.27,0 2.91,0.09 8.64,0.52 12.63,0 3.99,-0.52 3.38,-4.43 1.64,-4.58 -4.11,-0.33 -9.62,-3.17 -12.25,-5.38 a 2.65,2.65 0 0 0 -1.67,-0.59 z"
         style="fill:#263238"
         id="path29" />
      <path
         d="m 220,406.22 a 12.12,12.12 0 0 1 -2.54,-0.42 0.22,0.22 0 0 1 -0.07,-0.4 c 0.31,-0.21 3.08,-2 4.24,-1.48 a 0.85,0.85 0 0 1 0.5,0.65 1.23,1.23 0 0 1 -0.32,1.2 2.52,2.52 0 0 1 -1.81,0.45 z m -1.92,-0.73 c 1.7,0.4 3,0.39 3.43,0 a 0.81,0.81 0 0 0 0.18,-0.8 0.41,0.41 0 0 0 -0.24,-0.32 c -0.66,-0.3 -2.28,0.45 -3.45,1.12 z"
         style="fill:#2117fb"
         id="path30" />
      <path
         d="m 217.47,405.81 a 0.23,0.23 0 0 1 -0.11,0 0.24,0.24 0 0 1 -0.11,-0.19 c 0,-0.11 -0.13,-2.87 0.86,-3.77 a 1.08,1.08 0 0 1 1,-0.28 0.85,0.85 0 0 1 0.79,0.7 c 0.18,1.05 -1.31,3 -2.28,3.54 a 0.2,0.2 0 0 1 -0.15,0 z M 218.9,402 a 0.64,0.64 0 0 0 -0.49,0.18 c -0.59,0.53 -0.72,2.11 -0.72,3 0.85,-0.68 1.85,-2.17 1.73,-2.86 0,-0.13 -0.1,-0.28 -0.42,-0.33 z"
         style="fill:#2117fb"
         id="path31" />
      <polygon
         points="217.96,383.64 217.06,396.47 207.59,396.46 208.45,384.09 "
         style="opacity:0.2"
         id="polygon31" />
      <path
         d="m 160.75,275.93 c 0,0 72.4,11.07 71.25,27.74 -2.07,30 -12.13,88.63 -12.13,88.63 l -14.26,0.2 c 0,0 -3.37,-60.14 2,-82.06 -17.81,0 -68.05,-0.62 -74.9,-9.77 -7.58,-10.11 0.21,-26 0.21,-26 z"
         style="fill:#263238"
         id="path32" />
      <polygon
         points="221.19,393.35 222.04,384.23 203.1,384.97 203.93,393.62 "
         style="fill:#2117fb"
         id="polygon32" />
      <path
         d="m 173.5,199.5 c -5.83,-1.14 -32.12,-0.81 -32.12,-0.81 A 10.5,10.5 0 0 0 130.66,208 c -0.92,8.11 4.23,26.23 4.41,35.47 0.22,11.35 -1.95,15.95 -2.17,31.23 l 50.17,2.3 c 0,-30.73 -1.34,-56.17 -2.55,-68.37 -0.43,-4.29 -1.19,-8 -7.02,-9.13 z"
         style="fill:#2117fb"
         id="path33" />
      <path
         d="m 173.5,199.5 c -5.83,-1.14 -32.12,-0.81 -32.12,-0.81 A 10.5,10.5 0 0 0 130.66,208 c -0.92,8.11 4.23,26.23 4.41,35.47 0.22,11.35 -1.95,15.95 -2.17,31.23 l 50.17,2.3 c 0,-30.73 -1.34,-56.17 -2.55,-68.37 -0.43,-4.29 -1.19,-8 -7.02,-9.13 z"
         style="opacity:0.3;fill:#ffffff"
         id="path34" />
      <path
         d="m 180.37,209.18 c 1.57,5.4 3.15,10.95 4.78,16.37 1.63,5.42 3.3,10.87 5.18,16 0.46,1.31 1,2.53 1.44,3.79 l 0.77,1.77 0.1,0.22 v 0.11 0.06 0 -0.07 A 3.78,3.78 0 0 0 192,246.59 c -0.34,-0.33 -0.47,-0.36 -0.5,-0.36 a 2.49,2.49 0 0 0 0.76,0.47 12.43,12.43 0 0 0 1.51,0.61 c 1.13,0.39 2.4,0.74 3.69,1.09 5.23,1.33 10.94,2.35 16.5,3.54 l -0.18,6.93 a 85,85 0 0 1 -9,0.73 80.17,80.17 0 0 1 -9.14,-0.17 43,43 0 0 1 -4.82,-0.62 c -0.84,-0.16 -1.71,-0.36 -2.65,-0.63 a 14.7,14.7 0 0 1 -3.2,-1.32 10.37,10.37 0 0 1 -2.2,-1.69 8.25,8.25 0 0 1 -1.28,-1.72 l -0.34,-0.63 -1.13,-2.14 c -0.66,-1.4 -1.38,-2.81 -2,-4.2 -1.23,-2.81 -2.31,-5.59 -3.39,-8.38 -1.08,-2.79 -2,-5.58 -2.93,-8.38 -1.85,-5.63 -3.52,-11.2 -5,-17 z"
         style="fill:#b55b52"
         id="path35" />
      <path
         d="m 166.12,203.61 c 6.86,-7 15.63,-3.18 19.4,9.46 3.77,12.64 3.09,13.56 3.09,13.56 l -18.43,7.15 c -4.35,-12.04 -11.08,-23.04 -4.06,-30.17 z"
         style="fill:#2117fb"
         id="path36" />
      <path
         d="m 218.86,249.26 -1.47,-0.13 c -4.18,0 -4.89,1.14 -7.46,3.53 l -1,5.26 c 6.75,3.45 10.37,-0.34 10.37,-0.34 h 6.26 l -2.21,-5 a 5.48,5.48 0 0 0 -4.49,-3.32 z"
         style="fill:#b55b52"
         id="path37" />
      <rect
         x="132.55"
         y="304.87"
         width="69.18"
         height="9.2200003"
         rx="2.55"
         transform="rotate(180,167.14,309.485)"
         style="fill:#2117fb"
         id="rect37" />
      <polygon
         points="132.55,416.75 135.82,314.09 139.75,314.09 135.39,416.75 "
         style="fill:#2117fb"
         id="polygon37" />
      <polygon
         points="132.55,416.75 135.82,314.09 139.75,314.09 135.39,416.75 "
         style="opacity:0.4;fill:#ffffff"
         id="polygon38" />
      <polygon
         points="164.35,416.75 161.09,314.09 157.16,314.09 161.51,416.75 "
         style="fill:#2117fb"
         id="polygon39" />
      <polygon
         points="164.35,416.75 161.09,314.09 157.16,314.09 161.51,416.75 "
         style="opacity:0.4;fill:#ffffff"
         id="polygon40" />
      <polygon
         points="169.93,416.75 173.2,314.09 177.13,314.09 172.77,416.75 "
         style="fill:#2117fb"
         id="polygon41" />
      <polygon
         points="169.93,416.75 173.2,314.09 177.13,314.09 172.77,416.75 "
         style="opacity:0.4;fill:#ffffff"
         id="polygon42" />
      <polygon
         points="201.73,416.75 198.47,314.09 194.54,314.09 198.89,416.75 "
         style="fill:#2117fb"
         id="polygon43" />
      <polygon
         points="201.73,416.75 198.47,314.09 194.54,314.09 198.89,416.75 "
         style="opacity:0.4;fill:#ffffff"
         id="polygon44" />
      <g
         style="opacity:0.3"
         id="g48">
        <polygon
           points="139.75,314.09 139.56,318.45 135.68,318.45 135.82,314.09 "
           style="fill:#2117fb"
           id="polygon45" />
        <polygon
           points="157.34,318.45 157.16,314.09 161.08,314.09 161.22,318.45 "
           style="fill:#2117fb"
           id="polygon46" />
        <polygon
           points="176.94,318.45 173.06,318.45 173.2,314.09 177.12,314.09 "
           style="fill:#2117fb"
           id="polygon47" />
        <polygon
           points="194.72,318.45 194.54,314.09 198.47,314.09 198.61,318.45 "
           style="fill:#2117fb"
           id="polygon48" />
      </g>
    </g>
    <g
       id="freepik--Desk--inject-37"
       transform="translate(0,5.13)">
      <path
         d="M 387.82,264.22 H 110.54 a 3.34,3.34 0 0 1 -3.33,-3.33 v 0 a 3.34,3.34 0 0 1 3.33,-3.33 h 277.28 a 3.34,3.34 0 0 1 3.33,3.33 v 0 a 3.34,3.34 0 0 1 -3.33,3.33 z"
         style="fill:#2117fb"
         id="path1" />
      <path
         d="m 387.82,264.22 h -64.91 a 3.34,3.34 0 0 1 -3.33,-3.33 v 0 a 3.34,3.34 0 0 1 3.33,-3.33 h 64.91 a 3.34,3.34 0 0 1 3.33,3.33 v 0 a 3.34,3.34 0 0 1 -3.33,3.33 z"
         style="opacity:0.3;fill:#263238"
         id="path2" />
      <rect
         x="167.53"
         y="272.57001"
         width="213.25"
         height="23.209999"
         style="fill:#263238"
         id="rect2" />
      <rect
         x="167.53"
         y="272.57001"
         width="213.25"
         height="23.209999"
         style="opacity:0.1;fill:#ffffff"
         id="rect3" />
      <polygon
         points="377.68,411.62 384.06,411.62 383.8,264.22 374.96,264.22 "
         style="fill:#263238"
         id="polygon3" />
      <polygon
         points="377.68,411.62 384.06,411.62 383.8,264.22 374.96,264.22 "
         style="opacity:0.1;fill:#ffffff"
         id="polygon4" />
      <polygon
         points="318.88,411.62 312.49,411.62 326.93,264.22 335.77,264.22 "
         style="fill:#263238"
         id="polygon5" />
      <polygon
         points="318.88,411.62 312.49,411.62 326.93,264.22 335.77,264.22 "
         style="opacity:0.2;fill:#ffffff"
         id="polygon6" />
      <polygon
         points="165.31,411.62 171.69,411.62 171.43,264.22 162.59,264.22 "
         style="fill:#263238"
         id="polygon7" />
      <polygon
         points="165.31,411.62 171.69,411.62 171.43,264.22 162.59,264.22 "
         style="opacity:0.1;fill:#ffffff"
         id="polygon8" />
      <polygon
         points="106.51,411.62 100.12,411.62 114.56,264.22 123.4,264.22 "
         style="fill:#263238"
         id="polygon9" />
      <polygon
         points="106.51,411.62 100.12,411.62 114.56,264.22 123.4,264.22 "
         style="opacity:0.2;fill:#ffffff"
         id="polygon10" />
      <polygon
         points="286.11,257.56 271.39,257.56 265.5,228.78 280.22,228.78 "
         style="fill:#263238"
         id="polygon11" />
      <path
         d="m 305.64,251.63 h -63.86 a 3.59,3.59 0 0 1 -3.62,-3.85 l 2.44,-40.43 a 4.15,4.15 0 0 1 4.08,-3.85 h 63.87 a 3.6,3.6 0 0 1 3.62,3.85 l -2.44,40.43 a 4.16,4.16 0 0 1 -4.09,3.85 z"
         style="fill:#263238"
         id="path11" />
      <path
         d="m 304.64,251.63 h -63.86 a 3.59,3.59 0 0 1 -3.62,-3.85 l 2.44,-40.43 a 4.15,4.15 0 0 1 4.08,-3.85 h 63.87 a 3.6,3.6 0 0 1 3.62,3.85 l -2.44,40.43 a 4.16,4.16 0 0 1 -4.09,3.85 z"
         style="fill:#2117fb"
         id="path12" />
      <path
         d="m 240.77,249.63 a 1.64,1.64 0 0 1 -1.19,-0.5 1.67,1.67 0 0 1 -0.43,-1.23 l 2.44,-40.43 a 2.15,2.15 0 0 1 2.09,-2 h 63.87 a 1.6,1.6 0 0 1 1.62,1.73 l -2.44,40.43 a 2.14,2.14 0 0 1 -2.09,2 z"
         style="fill:#ffffff"
         id="path13" />
      <polygon
         points="272.97,217.71 285.29,203.5 268.82,203.5 "
         style="opacity:0.2"
         id="polygon13" />
    </g>
    <g
       id="freepik--Telecommuting--inject-37"
       transform="translate(0,5.13)">
      <path
         d="M 389,188.61 H 228.83 a 9,9 0 0 1 -9.07,-9.65 l 6.11,-101.37 a 10.42,10.42 0 0 1 10.24,-9.65 h 160.13 a 9,9 0 0 1 9.07,9.65 L 399.19,179 A 10.41,10.41 0 0 1 389,188.61 Z"
         style="fill:#2117fb"
         id="path48" />
      <polygon
         points="265.03,217.71 308.85,167.18 250.26,167.18 "
         style="fill:#2117fb"
         id="polygon49" />
      <path
         d="m 381.19,147.82 h -89.76 a 5.05,5.05 0 0 1 -5.09,-5.41 l 3.43,-56.82 a 5.84,5.84 0 0 1 5.74,-5.41 h 89.76 a 5,5 0 0 1 5.09,5.41 l -3.43,56.82 a 5.84,5.84 0 0 1 -5.74,5.41 z"
         style="opacity:0.1;fill:#ffffff"
         id="path49" />
      <path
         d="M 333.17,172.33 H 243.4 a 5.05,5.05 0 0 1 -5.08,-5.41 l 3.43,-56.82 a 5.84,5.84 0 0 1 5.73,-5.41 h 89.77 a 5,5 0 0 1 5.08,5.41 l -3.43,56.82 a 5.84,5.84 0 0 1 -5.73,5.41 z"
         style="opacity:0.1;fill:#ffffff"
         id="path50" />
      <g
         style="opacity:0.5"
         id="g53">
        <path
           d="m 242.21,76.76 a 3.08,3.08 0 0 1 -2.87,3 2.6,2.6 0 0 1 -2.44,-3 3.1,3.1 0 0 1 2.87,-3 2.6,2.6 0 0 1 2.44,3 z"
           style="fill:#ffffff"
           id="path51" />
        <path
           d="m 252,76.76 a 3.09,3.09 0 0 1 -2.87,3 2.6,2.6 0 0 1 -2.45,-3 3.1,3.1 0 0 1 2.87,-3 2.61,2.61 0 0 1 2.45,3 z"
           style="fill:#ffffff"
           id="path52" />
        <path
           d="m 261.86,76.76 a 3.08,3.08 0 0 1 -2.87,3 2.6,2.6 0 0 1 -2.44,-3 3.1,3.1 0 0 1 2.87,-3 2.6,2.6 0 0 1 2.44,3 z"
           style="fill:#ffffff"
           id="path53" />
      </g>
      <path
         d="M 387.76,187.67 H 227.63 a 9.27,9.27 0 0 1 -9.32,-9.92 l 6.12,-101.37 a 10.66,10.66 0 0 1 10.48,-9.89 H 395 a 9.27,9.27 0 0 1 9.32,9.92 l -6.11,101.37 a 10.67,10.67 0 0 1 -10.45,9.89 z M 234.91,67 a 10.15,10.15 0 0 0 -10,9.42 l -6.12,101.37 a 8.75,8.75 0 0 0 8.82,9.39 h 160.15 a 10.16,10.16 0 0 0 10,-9.42 L 403.87,76.39 A 8.77,8.77 0 0 0 395,67 Z"
         style="opacity:0.3;fill:#263238"
         id="path54" />
      <path
         d="m 301.05,128.41 c -0.68,1.44 -1.3,2.67 -2,4 -0.7,1.33 -1.4,2.53 -2.12,3.78 -1.47,2.49 -3,5 -4.64,7.34 q -1.24,1.8 -2.54,3.57 c -0.91,1.16 -1.77,2.34 -2.74,3.47 a 70.23,70.23 0 0 1 -6.11,6.64 c -0.55,0.54 -1.15,1 -1.73,1.57 a 19.44,19.44 0 0 1 -1.82,1.51 l -1.92,1.45 -0.59,0.41 a 8,8 0 0 1 -0.81,0.45 8.16,8.16 0 0 1 -1.72,0.6 8.12,8.12 0 0 1 -6.81,-1.48 8.54,8.54 0 0 1 -1.29,-1.26 l -0.27,-0.36 -0.13,-0.18 -0.05,-0.08 -0.18,-0.32 -0.72,-1.3 c -0.22,-0.42 -0.37,-0.82 -0.55,-1.23 a 32.39,32.39 0 0 1 -1.54,-4.65 62.21,62.21 0 0 1 -1.46,-8.79 75.88,75.88 0 0 1 -0.38,-8.68 3.45,3.45 0 0 1 6.76,-0.88 v 0.12 a 127.44,127.44 0 0 0 4.91,15 23.84,23.84 0 0 0 1.55,3 c 0.13,0.2 0.26,0.44 0.39,0.61 l 0.38,0.46 0.09,0.12 v 0 l -0.05,-0.08 -0.11,-0.15 a 3.12,3.12 0 0 0 -0.54,-0.55 3.56,3.56 0 0 0 -1.36,-0.68 3.65,3.65 0 0 0 -1.51,0 3.48,3.48 0 0 0 -0.75,0.25 c -0.13,0 -0.24,0.13 -0.36,0.19 -0.12,0.06 -0.3,0.21 -0.17,0.1 l 1.25,-1.22 c 0.42,-0.38 0.83,-0.84 1.24,-1.28 0.41,-0.44 0.83,-0.87 1.23,-1.34 A 104.94,104.94 0 0 0 280.86,136 c 1.37,-2.23 2.72,-4.5 4,-6.8 l 1.93,-3.46 1.83,-3.38 0.1,-0.18 a 6.9,6.9 0 0 1 12.31,6.21 z"
         style="fill:#263238"
         id="path55" />
      <path
         d="m 259.87,134.43 -4.87,-2.79 5.24,-5.35 a 29.91,29.91 0 0 1 4.25,3.83 2.84,2.84 0 0 1 -0.8,4.49 v 0 a 4.13,4.13 0 0 1 -3.82,-0.18 z"
         style="fill:#ffc3bd"
         id="path56" />
      <path
         d="m 253.89,125.91 2.65,-1.89 a 1.62,1.62 0 0 1 2.25,0.34 l 1.45,1.93 -5.24,5.35 -1.65,-3.76 a 1.62,1.62 0 0 1 0.54,-1.97 z"
         style="fill:#ffc3bd"
         id="path57" />
      <path
         d="m 290.56,123.93 a 7.43,7.43 0 0 1 5.78,-5.15 45.29,45.29 0 0 1 5.89,-0.9 157.35,157.35 0 0 1 17.89,0.32 c 3.12,0.21 6.31,0.65 8.85,1.07 h 0.09 a 5.15,5.15 0 0 1 4.24,5.91 c -1.25,7.22 -4.92,19.78 -5.32,31.63 -0.53,15.56 -0.29,24.52 -0.56,28.27 l -40.05,-0.77 c -2.79,-38.03 0.68,-51.77 3.19,-60.38 z"
         style="fill:#ffffff"
         id="path58" />
      <path
         d="M 330.13,118.68 H 330 c -2.68,-0.44 -6,-0.91 -9.33,-1.13 l -1.78,-0.1 c -1.75,7.24 -12.18,19.42 -15.34,37.88 -1.22,-15.43 -2.16,-31.56 -0.37,-37.85 a 79.61,79.61 0 0 0 -8.46,0.71 8.61,8.61 0 0 0 -6.34,5.9 c -2.46,7.24 -7.16,23.46 -4.27,63.34 h 44.51 c 0.29,-4 -0.75,-12.4 0.86,-25.33 1.55,-12.52 3.78,-29.56 5.09,-37.17 a 5.44,5.44 0 0 0 -4.44,-6.25 z"
         style="fill:#263238"
         id="path59" />
      <path
         d="m 302.6,185.35 a 0.26,0.26 0 0 1 -0.27,-0.24 c -0.94,-11.25 0.82,-27.4 0.84,-27.57 a 0.26,0.26 0 0 1 0.29,-0.23 0.27,0.27 0 0 1 0.24,0.29 c 0,0.16 -1.78,16.27 -0.84,27.46 a 0.26,0.26 0 0 1 -0.24,0.29 z"
         style="opacity:0.2;fill:#ffffff"
         id="path60" />
      <path
         d="m 328.56,134.51 c -1.65,7.48 -0.77,17.84 1,27.29 1.31,-10.61 3.1,-24.38 4.41,-32.9 -1.83,-1.22 -4.1,-0.36 -5.41,5.61 z"
         style="opacity:0.3"
         id="path61" />
      <path
         d="m 303.08,117.83 c 5.19,-1.14 6.09,-4.34 5.72,-7.88 a 22.49,22.49 0 0 0 -0.43,-2.63 l 6.48,-5.3 4.77,-3.88 c -1.3,5.74 -2.73,16.21 1.19,20.12 0,0 -3.2,5.25 -12.1,4.61 -7.52,-0.54 -5.63,-5.04 -5.63,-5.04 z"
         style="fill:#ffc3bd"
         id="path62" />
      <polygon
         points="310.97,121.55 309.53,122.91 314.13,124.64 313.53,122.89 "
         style="fill:#e0e0e0"
         id="polygon62" />
      <path
         d="m 314.49,127.08 c 0,0 -1.81,-4.57 -3.52,-5.54 a 19,19 0 0 0 8.91,-4.93 l 2.73,1.09 c 0,0 0.86,5.3 -8.12,9.38 z"
         style="fill:#f5f5f5"
         id="path63" />
      <polygon
         points="308.45,121.19 309.53,122.91 304.69,123.33 305.66,121.8 "
         style="fill:#e0e0e0"
         id="polygon63" />
      <path
         d="m 302.26,125.79 a 21.79,21.79 0 0 1 6.19,-4.6 c -2.63,-0.78 -2.79,-4.4 -2.79,-4.4 l -2.55,0.49 c 0,0 -4.68,4.55 -0.85,8.51 z"
         style="fill:#f5f5f5"
         id="path64" />
      <path
         d="m 308.37,107.31 a 23,23 0 0 1 0.43,2.64 c 2.42,-0.44 5.66,-3 6,-5.45 a 11.22,11.22 0 0 0 0.07,-2.48 z"
         style="opacity:0.2"
         id="path65" />
      <path
         d="m 300.5,81.14 c -2.32,2.85 -2.1,13.16 2.81,13.28 4.91,0.12 1.41,-18.48 -2.81,-13.28 z"
         style="fill:#263238"
         id="path66" />
      <path
         d="m 321.65,88.64 c -0.49,7.81 -0.39,12.4 -4.33,16.44 -5.92,6.07 -15.52,2.58 -17.37,-5.19 -1.65,-7 -0.57,-18.59 7.06,-21.76 a 10.53,10.53 0 0 1 14.64,10.51 z"
         style="fill:#ffc3bd"
         id="path67" />
      <path
         d="m 317.81,82.14 c -4.91,4.87 1.47,8.44 -1,11.06 4.63,2.42 2.93,4.2 2.93,4.2 a 6.08,6.08 0 0 0 0,4.12 c 5.22,-1.34 14.91,-18.68 4.33,-21.34 -6.33,2.82 -6.26,1.96 -6.26,1.96 z"
         style="fill:#263238"
         id="path68" />
      <path
         d="m 319.82,85.64 c -4.65,0.72 -10.5,-1.5 -14.13,-3.38 -3.63,-1.88 -4.16,1.67 -2.82,2.75 -2.33,0.08 -5.28,-1.76 -4.55,-5.87 0.67,-3.75 5.58,-7.3 12.57,-4.13 4.95,2.24 11.05,-0.71 13.43,1.88 2.38,2.59 -1.4,8.26 -4.5,8.75 z"
         style="fill:#263238"
         id="path69" />
      <path
         d="m 323,80.55 c 3.12,-0.41 3.25,-2.38 2.38,-5.83 3.37,4.79 2,6.26 0,7.42 C 323.15,81.39 323,80.55 323,80.55 Z"
         style="fill:#263238"
         id="path70" />
      <path
         d="m 323.75,94.63 a 7.14,7.14 0 0 1 -3.41,3.49 c -1.93,0.87 -2.91,-0.91 -2.39,-3 0.47,-1.89 2,-4.61 4,-4.59 2,0.02 2.67,2.17 1.8,4.1 z"
         style="fill:#ffc3bd"
         id="path71" />
      <path
         d="m 309.46,91 c 0,0.63 -0.34,1.15 -0.75,1.16 C 308.3,92.17 308,91.65 308,91 c 0,-0.65 0.34,-1.15 0.75,-1.15 0.41,0 0.71,0.51 0.71,1.15 z"
         style="fill:#263238"
         id="path72" />
      <path
         d="m 302.3,91.06 c 0,0.64 -0.34,1.15 -0.76,1.16 -0.42,0.01 -0.75,-0.51 -0.74,-1.15 0.01,-0.64 0.33,-1.15 0.75,-1.15 0.42,0 0.75,0.51 0.75,1.14 z"
         style="fill:#263238"
         id="path73" />
      <path
         d="m 305,91.28 a 23,23 0 0 1 -3,5.46 3.65,3.65 0 0 0 3,0.55 z"
         style="fill:#ed847e"
         id="path74" />
      <path
         d="m 307.52,99 a 5.27,5.27 0 0 0 3.67,-2.13 0.18445867,0.18445867 0 1 0 -0.31,-0.2 5.1,5.1 0 0 1 -4.1,2 0.18,0.18 0 0 0 -0.18,0.19 0.18,0.18 0 0 0 0.19,0.18 C 307.05,99 307.29,99 307.52,99 Z"
         style="fill:#263238"
         id="path75" />
      <path
         d="m 312.93,88.47 a 0.28,0.28 0 0 0 0.17,-0.07 0.36,0.36 0 0 0 0.07,-0.52 3.68,3.68 0 0 0 -3,-1.52 0.36,0.36 0 0 0 -0.33,0.4 0.39,0.39 0 0 0 0.41,0.35 2.86,2.86 0 0 1 2.37,1.22 0.37,0.37 0 0 0 0.31,0.14 z"
         style="fill:#263238"
         id="path76" />
      <path
         d="m 299.4,88.78 a 0.37,0.37 0 0 0 0.28,-0.2 3,3 0 0 1 2.11,-1.72 0.35,0.35 0 0 0 0.31,-0.42 0.39,0.39 0 0 0 -0.42,-0.32 v 0 a 3.74,3.74 0 0 0 -2.68,2.12 0.38,0.38 0 0 0 0.17,0.5 0.45,0.45 0 0 0 0.23,0.04 z"
         style="fill:#263238"
         id="path77" />
      <path
         d="m 335.76,123.2 c 1.22,2.57 2.24,5 3.24,7.5 1,2.5 1.89,5.05 2.78,7.6 a 127.64,127.64 0 0 1 4.22,15.88 c 0.23,1.39 0.49,2.75 0.66,4.18 l 0.13,1.06 0.07,0.53 v 0.27 0.37 a 16.2,16.2 0 0 1 0,3.11 14,14 0 0 1 -2.27,6.33 14.19,14.19 0 0 1 -4.54,4.25 19,19 0 0 1 -4.82,2 25.75,25.75 0 0 1 -4.6,0.82 32.9,32.9 0 0 1 -8.79,-0.35 3.44,3.44 0 0 1 -0.18,-6.75 l 0.36,-0.08 c 1,-0.23 2.31,-0.51 3.43,-0.81 1.12,-0.3 2.26,-0.65 3.32,-1 a 14.8,14.8 0 0 0 5.05,-2.8 3.32,3.32 0 0 0 0.87,-1.32 2.72,2.72 0 0 0 0,-1.07 6.73,6.73 0 0 0 -0.15,-0.8 l -0.36,-1.63 c -0.23,-1.14 -0.56,-2.32 -0.86,-3.48 -0.62,-2.35 -1.32,-4.7 -2.12,-7.06 -0.8,-2.36 -1.62,-4.71 -2.49,-7.06 -0.87,-2.35 -1.79,-4.7 -2.72,-7 -0.93,-2.3 -1.91,-4.72 -2.84,-6.91 v -0.1 a 6.8932213,6.8932213 0 0 1 12.58,-5.64 z"
         style="fill:#263238"
         id="path78" />
      <path
         d="m 318.68,172.88 -4.41,2.12 7.62,2.71 c 0,0 5.08,-1.62 2.62,-4.44 l -1.37,-0.43 c -2.2,-0.72 -3.28,-0.64 -4.46,0.04 z"
         style="fill:#ffc3bd"
         id="path79" />
      <path
         d="m 314.86,180.38 3.35,0.64 a 2.34,2.34 0 0 0 2.46,-1.15 l 1.22,-2.19 -7.62,-2.68 -1,2.09 a 2.32,2.32 0 0 0 1.59,3.29 z"
         style="fill:#ffc3bd"
         id="path80" />
    </g>
  </g>
</svg>
