<?xml version="1.0" encoding="UTF-8" standalone="no"?>
<svg
   viewBox="0 0 500 500"
   version="1.1"
   id="svg49"
   xmlns="http://www.w3.org/2000/svg"
   xmlns:svg="http://www.w3.org/2000/svg">
  <defs
     id="defs49" />
  <g
     id="g49"
     transform="translate(0,83.76)">
    <g
       id="freepik--Character--inject-1">
      <polygon
         points="279,399.81 283.06,381.55 290.65,384.18 286.59,402.44 "
         style="fill:#b55b52"
         id="polygon1" />
      <polygon
         points="341.63,408.04 339.56,389.45 347.59,389.45 349.66,408.04 "
         style="fill:#b55b52"
         id="polygon2" />
      <path
         d="m 341,407.11 h 9.19 a 0.7,0.7 0 0 1 0.68,0.55 l 1.59,7.14 a 1.18,1.18 0 0 1 -1.18,1.42 c -3.15,-0.05 -5.44,-0.24 -9.41,-0.24 -2.44,0 -9.2,0.26 -12.57,0.26 -3.37,0 -3.81,-3.33 -2.43,-3.64 6.18,-1.35 10.84,-3.21 12.82,-5 a 2,2 0 0 1 1.31,-0.49 z"
         style="fill:#263238"
         id="path2" />
      <path
         d="m 279.11,399 8.28,2.87 a 0.7,0.7 0 0 1 0.47,0.74 l -0.84,7.26 a 1.16,1.16 0 0 1 -1.55,1 c -3,-1.09 -7.23,-2.76 -11,-4.06 -4.39,-1.52 -6.48,-1.85 -11.63,-3.63 -3.11,-1.08 -2.23,-4.44 -0.82,-4.37 6.42,0.35 8.83,1.56 15.05,0.17 a 3.78,3.78 0 0 1 2.04,0.02 z"
         style="fill:#263238"
         id="path3" />
      <path
         d="m 326.65,167.75 c -2.28,2.44 -4.5,4.66 -6.84,6.89 -2.34,2.23 -4.7,4.37 -7.15,6.49 a 120.66,120.66 0 0 1 -15.89,11.77 52.2,52.2 0 0 1 -4.64,2.5 c -0.81,0.4 -1.68,0.77 -2.55,1.13 l -1.37,0.5 c -0.48,0.16 -1,0.31 -1.52,0.45 a 22,22 0 0 1 -12.46,-0.41 27.67,27.67 0 0 1 -9.74,-5.73 34.63,34.63 0 0 1 -3.67,-3.81 c -0.56,-0.67 -1.09,-1.37 -1.59,-2.08 -0.5,-0.71 -0.94,-1.4 -1.47,-2.28 l 5.52,-4.19 1.58,1.26 c 0.56,0.44 1.13,0.85 1.7,1.26 a 37.64,37.64 0 0 0 3.5,2.2 21.32,21.32 0 0 0 7,2.49 11.52,11.52 0 0 0 6,-0.69 l 0.71,-0.3 0.8,-0.37 c 0.55,-0.28 1.1,-0.55 1.68,-0.89 1.14,-0.63 2.29,-1.4 3.46,-2.18 2.33,-1.58 4.65,-3.37 6.93,-5.26 2.28,-1.89 4.54,-3.85 6.78,-5.88 2.24,-2.03 4.44,-4.1 6.63,-6.19 2.19,-2.09 4.4,-4.26 6.45,-6.32 z"
         style="fill:#263238"
         id="path4" />
      <path
         d="m 263.33,179.61 -5,-7.77 -5,9.7 c 0,0 5.8,6.11 8.67,3.32 z"
         style="fill:#b55b52"
         id="path5" />
      <polygon
         points="249.59,177.34 253.25,181.54 258.29,171.84 252.28,170.51 "
         style="fill:#b55b52"
         id="polygon5" />
      <polygon
         points="280.97,390.97 288.56,393.6 290.65,384.18 283.06,381.56 "
         style="opacity:0.2"
         id="polygon6" />
      <polygon
         points="339.56,389.46 340.63,399.04 348.66,399.04 347.59,389.46 "
         style="opacity:0.2"
         id="polygon7" />
      <path
         d="m 359.87,167.44 c -8.21,27.78 -7.34,57.27 -8.42,63.26 -6.24,-0.83 -33,-4.75 -45.85,-6.48 -2,-32.18 5.76,-53.74 9.28,-63.31 a 10.17,10.17 0 0 1 9.07,-6.66 h 0.11 c 1.18,-0.05 2.45,-0.08 3.77,-0.07 0.73,0 1.47,0 2.22,0 a 159.1,159.1 0 0 1 18.09,2.44 c 1.13,0.21 2.28,0.45 3.39,0.7 1.11,0.25 2,0.49 3,0.74 h 0.13 a 7.42,7.42 0 0 1 5.21,9.38 z"
         style="fill:#263238"
         id="path7" />
      <polygon
         points="338,178.01 347.42,179.57 347.72,178.39 338.1,176.57 "
         style="fill:#ffffff"
         id="polygon8" />
      <path
         d="m 330.05,154.23 c -2.16,2.26 -4.7,21.1 -1.55,29.85 5.32,-8.83 16,-24.69 19.63,-27.41 a 158.94,158.94 0 0 0 -18.08,-2.44 z"
         style="opacity:0.3;fill:#ffffff"
         id="path8" />
      <path
         d="m 349.09,136.06 c -1.92,5.66 -4.5,16.17 -0.95,20.6 -1.34,1.32 -6.9,2.43 -12,1.65 -4.19,-0.64 -6.19,-2.46 -6.08,-4.08 6.7,-0.68 7.18,-5.52 6.66,-10.19 z"
         style="fill:#b55b52"
         id="path9" />
      <path
         d="m 344,139.31 -7.28,4.69 a 19.24,19.24 0 0 1 0.12,3.29 c 2.53,0 6.3,-2.29 6.92,-4.85 a 8.87,8.87 0 0 0 0.24,-3.13 z"
         style="opacity:0.2"
         id="path10" />
      <path
         d="m 331.68,132.07 c -1.12,-2.54 -1.54,-7.49 0.57,-13.87 1.72,-5.2 7.17,-3.52 10.94,-2.61 3.77,0.91 2.38,6 -0.36,9.71 -2.94,3.95 -11.15,6.77 -11.15,6.77 z"
         style="fill:#263238"
         id="path11" />
      <path
         d="m 353.52,128.05 c -2.3,7.63 -3.25,12.21 -8.1,15.26 -7.28,4.59 -16,-1.2 -16,-9.36 0,-7.35 3.73,-18.59 12,-19.88 a 10.86,10.86 0 0 1 12.1,13.98 z"
         style="fill:#b55b52"
         id="path12" />
      <path
         d="m 348.35,136 c -1.34,-2.43 -1.88,-8.82 -0.6,-13.86 1,-3.82 7.22,-4.69 10.67,-2.92 4.11,2.11 3.34,6.25 0.25,9.63 -3.34,3.66 -10.32,7.15 -10.32,7.15 z"
         style="fill:#263238"
         id="path13" />
      <path
         d="m 357.6,121.56 c 3.08,-0.18 5.12,-4.27 2.62,-6.23 -2.94,-2.3 -7,0 -10.7,-5.09 -3.47,-4.78 -12.08,-5.61 -15.32,-1.32 -1.86,2.47 -0.2,3.46 -5.19,6.46 -2.91,1.75 -2,4.72 -1.25,6.18 -0.08,-1.1 0.38,-3.93 3.09,-4.54 2.27,-0.51 3.61,1.45 5.17,-0.31 0,0 5.28,4.85 15.28,5.62 5.57,0.43 6.3,-0.77 6.3,-0.77 z"
         style="fill:#263238"
         id="path14" />
      <path
         d="m 355,137.4 a 7.61,7.61 0 0 1 -5.36,2.18 c -2.65,0 -3.23,-2.6 -1.87,-4.71 1.23,-1.9 4.09,-4.18 6.46,-3.12 2.37,1.06 2.51,3.91 0.77,5.65 z"
         style="fill:#b55b52"
         id="path15" />
      <path
         d="m 278.73,388.23 12.85,4.44 c 0,0 12.58,-49.58 16.52,-74.28 1.2,-7.52 3.88,-17.92 7.12,-29 4.09,-14 9,-29.08 13.09,-40.89 4.25,-12.44 7.44,-21.23 7.44,-21.23 l -28,-3.77 c 0,0 -18.69,63.59 -22,87.87 -3.35,25.22 -7.02,76.86 -7.02,76.86 z"
         style="fill:#263238"
         id="path16" />
      <path
         d="m 315.22,289.37 c 4.09,-14 9,-29.08 13.09,-40.89 L 325.8,242 c -7.51,7.84 -11.03,33.36 -10.58,47.37 z"
         style="opacity:0.2"
         id="path17" />
      <path
         d="m 322.87,225.51 c 0,0 -1.38,68.78 0.51,92.22 2.06,25.67 13.54,79.46 13.54,79.46 h 14.71 c 0,0 -2.05,-49.34 -5.06,-74.27 -3.43,-28.4 3.76,-93.71 3.76,-93.71 z"
         style="fill:#263238"
         id="path18" />
      <polygon
         points="352.48,397.5 352.48,392.33 333.99,392 335.16,397.5 "
         style="fill:#263238"
         id="polygon18" />
      <polygon
         points="292.32,393.27 294.03,388.33 277.71,381.56 277.01,387.97 "
         style="fill:#263238"
         id="polygon19" />
      <path
         d="m 341.27,127.45 c -0.15,0.63 -0.6,1.06 -1,1 -0.4,-0.06 -0.63,-0.68 -0.48,-1.31 0.15,-0.63 0.6,-1.06 1,-1 0.4,0.06 0.63,0.68 0.48,1.31 z"
         style="fill:#263238"
         id="path19" />
      <path
         d="m 334.15,125.77 c -0.15,0.63 -0.6,1.07 -1,1 -0.4,-0.07 -0.62,-0.69 -0.47,-1.32 0.15,-0.63 0.6,-1.06 1,-1 0.4,0.06 0.62,0.69 0.47,1.32 z"
         style="fill:#263238"
         id="path20" />
      <path
         d="m 336.34,126.62 a 23.13,23.13 0 0 1 -4.28,4.68 3.74,3.74 0 0 0 2.88,1.27 z"
         style="fill:#a02724"
         id="path21" />
      <path
         d="m 337.2,134.89 a 5.35,5.35 0 0 0 4,-1.23 0.19104973,0.19104973 0 0 0 -0.26,-0.28 5.12,5.12 0 0 1 -4.53,1 0.19,0.19 0 0 0 -0.23,0.14 0.2,0.2 0 0 0 0.14,0.23 c 0.33,0.06 0.61,0.11 0.88,0.14 z"
         style="fill:#263238"
         id="path22" />
      <path
         d="m 344,125.66 a 0.32,0.32 0 0 0 0.19,0 0.37,0.37 0 0 0 0.19,-0.5 3.76,3.76 0 0 0 -2.65,-2.23 0.38,0.38 0 0 0 -0.44,0.31 0.39,0.39 0 0 0 0.32,0.44 v 0 a 3,3 0 0 1 2.08,1.79 0.37,0.37 0 0 0 0.31,0.19 z"
         style="fill:#263238"
         id="path23" />
      <path
         d="m 331.65,122.6 a 0.38,0.38 0 0 0 0.34,-0.14 3,3 0 0 1 2.48,-1.18 0.37,0.37 0 0 0 0.41,-0.34 0.39,0.39 0 0 0 -0.33,-0.42 3.8,3.8 0 0 0 -3.15,1.48 0.38,0.38 0 0 0 0.05,0.54 0.39,0.39 0 0 0 0.2,0.06 z"
         style="fill:#263238"
         id="path24" />
      <path
         d="m 338.33,408.52 a 9.76,9.76 0 0 0 2.1,-0.29 0.2,0.2 0 0 0 0.15,-0.16 0.21,0.21 0 0 0 -0.09,-0.19 c -0.29,-0.18 -2.88,-1.77 -3.77,-1.32 a 0.62,0.62 0 0 0 -0.33,0.54 1.17,1.17 0 0 0 0.4,1 2.44,2.44 0 0 0 1.54,0.42 z m 1.55,-0.56 c -1.36,0.27 -2.41,0.22 -2.85,-0.15 a 0.76,0.76 0 0 1 -0.26,-0.68 0.25,0.25 0 0 1 0.12,-0.23 c 0.46,-0.24 1.94,0.45 2.99,1.1 z"
         style="fill:#2117fb"
         id="path25" />
      <path
         d="m 340.39,408.23 a 0.19,0.19 0 0 0 0.1,0 0.2,0.2 0 0 0 0.09,-0.17 c 0,-0.1 -0.2,-2.42 -1.14,-3.18 a 1,1 0 0 0 -0.81,-0.24 v 0 a 0.61,0.61 0 0 0 -0.6,0.49 c -0.17,0.9 1.44,2.66 2.27,3.11 z M 338.77,405 a 0.62,0.62 0 0 1 0.43,0.17 4.49,4.49 0 0 1 0.95,2.51 c -0.82,-0.63 -1.85,-2 -1.75,-2.48 0,-0.05 0,-0.17 0.28,-0.2 z"
         style="fill:#2117fb"
         id="path26" />
      <path
         d="m 278,399.74 a 0.19,0.19 0 0 0 0.17,-0.1 0.2,0.2 0 0 0 0,-0.22 c -0.28,-0.29 -2.8,-2.9 -3.9,-2.7 a 0.62,0.62 0 0 0 -0.46,0.37 v 0 a 1.08,1.08 0 0 0 0,1 c 0.58,1 2.86,1.48 4.16,1.66 z m -3.62,-2.65 c 0.64,0 2.08,1.2 3.08,2.19 -1.77,-0.3 -3,-0.81 -3.31,-1.38 a 0.68,0.68 0 0 1 0,-0.65 0.22,0.22 0 0 1 0.18,-0.16 z"
         style="fill:#2117fb"
         id="path27" />
      <path
         d="m 278,399.74 h 0.05 a 0.22,0.22 0 0 0 0.14,-0.14 c 0,-0.09 0.52,-2.2 -0.17,-3.33 a 1.4,1.4 0 0 0 -0.89,-0.65 v 0 c -0.51,-0.12 -0.74,0.08 -0.84,0.27 -0.44,0.81 0.81,3.07 1.58,3.8 a 0.17,0.17 0 0 0 0.13,0.05 z M 276.85,396 h 0.19 v 0 a 1,1 0 0 1 0.65,0.48 4.39,4.39 0 0 1 0.2,2.68 c -0.74,-0.88 -1.53,-2.6 -1.27,-3.08 a 0.23,0.23 0 0 1 0.23,-0.08 z m 0.24,-0.16 z"
         style="fill:#2117fb"
         id="path28" />
      <path
         d="m 357.5,159.65 c 1.07,1.44 2,2.72 2.9,4.11 0.9,1.39 1.8,2.74 2.68,4.13 q 2.61,4.17 4.91,8.59 a 95.77,95.77 0 0 1 4.21,9.17 56.19,56.19 0 0 1 3.06,10.18 c 0.18,0.92 0.32,1.87 0.43,2.83 0,0.07 0,0.37 0.06,0.56 0.06,0.19 0,0.44 0,0.63 0,0.41 0,0.8 0,1.16 a 15.8,15.8 0 0 1 -0.28,2 23.3,23.3 0 0 1 -2.21,5.84 56.51,56.51 0 0 1 -5.73,8.68 c -2.07,2.62 -4.22,5.08 -6.46,7.43 -2.24,2.35 -4.54,4.59 -7.05,6.76 l -5.16,-4.63 c 3.37,-5.14 6.85,-10.36 9.79,-15.56 a 58.41,58.41 0 0 0 3.76,-7.64 12.81,12.81 0 0 0 0.82,-3.08 1.15,1.15 0 0 0 0,-0.35 c 0,0 0,0 0,0 0,0 0,0.09 0,0 -0.13,-0.59 -0.26,-1.19 -0.44,-1.81 a 54,54 0 0 0 -2.93,-7.72 c -1.23,-2.6 -2.58,-5.23 -4.06,-7.82 -1.48,-2.59 -3,-5.16 -4.63,-7.72 q -1.2,-1.9 -2.45,-3.8 l -2.47,-3.67 z"
         style="fill:#263238"
         id="path29" />
      <path
         d="m 351,226.21 -8,2.44 7.18,7.62 c 0,0 6.11,-3.64 4.54,-7.09 z"
         style="fill:#b55b52"
         id="path30" />
      <polygon
         points="345.55,240.26 350.22,236.27 343.04,228.66 339.75,234.44 "
         style="fill:#b55b52"
         id="polygon30" />
      <path
         d="m 321.74,226.9 c 0,0 1.53,-10.42 4.18,-15.49 0.55,4.44 2.41,16.11 2.41,16.11 z"
         style="opacity:0.3;fill:#ffffff"
         id="path31" />
    </g>
    <g
       id="freepik--Board--inject-1">
      <rect
         x="88.050003"
         y="123.33"
         width="1"
         height="24"
         transform="rotate(-1.11,88.001035,134.55097)"
         style="fill:#2117fb"
         id="rect31" />
      <rect
         x="88.529999"
         y="155.00999"
         width="1"
         height="10.32"
         transform="rotate(-1.11,88.793359,159.33675)"
         style="fill:#2117fb"
         id="rect32" />
      <polygon
         points="90.85,98.89 95.99,365.67 291.26,365.67 286.12,98.89 "
         style="fill:#2117fb"
         id="polygon32" />
      <polygon
         points="102.85,107.67 107.65,356.24 280.17,356.24 275.38,107.67 "
         style="opacity:0.8;fill:#ffffff"
         id="polygon33" />
      <polygon
         points="102.83,106.42 109.84,354.98 282.37,354.98 275.35,106.42 "
         style="fill:#ffffff"
         id="polygon34" />
      <path
         d="m 152.88,157.31 9.25,-27.56 a 30.43,30.43 0 0 1 20.07,27.56 28.41,28.41 0 0 1 -23.41,28.88 z"
         style="opacity:0.2;fill:#2117fb"
         id="path34" />
      <path
         d="m 152.88,157.31 5.91,28.88 a 29.87,29.87 0 0 1 -5.08,0.44 30.48,30.48 0 0 1 -30.15,-29.32 28.48,28.48 0 0 1 28.49,-29.31 29.76,29.76 0 0 1 10.08,1.77 z"
         style="fill:#2117fb"
         id="path35" />
      <path
         d="M 226,157.31 225.27,128 a 30.24,30.24 0 0 1 20.89,8.59 c 11.7,11.38 12.23,30.1 1.17,41.47 -11.06,11.37 -29.77,11.38 -41.47,0 a 30.31,30.31 0 0 1 -8.58,-15.64 z"
         style="opacity:0.2;fill:#2117fb"
         id="path36" />
      <path
         d="m 226,157.31 -28.73,5.09 a 28.41,28.41 0 0 1 30.09,-34.33 z"
         style="fill:#2117fb"
         id="path37" />
      <polygon
         points="127.19,332.06 125.42,269.62 126.49,269.61 128.22,330.99 262.03,330.99 262.06,332.06 "
         style="fill:#2117fb"
         id="polygon37" />
      <path
         d="m 262,330.32 a 1.23,1.23 0 0 1 1.22,1.2 1.16,1.16 0 0 1 -1.17,1.2 1.23,1.23 0 0 1 -1.23,-1.2 1.18,1.18 0 0 1 1.18,-1.2 z"
         style="fill:#2117fb"
         id="path38" />
      <path
         d="m 127.16,269.66 a 1.24,1.24 0 0 0 -1.24,-1.19 1.17,1.17 0 0 0 -1.16,1.21 1.22,1.22 0 0 0 1.23,1.19 1.17,1.17 0 0 0 1.17,-1.21 z"
         style="fill:#2117fb"
         id="path39" />
      <polygon
         points="131.16,327.19 147.09,310.8 156.61,310.8 160.97,306.32 174.68,306.32 203.33,276.84 210.09,276.84 219.9,286.38 226,286.38 243.92,267.94 260.25,267.94 260.27,269 244.39,269 226.47,287.44 219.48,287.44 209.67,277.9 203.79,277.9 175.14,307.38 161.43,307.38 157.08,311.87 147.55,311.87 131.93,327.94 "
         style="fill:#2117fb"
         id="polygon39" />
      <path
         d="m 132.46,328.37 a 1.21,1.21 0 1 1 0,-1.7 1.21,1.21 0 0 1 0,1.7 z"
         style="fill:#2117fb"
         id="path40" />
      <path
         d="m 260.23,269.67 a 1.17,1.17 0 0 0 1.17,-1.2 1.23,1.23 0 0 0 -1.22,-1.2 1.18,1.18 0 0 0 -1.18,1.2 1.24,1.24 0 0 0 1.23,1.2 z"
         style="fill:#2117fb"
         id="path41" />
      <g
         style="opacity:0.2"
         id="g43">
        <polygon
           points="130.99,321.28 150,301.71 165.61,301.71 176.19,312.01 188.02,312.01 198.35,301.37 211.63,301.37 215.96,296.92 228.77,296.92 237.58,287.85 241.9,287.85 262.01,307.42 261.28,308.17 241.48,288.92 238.04,288.92 229.23,297.99 216.43,297.99 212.1,302.44 198.81,302.44 188.48,313.07 175.78,313.07 165.19,302.78 150.47,302.78 131.76,322.03 "
           style="fill:#2117fb"
           id="polygon41" />
        <path
           d="m 132.29,322.45 a 1.21,1.21 0 1 1 0,-1.69 1.19,1.19 0 0 1 0,1.69 z"
           style="fill:#2117fb"
           id="path42" />
        <path
           d="m 260.77,308.61 a 1.19,1.19 0 1 0 0,-1.7 1.21,1.21 0 0 0 0,1.7 z"
           style="fill:#2117fb"
           id="path43" />
      </g>
      <polygon
         points="124.53,218.97 124.12,204.67 138.42,204.67 138.83,218.97 "
         style="fill:#2117fb"
         id="polygon43" />
      <polygon
         points="147.25,214.41 147.1,209.23 212.31,209.23 212.46,214.41 "
         style="fill:#e0e0e0"
         id="polygon44" />
      <polygon
         points="220.61,214.41 220.46,209.23 256.74,209.23 256.89,214.41 "
         style="fill:#e0e0e0"
         id="polygon45" />
      <polygon
         points="147.88,236.97 147.74,231.79 185.25,231.79 185.4,236.97 "
         style="fill:#e0e0e0"
         id="polygon46" />
      <polygon
         points="193.55,236.97 193.4,231.79 240.65,231.79 240.79,236.97 "
         style="fill:#e0e0e0"
         id="polygon47" />
      <polygon
         points="125.16,241.53 124.76,227.23 139.06,227.23 139.46,241.53 "
         style="opacity:0.2;fill:#2117fb"
         id="polygon48" />
    </g>
    <g
       id="freepik--Pointer--inject-1">
      <polygon
         points="342.09,230.33 341.05,232.16 258.76,184.52 259.25,183.65 "
         style="fill:#e0e0e0"
         id="polygon49" />
    </g>
  </g>
</svg>
