<?xml version="1.0" encoding="UTF-8" standalone="no"?>
<svg
   viewBox="0 0 500 500"
   version="1.1"
   id="svg81"
   xmlns="http://www.w3.org/2000/svg"
   xmlns:svg="http://www.w3.org/2000/svg">
  <defs
     id="defs81" />
  <g
     id="g81"
     transform="translate(0,83.509816)">
    <g
       id="freepik--event-calendar--inject-31">
      <polygon
         points="312.67,359.58 330.27,207.23 85.39,207.23 67.78,359.58 "
         style="fill:#2117fb"
         id="polygon1" />
      <polygon
         points="312.67,359.58 330.27,207.23 85.39,207.23 67.78,359.58 "
         style="opacity:0.4;fill:#ffffff"
         id="polygon2" />
      <polygon
         points="115.88,365.29 85.39,207.23 330.27,207.23 360.77,365.29 "
         style="fill:#2117fb"
         id="polygon3" />
      <polygon
         points="115.88,365.29 85.39,207.23 330.27,207.23 360.77,365.29 "
         style="opacity:0.6;fill:#ffffff"
         id="polygon4" />
      <polygon
         points="121.98,356.81 97.35,229.1 326.76,229.1 351.39,356.81 "
         style="fill:#ffffff"
         id="polygon5" />
      <g
         style="opacity:0.5"
         id="g33">
        <polygon
           points="115.85,260.07 111.22,236.07 135.21,236.07 139.84,260.07 "
           style="fill:#2117fb"
           id="polygon6" />
        <polygon
           points="296.21,260.07 291.59,236.07 315.58,236.07 320.21,260.07 "
           style="fill:#2117fb"
           id="polygon7" />
        <polygon
           points="266.15,260.07 261.52,236.07 285.52,236.07 290.14,260.07 "
           style="fill:#2117fb"
           id="polygon8" />
        <polygon
           points="236.09,260.07 231.46,236.07 255.46,236.07 260.08,260.07 "
           style="fill:#2117fb"
           id="polygon9" />
        <polygon
           points="206.03,260.07 201.4,236.07 225.39,236.07 230.02,260.07 "
           style="fill:#2117fb"
           id="polygon10" />
        <polygon
           points="175.97,260.07 171.34,236.07 195.33,236.07 199.96,260.07 "
           style="fill:#2117fb"
           id="polygon11" />
        <polygon
           points="145.91,260.07 141.28,236.07 165.27,236.07 169.9,260.07 "
           style="fill:#2117fb"
           id="polygon12" />
        <polygon
           points="121.62,289.99 116.99,266 140.98,266 145.61,289.99 "
           style="opacity:0.5;fill:#2117fb"
           id="polygon13" />
        <polygon
           points="301.99,289.99 297.36,266 321.35,266 325.98,289.99 "
           style="fill:#2117fb"
           id="polygon14" />
        <polygon
           points="271.93,289.99 267.3,266 291.29,266 295.92,289.99 "
           style="opacity:0.5;fill:#2117fb"
           id="polygon15" />
        <polygon
           points="241.86,289.99 237.24,266 261.23,266 265.86,289.99 "
           style="fill:#2117fb"
           id="polygon16" />
        <polygon
           points="211.8,289.99 207.17,266 231.17,266 235.79,289.99 "
           style="fill:#2117fb"
           id="polygon17" />
        <polygon
           points="181.74,289.99 177.11,266 201.1,266 205.73,289.99 "
           style="fill:#2117fb"
           id="polygon18" />
        <polygon
           points="151.68,289.99 147.05,266 171.04,266 175.67,289.99 "
           style="fill:#2117fb"
           id="polygon19" />
        <polygon
           points="127.39,319.91 122.76,295.92 146.75,295.92 151.38,319.91 "
           style="fill:#2117fb"
           id="polygon20" />
        <polygon
           points="307.76,319.91 303.13,295.92 327.12,295.92 331.75,319.91 "
           style="fill:#2117fb"
           id="polygon21" />
        <polygon
           points="277.7,319.91 273.07,295.92 297.06,295.92 301.69,319.91 "
           style="fill:#2117fb"
           id="polygon22" />
        <polygon
           points="247.64,319.91 243.01,295.92 267,295.92 271.63,319.91 "
           style="fill:#2117fb"
           id="polygon23" />
        <polygon
           points="217.57,319.91 212.95,295.92 236.94,295.92 241.57,319.91 "
           style="fill:#2117fb"
           id="polygon24" />
        <polygon
           points="187.51,319.91 182.88,295.92 206.88,295.92 211.5,319.91 "
           style="fill:#2117fb"
           id="polygon25" />
        <polygon
           points="157.45,319.91 152.82,295.92 176.81,295.92 181.44,319.91 "
           style="fill:#2117fb"
           id="polygon26" />
        <polygon
           points="133.16,349.84 128.53,325.84 152.53,325.84 157.15,349.84 "
           style="fill:#2117fb"
           id="polygon27" />
        <polygon
           points="313.53,349.84 308.9,325.84 332.89,325.84 337.52,349.84 "
           style="fill:#2117fb"
           id="polygon28" />
        <polygon
           points="283.47,349.84 278.84,325.84 302.83,325.84 307.46,349.84 "
           style="fill:#2117fb"
           id="polygon29" />
        <polygon
           points="253.41,349.84 248.78,325.84 272.77,325.84 277.4,349.84 "
           style="fill:#2117fb"
           id="polygon30" />
        <polygon
           points="223.35,349.84 218.72,325.84 242.71,325.84 247.34,349.84 "
           style="fill:#2117fb"
           id="polygon31" />
        <polygon
           points="193.28,349.84 188.66,325.84 212.65,325.84 217.28,349.84 "
           style="fill:#2117fb"
           id="polygon32" />
        <polygon
           points="163.22,349.84 158.6,325.84 182.59,325.84 187.22,349.84 "
           style="opacity:0.5;fill:#2117fb"
           id="polygon33" />
      </g>
      <path
         d="m 115.59,218.08 -0.31,-1.59 c 2.83,0 4.41,-4.24 3.44,-9.26 -0.97,-5.02 -4.18,-9.27 -7,-9.27 -2.82,0 -4.41,4.25 -3.45,9.27 h -1.58 c -1.18,-6.09 0.9,-10.85 4.72,-10.85 3.82,0 7.74,4.76 8.91,10.85 1.17,6.09 -0.91,10.85 -4.73,10.85 z"
         style="fill:#263238"
         id="path33" />
      <path
         d="m 139.27,218.08 -0.31,-1.59 c 2.83,0 4.41,-4.24 3.44,-9.26 -0.97,-5.02 -4.18,-9.27 -7,-9.27 -2.82,0 -4.41,4.25 -3.45,9.27 h -1.58 c -1.18,-6.09 0.9,-10.85 4.72,-10.85 3.82,0 7.74,4.76 8.91,10.85 1.17,6.09 -0.91,10.85 -4.73,10.85 z"
         style="fill:#263238"
         id="path34" />
      <path
         d="m 163,218.08 -0.31,-1.59 c 2.83,0 4.41,-4.24 3.44,-9.26 -0.97,-5.02 -4.18,-9.27 -7,-9.27 -2.82,0 -4.42,4.25 -3.45,9.27 H 154 c -1.18,-6.09 0.9,-10.85 4.72,-10.85 3.82,0 7.74,4.76 8.91,10.85 1.17,6.09 -0.86,10.85 -4.63,10.85 z"
         style="fill:#263238"
         id="path35" />
      <path
         d="m 186.62,218.08 -0.3,-1.59 c 2.83,0 4.41,-4.24 3.44,-9.26 -0.97,-5.02 -4.18,-9.27 -7,-9.27 -2.82,0 -4.41,4.25 -3.44,9.27 h -1.59 c -1.17,-6.09 0.91,-10.85 4.73,-10.85 3.82,0 7.73,4.76 8.91,10.85 1.18,6.09 -0.92,10.85 -4.75,10.85 z"
         style="fill:#263238"
         id="path36" />
      <path
         d="m 210.3,218.08 -0.3,-1.59 c 2.83,0 4.41,-4.24 3.44,-9.26 -0.97,-5.02 -4.18,-9.27 -7,-9.27 -2.82,0 -4.41,4.25 -3.44,9.27 h -1.59 c -1.17,-6.09 0.91,-10.85 4.73,-10.85 3.82,0 7.73,4.76 8.91,10.85 1.18,6.09 -0.92,10.85 -4.75,10.85 z"
         style="fill:#263238"
         id="path37" />
      <path
         d="m 234,218.08 -0.3,-1.59 c 2.83,0 4.41,-4.24 3.44,-9.26 -0.97,-5.02 -4.18,-9.27 -7,-9.27 -2.82,0 -4.41,4.25 -3.44,9.27 h -1.59 c -1.17,-6.09 0.9,-10.85 4.73,-10.85 3.83,0 7.73,4.76 8.91,10.85 1.18,6.09 -0.94,10.85 -4.75,10.85 z"
         style="fill:#263238"
         id="path38" />
      <path
         d="m 257.66,218.08 -0.3,-1.59 c 2.83,0 4.41,-4.24 3.44,-9.26 -0.97,-5.02 -4.18,-9.27 -7,-9.27 -2.82,0 -4.41,4.25 -3.44,9.27 h -1.59 c -1.17,-6.09 0.9,-10.85 4.73,-10.85 3.83,0 7.73,4.76 8.91,10.85 1.18,6.09 -0.92,10.85 -4.75,10.85 z"
         style="fill:#263238"
         id="path39" />
      <path
         d="m 281.34,218.08 -0.3,-1.59 c 2.83,0 4.41,-4.24 3.44,-9.26 -0.97,-5.02 -4.18,-9.27 -7,-9.27 -2.82,0 -4.41,4.25 -3.44,9.27 h -1.59 c -1.17,-6.09 0.9,-10.85 4.73,-10.85 3.83,0 7.73,4.76 8.91,10.85 1.18,6.09 -0.93,10.85 -4.75,10.85 z"
         style="fill:#263238"
         id="path40" />
      <path
         d="m 305,218.08 -0.3,-1.59 c 2.83,0 4.41,-4.24 3.44,-9.26 -0.97,-5.02 -4.18,-9.27 -7,-9.27 -2.82,0 -4.41,4.25 -3.44,9.27 h -1.59 c -1.17,-6.09 0.9,-10.85 4.73,-10.85 3.83,0 7.73,4.76 8.9,10.85 1.17,6.09 -0.9,10.85 -4.74,10.85 z"
         style="fill:#263238"
         id="path41" />
      <polygon
         points="118.57,256.69 113.94,232.7 198.06,232.7 202.69,256.69 "
         style="fill:#2117fb"
         id="polygon41" />
      <polygon
         points="214.54,286.62 209.92,262.62 233.91,262.62 238.54,286.62 "
         style="fill:#2117fb"
         id="polygon42" />
      <path
         d="m 313.6,317.34 -1.3,-1.13 a 39.6,39.6 0 0 0 -8.83,-5.85 l 0.83,-2.45 a 43.18,43.18 0 0 1 8.34,5.29 54.83,54.83 0 0 1 17,-16.21 l 1.79,2.44 a 52.59,52.59 0 0 0 -17.06,16.71 z"
         style="fill:#2117fb"
         id="path42" />
      <polygon
         points="227.57,266.59 223.94,273.16 217.79,266.59 215.62,266.59 223.14,274.62 218.71,282.64 220.89,282.64 224.51,276.08 230.66,282.64 232.84,282.64 225.31,274.62 229.74,266.59 "
         style="fill:#ffffff"
         id="polygon43" />
      <path
         d="m 274.21,324.06 4,20.81 h -20.8 l -4,-20.81 h 20.81 m 1.29,-1.59 h -24 l 4.63,24 h 24 l -4.62,-24 z"
         style="fill:#2117fb"
         id="path43" />
      <polygon
         points="160.18,316.54 155.55,292.55 209.6,292.55 214.23,316.54 "
         style="fill:#263238"
         id="polygon44" />
      <path
         d="m 177,302.12 a 3.69,3.69 0 0 1 -3.72,4.61 5.85,5.85 0 0 1 -5.5,-4.61 3.7,3.7 0 0 1 3.72,-4.61 5.86,5.86 0 0 1 5.5,4.61 z"
         style="fill:#ffffff"
         id="path44" />
      <path
         d="m 178.11,306.48 a 5.32,5.32 0 0 1 -4.48,2.21 8,8 0 0 1 -5.32,-2.2 4.8,4.8 0 0 0 -2.44,5.08 h 16.64 a 7.71,7.71 0 0 0 -4.4,-5.09 z"
         style="fill:#ffffff"
         id="path45" />
      <polygon
         points="186.82,303.05 186.31,300.4 204.71,300.4 205.22,303.05 "
         style="fill:#ffffff"
         id="polygon45" />
      <polygon
         points="187.91,308.68 187.4,306.03 199.64,306.03 200.15,308.68 "
         style="fill:#ffffff"
         id="polygon46" />
      <path
         d="m 296.76,234.94 c 4.74,0 11.45,0.69 16.52,4 a 8,8 0 0 1 3.71,5 c 0.89,3.93 -1.2,8.22 -3.51,10.55 -3.65,3.68 -9.33,6 -16,6.46 -0.76,0.06 -1.54,0.09 -2.31,0.09 a 37.52,37.52 0 0 1 -13.7,-2.72 c -4.29,-1.71 -8.84,-4 -10.12,-8.46 a 7.32,7.32 0 0 1 0.79,-6.2 9.43,9.43 0 0 1 2.93,-2.86 38.82,38.82 0 0 1 18.36,-5.75 c 1.11,-0.07 2.23,-0.11 3.33,-0.11 m -0.3,-1.54 c -1.19,0 -2.34,0 -3.42,0.12 a 40.16,40.16 0 0 0 -19,5.94 10.65,10.65 0 0 0 -3.29,3.22 8.73,8.73 0 0 0 -0.91,7.33 c 1.5,5.18 6.63,7.87 11.29,9.72 a 39,39 0 0 0 14.33,2.84 c 0.81,0 1.61,0 2.41,-0.08 6.34,-0.46 12.66,-2.62 16.82,-6.82 4.16,-4.2 6.81,-13.11 -0.74,-18 -5.09,-3.29 -11.75,-4.27 -17.5,-4.27 z"
         style="fill:#263238"
         id="path46" />
    </g>
    <g
       id="freepik--Character--inject-31">
      <polygon
         points="394.18,407.26 390.69,390.42 383.53,392.33 387.02,409.16 "
         style="fill:#b55b52"
         id="polygon47" />
      <path
         d="m 394.41,405.94 -7.91,2.6 a 0.53,0.53 0 0 0 -0.37,0.65 l 1.68,6.39 a 1.31,1.31 0 0 0 1.64,0.85 c 2.74,-1 4,-1.55 7.48,-2.69 2.14,-0.71 7.32,-2.3 10.27,-3.27 2.95,-0.97 1.92,-3.86 0.58,-3.72 -6,0.66 -9.51,0.13 -12,-0.77 a 2.05,2.05 0 0 0 -1.37,-0.04 z"
         style="fill:#263238"
         id="path47" />
      <polygon
         points="390.69,390.42 392.49,399.1 385.32,401.01 383.53,392.33 "
         style="opacity:0.2"
         id="polygon48" />
      <path
         d="m 365.17,220.72 c 0,0 10,60.35 13,81.4 3.25,23.05 15.42,92.39 15.42,92.39 l -12,4.54 c 0,0 -19.15,-68.17 -24.44,-90.58 -5.75,-24.33 -18.41,-87.75 -18.41,-87.75 z"
         style="fill:#263238"
         id="path48" />
      <path
         d="m 349.1,245.47 c 5.12,12.79 5.7,34.53 3.62,43.44 -3.14,-14.63 -6.74,-32.13 -9.51,-45.74 0.99,-3.49 2.79,-5.48 5.89,2.3 z"
         style="opacity:0.3"
         id="path49" />
      <polygon
         points="394.98,396.57 394.58,390.87 378,395.72 381.05,400.75 "
         style="fill:#263238"
         id="polygon49" />
      <path
         d="m 397.31,406.35 a 9.51,9.51 0 0 1 -2,0.36 0.19,0.19 0 0 1 -0.17,-0.08 0.19,0.19 0 0 1 0,-0.19 c 0.17,-0.23 1.72,-2.25 2.69,-2.2 a 0.66,0.66 0 0 1 0.53,0.34 0.94,0.94 0 0 1 0.09,1 2,2 0 0 1 -1.14,0.77 z m -1.59,0 c 1.35,-0.17 2.26,-0.51 2.48,-0.94 a 0.64,0.64 0 0 0 -0.07,-0.63 0.32,0.32 0 0 0 -0.26,-0.17 c -0.52,-0.05 -1.5,0.93 -2.15,1.72 z"
         style="fill:#2117fb"
         id="path50" />
      <path
         d="m 395.39,406.7 a 0.11,0.11 0 0 1 -0.08,0 0.17,0.17 0 0 1 -0.13,-0.1 c 0,-0.09 -0.86,-2.06 -0.38,-3 a 0.91,0.91 0 0 1 0.62,-0.46 0.66,0.66 0 0 1 0.76,0.31 c 0.42,0.71 -0.15,2.53 -0.71,3.17 -0.03,0.06 -0.05,0.08 -0.08,0.08 z m 0,-3.17 a 0.55,0.55 0 0 0 -0.3,0.26 3.84,3.84 0 0 0 0.27,2.39 3.45,3.45 0 0 0 0.5,-2.53 c -0.05,-0.09 -0.14,-0.19 -0.39,-0.14 z"
         style="fill:#2117fb"
         id="path51" />
      <path
         d="m 363.65,158.59 c 0.29,0.47 0.69,1.13 1.06,1.7 l 1.14,1.8 c 0.79,1.19 1.57,2.38 2.4,3.55 1.63,2.33 3.35,4.59 5.13,6.74 a 60,60 0 0 0 5.62,5.93 30.19,30.19 0 0 0 6,4.36 l -1.58,-0.45 a 16.29,16.29 0 0 0 4.71,0.27 c 0.86,-0.08 1.74,-0.19 2.64,-0.35 0.9,-0.16 1.81,-0.38 2.73,-0.63 a 48.13,48.13 0 0 0 5.57,-1.89 c 0.93,-0.38 1.86,-0.77 2.79,-1.19 0.93,-0.42 1.88,-0.89 2.69,-1.27 l 0.27,-0.13 a 3.25,3.25 0 0 1 4.33,1.52 3.28,3.28 0 0 1 -0.59,3.65 c -0.91,0.94 -1.71,1.69 -2.61,2.48 -0.9,0.79 -1.8,1.49 -2.75,2.19 a 43.65,43.65 0 0 1 -6.12,3.74 33.54,33.54 0 0 1 -7.09,2.61 31.31,31.31 0 0 1 -4,0.65 25.18,25.18 0 0 1 -4.25,0 4.18,4.18 0 0 1 -1.17,-0.29 l -0.4,-0.17 a 38.38,38.38 0 0 1 -9.17,-5.61 60.64,60.64 0 0 1 -7.33,-7 85.18,85.18 0 0 1 -6.14,-7.64 q -1.41,-2 -2.72,-4 c -0.43,-0.69 -0.86,-1.37 -1.28,-2.08 -0.42,-0.71 -0.8,-1.37 -1.26,-2.23 a 6.4938529,6.4938529 0 0 1 11.29,-6.42 z"
         style="fill:#263238"
         id="path52" />
      <path
         d="m 369.81,176.88 c -3.9,-8 -10.55,-7.54 -13.23,-5.07 l 0.76,1.11 a 85.27,85.27 0 0 0 5.86,7.4 66.23,66.23 0 0 0 6.92,6.77 c 0.78,0.64 1.59,1.27 2.41,1.87 a 32,32 0 0 0 -2.72,-12.08 z"
         style="opacity:0.3"
         id="path53" />
      <path
         d="m 406.77,176 5,-4.17 3,6.47 c 0,0 -7.45,5.33 -9.16,3.45 l -0.2,-2.41 a 3.93,3.93 0 0 1 1.36,-3.34 z"
         style="fill:#b55b52"
         id="path54" />
      <polygon
         points="420.01,177.62 414.73,178.27 411.75,171.8 418.44,172.62 "
         style="fill:#b55b52"
         id="polygon54" />
      <polygon
         points="331.79,408.92 332.75,391.75 325.34,391.75 324.38,408.92 "
         style="fill:#b55b52"
         id="polygon55" />
      <path
         d="m 332.18,408.06 h -8.33 a 0.53,0.53 0 0 0 -0.55,0.51 l -0.41,6.59 a 1.32,1.32 0 0 0 1.3,1.32 c 2.9,-0.05 4.29,-0.22 7.95,-0.22 2.25,0 8.46,0.23 11.57,0.23 3.11,0 3,-3.08 1.71,-3.36 -5.92,-1.24 -9.87,-3 -12,-4.61 a 2,2 0 0 0 -1.24,-0.46 z"
         style="fill:#263238"
         id="path55" />
      <polygon
         points="332.75,391.76 332.25,400.61 324.84,400.61 325.34,391.76 "
         style="opacity:0.2"
         id="polygon56" />
      <path
         d="m 350.69,220.72 c 0,0 -0.64,64.41 -1.84,85.64 -1.32,23.24 -13.42,92.11 -13.42,92.11 h -13.58 c 0,0 5.92,-67 5.1,-90 -0.89,-25 -1.43,-87.75 -1.43,-87.75 z"
         style="fill:#263238"
         id="path56" />
      <polygon
         points="337.32,398.47 338.13,393.32 320.06,394.12 320.76,398.47 "
         style="fill:#263238"
         id="polygon57" />
      <path
         d="m 334.8,409.35 a 9.5,9.5 0 0 1 -2,-0.26 0.17,0.17 0 0 1 -0.06,-0.31 c 0.24,-0.17 2.33,-1.6 3.24,-1.24 a 0.64,0.64 0 0 1 0.4,0.48 1,1 0 0 1 -0.21,0.94 2,2 0 0 1 -1.37,0.39 z m -1.5,-0.51 c 1.33,0.26 2.31,0.22 2.65,-0.12 a 0.62,0.62 0 0 0 0.13,-0.62 0.3,0.3 0 0 0 -0.2,-0.24 c -0.48,-0.19 -1.72,0.43 -2.58,0.98 z"
         style="fill:#2117fb"
         id="path57" />
      <path
         d="m 332.87,409.09 a 0.11,0.11 0 0 1 -0.08,0 0.16,0.16 0 0 1 -0.09,-0.14 c 0,-0.09 -0.18,-2.22 0.57,-2.94 a 0.89,0.89 0 0 1 0.73,-0.24 0.67,0.67 0 0 1 0.63,0.52 c 0.17,0.81 -0.94,2.36 -1.67,2.8 a 0.15,0.15 0 0 1 -0.09,0 z m 1,-3 a 0.53,0.53 0 0 0 -0.37,0.15 3.82,3.82 0 0 0 -0.49,2.35 c 0.65,-0.54 1.38,-1.72 1.27,-2.25 0,-0.1 -0.08,-0.22 -0.33,-0.25 z"
         style="fill:#2117fb"
         id="path58" />
      <path
         d="m 362.05,160.49 a 7.21,7.21 0 0 0 -5.47,-5 45,45 0 0 0 -5.55,-0.95 147.89,147.89 0 0 0 -16.85,0 c -2.94,0.14 -5.94,0.5 -8.33,0.85 h -0.09 a 4.73,4.73 0 0 0 -4,5.5 232.84,232.84 0 0 1 3.69,30.11 c 0.58,14.67 -0.21,26.19 0.07,29.73 h 39.65 c 2.41,-35.81 -0.7,-52.08 -3.12,-60.24 z"
         style="fill:#e6e6e6"
         id="path59" />
      <path
         d="m 335.3,153.88 c 3.12,12.66 6,44.74 5.95,69.82 h -16.76 c -0.3,-3.74 0.54,-15.88 -0.07,-31.35 a 247.72,247.72 0 0 0 -3.85,-31.69 5,5 0 0 1 4.18,-5.8 h 0.09 c 2.52,-0.37 5.68,-0.75 8.78,-0.9 z"
         style="fill:#263238"
         id="path60" />
      <path
         d="m 364.09,160.67 a 8.39,8.39 0 0 0 -6,-5.67 74.78,74.78 0 0 0 -8,-0.82 c 3.17,11 9.39,44.51 7.54,69.52 h 10.58 c 2.51,-37.53 -1.76,-56.17 -4.12,-63.03 z"
         style="fill:#263238"
         id="path61" />
      <polygon
         points="347,229.1 337.52,207.06 416.42,173.3 425.89,195.34 "
         style="fill:#2117fb"
         id="polygon61" />
      <path
         d="m 359.31,208.15 a 4.61,4.61 0 1 1 -6.06,-2.42 4.61,4.61 0 0 1 6.06,2.42 z"
         style="fill:#ffffff"
         id="path62" />
      <path
         d="m 361.3,212.05 a 6.56,6.56 0 0 1 -9,3.86 6,6 0 0 0 -1.14,6 l 15.3,-6.54 a 6,6 0 0 0 -5.16,-3.32 z"
         style="fill:#ffffff"
         id="path63" />
      <polygon
         points="368.56,205.21 367.52,202.77 413.63,183.04 414.67,185.48 "
         style="fill:#ffffff"
         id="polygon63" />
      <polygon
         points="370.79,210.38 369.74,207.94 410.19,190.63 411.24,193.07 "
         style="fill:#ffffff"
         id="polygon64" />
      <path
         d="m 329.67,173.5 c -0.28,-8.41 -6.49,-11.62 -8.24,-9.36 a 2.43,2.43 0 0 0 -0.21,0.29 c 1.09,6.48 2.42,15.4 3,24.19 2.95,-1.7 5.71,-7.13 5.45,-15.12 z"
         style="opacity:0.3"
         id="path64" />
      <path
         d="m 350.23,154.52 c -4.9,-1.16 -5.76,-4.19 -5.43,-7.52 a 19.92,19.92 0 0 1 0.39,-2.48 l -6.14,-5.1 -4.51,-3.74 c 1.25,5.43 2.66,15.32 -1,18.94 0,0 3,5 11.43,4.56 7.03,-0.39 5.26,-4.66 5.26,-4.66 z"
         style="fill:#b55b52"
         id="path65" />
      <path
         d="m 341.6,163.65 a 11.89,11.89 0 0 1 2.76,-4.44 25.48,25.48 0 0 1 -10,-6.12 l -2.57,1 c 0,0 0.91,6.53 9.81,9.56 z"
         style="fill:#ffffff"
         id="path66" />
      <path
         d="m 348.46,162.53 a 12.41,12.41 0 0 0 -4.1,-3.32 c 2.47,-0.7 3.43,-5.71 3.43,-5.71 l 2.41,0.5 c 0,0 4.45,6.53 -1.74,8.53 z"
         style="fill:#ffffff"
         id="path67" />
      <path
         d="M 345.19,144.52 A 19.92,19.92 0 0 0 344.8,147 c -2.29,-0.46 -5.35,-2.9 -5.67,-5.24 a 10.66,10.66 0 0 1 -0.08,-2.34 z"
         style="opacity:0.2"
         id="path68" />
      <path
         d="m 348.05,117.85 c 3.09,-0.56 6.69,2.68 5,9.26 -1.69,6.58 -9.72,-8.41 -5,-9.26 z"
         style="fill:#263238"
         id="path69" />
      <path
         d="m 332.68,127.87 c 1.57,7.21 2.12,11.5 6.38,14.79 a 9.59,9.59 0 0 0 15.51,-6.91 c 0.56,-6.71 -2.09,-17.37 -9.68,-19.41 a 9.7,9.7 0 0 0 -12.21,11.53 z"
         style="fill:#b55b52"
         id="path70" />
      <path
         d="m 335.58,135.68 c 1.06,-2.5 2,-9.46 1.14,-12.35 3.45,-0.11 10.7,-0.75 13.72,-4.11 4.64,-5.16 -1.48,-11.26 -9.18,-6.4 -5,3.13 -15.79,2.51 -14,6 -5.26,5.79 0.65,12.33 8.32,16.86 z"
         style="fill:#263238"
         id="path71" />
      <path
         d="m 327.25,119.08 a 0.25,0.25 0 0 1 -0.19,-0.09 c -0.64,-0.79 -0.84,-1.45 -0.62,-2 0.53,-1.32 3.28,-1.68 6.45,-2.08 3,-0.38 6.32,-0.81 7.38,-2.16 a 0.26,0.26 0 0 1 0.35,0 0.24,0.24 0 0 1 0,0.35 c -1.19,1.51 -4.5,1.93 -7.7,2.34 -2.77,0.36 -5.63,0.72 -6,1.78 -0.15,0.38 0,0.89 0.53,1.52 a 0.25,0.25 0 0 1 0,0.35 0.3,0.3 0 0 1 -0.2,-0.01 z"
         style="fill:#263238"
         id="path72" />
      <path
         d="m 331.57,133.69 a 6.92,6.92 0 0 0 3.68,2.85 c 1.93,0.58 2.59,-1.2 1.81,-3.08 -0.71,-1.7 -2.57,-4.05 -4.38,-3.8 -1.81,0.25 -2.2,2.34 -1.11,4.03 z"
         style="fill:#b55b52"
         id="path73" />
      <path
         d="m 343,128.59 c 0.09,0.59 0.48,1 0.87,1 0.39,0 0.62,-0.56 0.53,-1.15 -0.09,-0.59 -0.48,-1 -0.87,-1 -0.39,0 -0.62,0.56 -0.53,1.15 z"
         style="fill:#263238"
         id="path74" />
      <path
         d="m 349.71,127.79 c 0.09,0.59 0.48,1 0.87,1 0.39,0 0.63,-0.57 0.53,-1.16 -0.1,-0.59 -0.48,-1 -0.86,-1 -0.38,0 -0.63,0.57 -0.54,1.16 z"
         style="fill:#263238"
         id="path75" />
      <path
         d="m 348.68,128.34 a 22.46,22.46 0 0 0 3.62,4.72 3.4,3.4 0 0 1 -2.76,0.86 z"
         style="fill:#a02724"
         id="path76" />
      <path
         d="m 347.36,135.81 a 5.12,5.12 0 0 1 -3.73,-1.54 0.17356555,0.17356555 0 1 1 0.26,-0.23 5,5 0 0 0 4.12,1.38 0.17,0.17 0 0 1 0.2,0.15 0.17,0.17 0 0 1 -0.15,0.19 5.76,5.76 0 0 1 -0.7,0.05 z"
         style="fill:#263238"
         id="path77" />
      <path
         d="m 340.81,126.68 a 0.41,0.41 0 0 1 -0.17,-0.05 0.35,0.35 0 0 1 -0.13,-0.48 3.36,3.36 0 0 1 2.62,-1.77 0.35,0.35 0 0 1 0.37,0.33 0.35,0.35 0 0 1 -0.33,0.37 2.66,2.66 0 0 0 -2.05,1.42 0.35,0.35 0 0 1 -0.31,0.18 z"
         style="fill:#263238"
         id="path78" />
      <path
         d="m 352.72,125.15 a 0.34,0.34 0 0 1 -0.29,-0.16 2.94,2.94 0 0 0 -2.22,-1.34 0.35,0.35 0 1 1 0,-0.7 v 0 a 3.64,3.64 0 0 1 2.8,1.65 0.36,0.36 0 0 1 -0.1,0.49 0.35,0.35 0 0 1 -0.19,0.06 z"
         style="fill:#263238"
         id="path79" />
      <path
         d="m 330.58,165.75 c 0.05,-0.06 0,0 0,0 v 0 l -0.07,0.11 -0.17,0.28 -0.36,0.63 c -0.25,0.45 -0.49,0.91 -0.73,1.39 -0.46,1 -0.91,2 -1.31,3 a 43.43,43.43 0 0 0 -1.9,6.44 48.2,48.2 0 0 0 -0.81,13.77 18.45,18.45 0 0 0 0.39,2.88 15.61,15.61 0 0 0 0.95,2.79 32.81,32.81 0 0 0 3.39,5.82 82.72,82.72 0 0 0 9.76,11 l 0.14,0.14 a 3.24,3.24 0 0 1 -3.73,5.21 52.56,52.56 0 0 1 -7.18,-4.43 55,55 0 0 1 -6.51,-5.52 37.5,37.5 0 0 1 -5.6,-7.11 24.78,24.78 0 0 1 -2.15,-4.45 26.82,26.82 0 0 1 -1.21,-4.83 51.17,51.17 0 0 1 -0.8,-8.77 49.23,49.23 0 0 1 0.67,-8.89 47.2,47.2 0 0 1 2.33,-8.74 41.39,41.39 0 0 1 1.85,-4.23 c 0.36,-0.7 0.73,-1.39 1.15,-2.08 0.21,-0.35 0.43,-0.7 0.66,-1.06 l 0.37,-0.54 0.5,-0.69 a 6.5,6.5 0 0 1 10.37,7.83 z"
         style="fill:#263238"
         id="path80" />
      <path
         d="m 341.84,213.94 4.13,-0.22 -4.79,8 c 0,0 -6.68,-0.85 -6,-4.26 l 0.93,-1 a 8.52,8.52 0 0 1 5.73,-2.52 z"
         style="fill:#b55b52"
         id="path81" />
      <polygon
         points="346.65,225.09 341.18,221.75 345.97,213.72 350.25,216.59 "
         style="fill:#b55b52"
         id="polygon81" />
    </g>
  </g>
</svg>
