<?xml version="1.0" encoding="UTF-8" standalone="no"?>
<svg
   viewBox="0 0 500 500"
   version="1.1"
   id="svg61"
   xmlns="http://www.w3.org/2000/svg"
   xmlns:svg="http://www.w3.org/2000/svg">
  <defs
     id="defs61" />
  <g
     id="g61"
     transform="translate(0,83.289981)">
    <g
       id="freepik--Device--inject-60">
      <rect
         x="372.13"
         y="170.22"
         width="5.9000001"
         height="1"
         transform="rotate(-86.3,375.09414,170.71428)"
         style="fill:#2117fb"
         id="rect1" />
      <rect
         x="366.5"
         y="153.05"
         width="19.389999"
         height="1"
         transform="rotate(-86.31,376.18739,153.55501)"
         style="fill:#2117fb"
         id="rect2" />
      <path
         d="M 364.44,115.74 H 246.89 A 12.14,12.14 0 0 0 235,126.93 l -15.19,234.5 a 10.4,10.4 0 0 0 10.47,11.2 h 117.53 a 12.16,12.16 0 0 0 11.92,-11.2 l 15.18,-234.5 a 10.39,10.39 0 0 0 -10.47,-11.19 z"
         style="fill:#2117fb"
         id="path2" />
      <path
         d="M 360.71,115.74 H 246.89 A 12.14,12.14 0 0 0 235,126.93 l -15.19,234.5 a 10.4,10.4 0 0 0 10.47,11.2 h 113.8 A 12.16,12.16 0 0 0 356,361.43 l 15.18,-234.5 a 10.39,10.39 0 0 0 -10.47,-11.19 z"
         style="opacity:0.7;fill:#ffffff"
         id="path3" />
      <path
         d="m 351.11,355.3 h -125.2 a 3.42,3.42 0 0 1 -3.42,-3.64 l 13.74,-212.2 a 3.42,3.42 0 0 1 3.41,-3.2 h 125.21 a 3.43,3.43 0 0 1 3.42,3.65 L 354.53,352.1 a 3.42,3.42 0 0 1 -3.42,3.2 z"
         style="fill:#ffffff"
         id="path4" />
      <path
         d="m 323.29,129.32 h -45.51 a 1.69,1.69 0 0 1 -1.7,-1.82 v 0 a 2,2 0 0 1 1.93,-1.81 h 45.51 a 1.68,1.68 0 0 1 1.7,1.81 v 0 a 2,2 0 0 1 -1.93,1.82 z"
         style="fill:#ffffff"
         id="path5" />
      <path
         d="m 287.77,364.21 a 4.75,4.75 0 0 1 -4.69,4.46 4.2,4.2 0 0 1 -4.23,-4.46 4.75,4.75 0 0 1 4.69,-4.45 4.19,4.19 0 0 1 4.23,4.45 z"
         style="fill:#ffffff"
         id="path6" />
      <path
         d="M 337.47,195 H 230.56 l -6.8,104.9 h 113.71 a 11.22,11.22 0 0 0 11.2,-11.19 V 206.23 A 11.22,11.22 0 0 0 337.47,195 Z"
         style="opacity:0.2;fill:#2117fb"
         id="path7" />
    </g>
    <g
       id="freepik--Notification--inject-60">
      <rect
         x="185.28999"
         y="185.71001"
         width="153.42"
         height="104.91"
         rx="11.2"
         style="fill:#2117fb"
         id="rect7" />
      <path
         d="m 181.71,184.5 a 1,1 0 0 1 -0.7,-0.29 l -1.8,-1.79 a 1.0040916,1.0040916 0 0 1 1.42,-1.42 l 1.79,1.8 a 1,1 0 0 1 0,1.41 1,1 0 0 1 -0.71,0.29 z"
         style="fill:#2117fb"
         id="path8" />
      <path
         d="m 179,190.78 h -2.53 a 1,1 0 0 1 0,-2 H 179 a 1,1 0 0 1 0,2 z"
         style="fill:#2117fb"
         id="path9" />
      <path
         d="m 188.08,181.8 a 1,1 0 0 1 -1,-0.93 l -0.18,-2.53 a 1,1 0 0 1 0.93,-1.07 1,1 0 0 1 1.06,0.93 l 0.19,2.53 a 1,1 0 0 1 -0.93,1.07 z"
         style="fill:#2117fb"
         id="path10" />
      <polygon
         points="313.42,320.05 313.42,279.83 273.19,279.83 "
         style="fill:#2117fb"
         id="polygon10" />
      <path
         d="m 284.22,262.21 -2,-8.49 a 15.36,15.36 0 0 1 0,-6.78 L 285,234.85 a 23.71,23.71 0 0 0 -12.54,-26.31 6.78,6.78 0 0 0 0.23,-0.68 5.7231744,5.7231744 0 1 0 -11.17,-2.5 4.31,4.31 0 0 0 -0.09,0.71 23.72,23.72 0 0 0 -22.57,18.44 l -2.71,12.1 a 15.27,15.27 0 0 1 -2.9,6.11 l -5.39,6.85 a 5.06,5.06 0 0 0 2.87,8.06 l 47.5,10.64 a 5.05,5.05 0 0 0 5.99,-6.06 z"
         style="fill:#ffffff"
         id="path11" />
      <path
         d="m 248.35,264.83 a 2.25,2.25 0 0 0 -2.7,2.59 8.21,8.21 0 0 0 14.83,3.32 2.25,2.25 0 0 0 -1.33,-3.49 z"
         style="fill:#ffffff"
         id="path12" />
      <path
         d="m 211.87,248 a 1.48,1.48 0 0 1 -1.25,-0.67 32.08,32.08 0 0 1 8.87,-44.49 1.5004666,1.5004666 0 1 1 1.66,2.5 29.09,29.09 0 0 0 -8,40.33 1.5,1.5 0 0 1 -0.41,2.08 1.52,1.52 0 0 1 -0.87,0.25 z"
         style="fill:#ffffff"
         id="path13" />
      <path
         d="m 218.22,243.74 a 1.5,1.5 0 0 1 -1.24,-0.67 24.45,24.45 0 0 1 6.75,-33.89 1.5032382,1.5032382 0 0 1 1.67,2.5 21.43,21.43 0 0 0 -5.93,29.72 1.5,1.5 0 0 1 -0.41,2.08 1.54,1.54 0 0 1 -0.84,0.26 z"
         style="fill:#ffffff"
         id="path14" />
      <path
         d="m 224.58,239.49 a 1.48,1.48 0 0 1 -1.24,-0.66 16.78,16.78 0 0 1 4.66,-23.29 1.5,1.5 0 0 1 1.67,2.49 13.79,13.79 0 0 0 -3.81,19.13 1.51,1.51 0 0 1 -0.41,2.08 1.52,1.52 0 0 1 -0.87,0.25 z"
         style="fill:#ffffff"
         id="path15" />
      <path
         d="m 298.35,269.09 a 1.5,1.5 0 0 1 -0.69,-2.83 29.09,29.09 0 0 0 12.5,-39.18 1.5,1.5 0 1 1 2.66,-1.37 32.08,32.08 0 0 1 -13.82,43.22 1.58,1.58 0 0 1 -0.65,0.16 z"
         style="fill:#ffffff"
         id="path16" />
      <path
         d="m 294.84,262.3 a 1.5,1.5 0 0 1 -0.69,-2.83 21.42,21.42 0 0 0 9.21,-28.88 1.5027724,1.5027724 0 0 1 2.67,-1.38 24.42,24.42 0 0 1 -10.5,32.92 1.44,1.44 0 0 1 -0.69,0.17 z"
         style="fill:#ffffff"
         id="path17" />
      <path
         d="m 291.33,255.51 a 1.51,1.51 0 0 1 -0.69,-2.84 13.77,13.77 0 0 0 5.93,-18.57 1.5027724,1.5027724 0 0 1 2.67,-1.38 16.81,16.81 0 0 1 -7.24,22.62 1.53,1.53 0 0 1 -0.67,0.17 z"
         style="fill:#ffffff"
         id="path18" />
    </g>
    <g
       id="freepik--Character--inject-60">
      <path
         d="m 203.36,125.85 h -7.64 a 0.84,0.84 0 0 0 -0.81,0.72 l -1.6,15.24 a 0.65,0.65 0 0 0 0.65,0.73 h 7.64 a 0.84,0.84 0 0 0 0.81,-0.73 l 1.6,-15.24 a 0.64,0.64 0 0 0 -0.65,-0.72 z"
         style="fill:#2117fb"
         id="path19" />
      <path
         d="m 202.67,125.85 h -6.95 a 0.84,0.84 0 0 0 -0.81,0.72 l -1.6,15.24 a 0.65,0.65 0 0 0 0.65,0.73 h 7 a 0.83,0.83 0 0 0 0.8,-0.73 l 1.6,-15.24 a 0.63,0.63 0 0 0 -0.69,-0.72 z"
         style="opacity:0.4;fill:#ffffff"
         id="path20" />
      <path
         d="m 165.07,407.65 c 1,0 2,-0.15 2.35,-0.61 a 0.74,0.74 0 0 0 0,-0.84 1.06,1.06 0 0 0 -0.63,-0.45 c -1.36,-0.37 -4.12,1.25 -4.24,1.32 a 0.18,0.18 0 0 0 -0.08,0.19 0.2,0.2 0 0 0 0.16,0.16 14.56,14.56 0 0 0 2.44,0.23 z m 1.22,-1.57 a 1.45,1.45 0 0 1 0.37,0 0.66,0.66 0 0 1 0.39,0.27 c 0.14,0.24 0.1,0.36 0,0.42 -0.35,0.53 -2.4,0.54 -3.91,0.33 a 8.21,8.21 0 0 1 3.15,-1.02 z"
         style="fill:#2117fb"
         id="path21" />
      <path
         d="m 162.61,407.42 h 0.08 c 1,-0.44 2.82,-2.19 2.63,-3.11 0,-0.21 -0.21,-0.48 -0.74,-0.53 a 1.39,1.39 0 0 0 -1.05,0.32 c -1,0.85 -1.11,3 -1.12,3.12 a 0.21,0.21 0 0 0 0.09,0.18 0.2,0.2 0 0 0 0.11,0.02 z m 1.84,-3.28 h 0.11 c 0.35,0 0.38,0.17 0.38,0.21 0.12,0.55 -1.14,1.93 -2.11,2.53 a 4.36,4.36 0 0 1 1,-2.5 1,1 0 0 1 0.62,-0.24 z"
         style="fill:#2117fb"
         id="path22" />
      <rect
         x="153.69"
         y="388.48001"
         width="8.1000004"
         height="18.75"
         style="fill:#ff8b7b"
         id="rect22" />
      <polygon
         points="103.04,399.17 108.31,380.97 100.22,380.09 94.95,398.29 "
         style="fill:#ff8b7b"
         id="polygon22" />
      <path
         d="m 106.8,401 c 1,0.26 2,0.37 2.45,0 a 0.71,0.71 0 0 0 0.16,-0.82 1,1 0 0 0 -0.5,-0.58 c -1.25,-0.69 -4.35,0.18 -4.48,0.21 a 0.19,0.19 0 0 0 -0.14,0.17 0.21,0.21 0 0 0 0.12,0.19 14.86,14.86 0 0 0 2.39,0.83 z m 1.58,-1.2 a 1.59,1.59 0 0 1 0.35,0.13 0.63,0.63 0 0 1 0.32,0.35 c 0.08,0.27 0,0.37 0,0.43 -0.48,0.41 -2.49,-0.08 -3.92,-0.66 a 8.42,8.42 0 0 1 3.25,-0.24 z"
         style="fill:#2117fb"
         id="path23" />
      <path
         d="m 104.45,400.19 h 0.08 c 1,-0.19 3.3,-1.41 3.34,-2.33 0,-0.22 -0.08,-0.52 -0.59,-0.7 a 1.43,1.43 0 0 0 -1.11,0.06 c -1.18,0.57 -1.84,2.63 -1.87,2.71 a 0.19,0.19 0 0 0 0,0.19 0.17,0.17 0 0 0 0.15,0.07 z m 2.6,-2.69 h 0.12 c 0.33,0.12 0.32,0.26 0.32,0.3 0,0.56 -1.6,1.57 -2.7,1.9 a 4.25,4.25 0 0 1 1.56,-2.15 1,1 0 0 1 0.7,-0.05 z"
         style="fill:#2117fb"
         id="path24" />
      <path
         d="m 103.47,398.42 -8.85,-2.54 a 0.68,0.68 0 0 0 -0.8,0.34 l -3.26,6.47 a 1.23,1.23 0 0 0 0.81,1.71 c 3.1,0.83 4.65,1.09 8.54,2.2 2.39,0.69 7.26,2.35 10.57,3.3 3.31,0.95 4.53,-2.16 3.25,-2.84 -5.74,-3.05 -7.58,-5.51 -9.1,-7.79 a 2.07,2.07 0 0 0 -1.16,-0.85 z"
         style="fill:#263238"
         id="path25" />
      <path
         d="m 161.7,406.29 h -8.84 a 0.66,0.66 0 0 0 -0.66,0.56 l -1.29,7.15 a 1.25,1.25 0 0 0 1.23,1.45 c 3.19,-0.06 7.79,-0.25 11.8,-0.25 4.69,0 7.25,0.26 12.75,0.26 3.32,0 4.1,-3.36 2.69,-3.67 -6.39,-1.38 -10.08,-1.53 -15.7,-4.91 a 4,4 0 0 0 -1.98,-0.59 z"
         style="fill:#263238"
         id="path26" />
      <rect
         x="153.69"
         y="388.48001"
         width="8.1000004"
         height="9.6700001"
         style="opacity:0.2"
         id="rect26" />
      <polygon
         points="108.31,380.97 105.38,391.07 97.5,389.48 100.22,380.1 "
         style="opacity:0.2"
         id="polygon26" />
      <path
         d="m 148.47,202 c 0,0 -4.47,61.14 -8.47,84.32 -4.41,25.39 -30.07,103.13 -30.07,103.13 l -14.7,-2.69 c 0,0 18.53,-73 20.58,-98.14 2.23,-27.28 4.91,-83.51 4.91,-83.51 z"
         style="fill:#2117fb"
         id="path27" />
      <path
         d="m 140.94,227.4 c 0.8,-3.36 2.64,0.87 4.78,8.2 -1.62,18.14 -3.73,39.15 -5.75,50.73 -0.45,2.59 -1.13,5.73 -2,9.29 0.77,-25.88 0.8,-59.13 2.97,-68.22 z"
         style="opacity:0.3"
         id="path28" />
      <path
         d="m 163.74,200.34 c 0,0 5.87,61.46 6.07,86.15 0.21,25.69 -5.08,109.79 -5.08,109.79 H 151 c 0,0 -4.12,-82.6 -5.83,-107.83 -1.87,-27.5 -9.74,-85 -9.74,-85 z"
         style="fill:#2117fb"
         id="path29" />
      <path
         d="m 113,384.5 c 0.06,0 -2.31,5.33 -2.31,5.33 l -16.54,-3 1,-4.95 z"
         style="fill:#263238"
         id="path30" />
      <path
         d="m 167.13,390.81 c 0.06,0 -0.53,5.7 -0.53,5.7 h -16.68 l -0.68,-5.08 z"
         style="fill:#263238"
         id="path31" />
      <path
         d="m 121.12,145.56 c -1.1,2.13 -2.31,4.37 -3.41,6.58 l -3.36,6.66 c -1.09,2.22 -2.16,4.45 -3.19,6.68 -1.03,2.23 -2,4.45 -2.83,6.67 l -0.08,-3.5 a 43.33,43.33 0 0 0 2.1,5.26 c 0.39,0.88 0.89,1.72 1.32,2.59 0.43,0.87 1,1.7 1.51,2.52 a 57.84,57.84 0 0 0 3.44,4.91 c 0.62,0.79 1.24,1.6 1.9,2.36 0.66,0.76 1.38,1.55 2,2.2 l 0.2,0.22 a 2.88,2.88 0 0 1 -3.54,4.45 32.94,32.94 0 0 1 -3,-1.91 c -1,-0.66 -1.88,-1.35 -2.78,-2.08 a 47.79,47.79 0 0 1 -5.06,-4.81 43.81,43.81 0 0 1 -4.35,-5.62 43,43 0 0 1 -3.46,-6.38 4.31,4.31 0 0 1 -0.21,-3 l 0.14,-0.47 c 0.76,-2.61 1.61,-5.14 2.55,-7.62 0.94,-2.48 1.94,-4.91 3,-7.3 1.06,-2.39 2.17,-4.75 3.34,-7.08 1.17,-2.33 2.35,-4.61 3.7,-6.94 a 5.8,5.8 0 0 1 10.18,5.56 z"
         style="fill:#ff8b7b"
         id="path32" />
      <path
         d="m 126.86,142 c 0.4,7.63 -8.26,21.64 -8.26,21.64 l -17.83,-8.91 a 52.49,52.49 0 0 1 9.88,-17.23 c 9.43,-10.42 15.84,-2.5 16.21,4.5 z"
         style="fill:#263238"
         id="path33" />
      <path
         d="m 114.78,191.73 3.59,6 7.47,-4.78 a 12.1,12.1 0 0 0 -5.81,-5.23 2.5,2.5 0 0 0 -3,1.27 z"
         style="fill:#ff8b7b"
         id="path34" />
      <path
         d="m 121.36,200.29 3.47,-0.65 a 2.25,2.25 0 0 0 1.8,-2.64 l -0.79,-4 -7.47,4.78 0.5,1.21 a 2.24,2.24 0 0 0 2.49,1.3 z"
         style="fill:#ff8b7b"
         id="path35" />
      <path
         d="m 142.43,103.66 c 0.07,0.65 0.48,1.16 0.9,1.12 0.42,-0.04 0.7,-0.59 0.62,-1.24 -0.08,-0.65 -0.48,-1.16 -0.9,-1.13 -0.42,0.03 -0.7,0.59 -0.62,1.25 z"
         style="fill:#263238"
         id="path36" />
      <path
         d="m 142.85,104.82 a 25.16,25.16 0 0 0 3.75,5.36 c -1,1.17 -3,0.83 -3,0.83 z"
         style="fill:#ff5652"
         id="path37" />
      <path
         d="m 139.63,100.21 a 0.35,0.35 0 0 0 0.29,-0.09 2.9,2.9 0 0 1 2.63,-0.71 0.36,0.36 0 0 0 0.46,-0.26 0.4,0.4 0 0 0 -0.27,-0.48 3.69,3.69 0 0 0 -3.34,0.86 0.38,0.38 0 0 0 0,0.55 0.34,0.34 0 0 0 0.23,0.13 z"
         style="fill:#263238"
         id="path38" />
      <path
         d="m 122.27,110.9 c 1.91,5.79 4.45,16.46 0.83,20.74 0,0 2.38,5.83 13.34,4.9 12.07,-1 5,-6.45 5,-6.45 -6.78,-1 -7.24,-5.89 -6.68,-10.56 z"
         style="fill:#ff8b7b"
         id="path39" />
      <path
         d="m 120.51,133.75 c -1.13,-1.81 -2.39,-3.88 -0.25,-4.65 2.35,-0.85 15.55,-2.23 20.25,-1.07 4.7,1.16 3.74,5 3.74,5 z"
         style="fill:#2117fb"
         id="path40" />
      <path
         d="m 159.16,136.19 c 1.72,1.58 3.58,3.33 5.43,4.93 1.85,1.6 3.72,3.24 5.6,4.82 1.88,1.58 3.8,3.07 5.73,4.52 1.93,1.45 3.89,2.77 5.85,4 l -4,-0.38 a 14.93,14.93 0 0 0 4.65,-2.15 30.48,30.48 0 0 0 4.58,-3.93 52.8,52.8 0 0 0 4.21,-4.87 c 0.67,-0.87 1.34,-1.75 2,-2.66 0.66,-0.91 1.26,-1.87 1.81,-2.71 l 0.11,-0.16 a 2.89,2.89 0 0 1 5.19,2.4 c -0.38,1.3 -0.78,2.41 -1.24,3.57 -0.46,1.16 -0.94,2.3 -1.48,3.42 a 46.21,46.21 0 0 1 -3.83,6.55 34.3,34.3 0 0 1 -5.3,6 23.38,23.38 0 0 1 -7.55,4.52 4.78,4.78 0 0 1 -3.68,-0.21 l -0.33,-0.17 a 72.07,72.07 0 0 1 -7.22,-4.08 c -2.27,-1.47 -4.47,-3 -6.59,-4.64 -2.12,-1.64 -4.17,-3.3 -6.17,-5 -2,-1.7 -3.92,-3.48 -5.87,-5.47 a 5.8,5.8 0 0 1 8.05,-8.34 z"
         style="fill:#ff8b7b"
         id="path41" />
      <path
         d="m 153.05,131 c 0,0 10.08,9.78 11.25,70.27 -16.12,3.91 -31.63,5.35 -43.61,3.83 -0.57,-7.59 -1.42,-33.93 -9.12,-61.7 a 8.77,8.77 0 0 1 6.79,-11 c 1.53,-0.3 3.14,-0.57 4.74,-0.78 a 159.41,159.41 0 0 1 18.34,-1.55 81.21,81.21 0 0 1 11.61,0.93 z"
         style="fill:#263238"
         id="path42" />
      <path
         d="m 145.23,141.54 c 1,7.57 14,22.12 14,22.12 l 15.43,-16 a 126.61,126.61 0 0 0 -14.82,-13.29 c -11.31,-8.45 -15.51,0.15 -14.61,7.17 z"
         style="fill:#263238"
         id="path43" />
      <path
         d="m 199.32,142.66 5.16,-4.73 -6.18,-6.35 a 12.1,12.1 0 0 0 -4,6.74 2.5,2.5 0 0 0 1.9,2.68 z"
         style="fill:#ff8b7b"
         id="path44" />
      <path
         d="m 206.38,134.49 -1.33,-3.27 a 2.26,2.26 0 0 0 -3,-1.23 l -3.79,1.59 6.18,6.35 1.08,-0.73 a 2.25,2.25 0 0 0 0.86,-2.71 z"
         style="fill:#ff8b7b"
         id="path45" />
      <path
         d="m 120.73,104 c 1.45,8 1.89,12.74 6.39,16.55 6.77,5.73 16.11,1.27 17,-6.9 0.84,-7.36 -1.67,-19.21 -9.81,-21.79 C 126.17,89.28 119.28,96 120.73,104 Z"
         style="fill:#ff8b7b"
         id="path46" />
      <path
         d="m 136.5,106.88 c 2.81,0.64 5,-2.61 5.3,-3.53 -1.37,0.13 -3.8,-0.57 -4.28,-1.19 1.5,0.13 2.95,-1.72 3.13,-2.43 a 6.24,6.24 0 0 1 -3.93,-2.55 c 2.43,-0.05 5.35,-4.33 2.68,-8.16 -2.67,-3.83 -13.83,-0.62 -15.4,-3.35 -2.34,1.36 -0.26,3.17 -0.26,3.17 0,0 -15.79,3 -8.51,9.09 -5.34,0.48 -6.09,6.79 -1.64,10 4.45,3.21 4.68,5.33 2.91,5.07 0.71,1.36 3.88,1.54 4.06,0.22 0.75,2.77 2.91,6.52 7.89,5.91 4.98,-0.61 9.86,-7.58 8.05,-12.25 z"
         style="fill:#263238"
         id="path47" />
      <path
         d="m 116.61,97 c -3.76,0.52 -5.47,-1.6 -4.53,-3.47 -4.66,2.38 0.43,7.64 4.53,3.47 z"
         style="fill:#263238"
         id="path48" />
      <path
         d="m 132.61,105.66 a 8.8,8.8 0 0 0 3.28,4.12 c 2,1.32 3.81,0 3.47,-2 -0.31,-1.84 -1.72,-4.75 -3.8,-5.27 a 2.38,2.38 0 0 0 -2.95,3.15 z"
         style="fill:#ff8b7b"
         id="path49" />
    </g>
    <g
       id="freepik--Plant--inject-60">
      <path
         d="m 386.78,387.52 c -7.4,-17.46 -10.39,-38 -1.92,-37.15 8.69,0.84 7.67,31.8 9.08,35.2 -2.71,2.33 -7.16,1.95 -7.16,1.95 z"
         style="fill:#2117fb"
         id="path50" />
      <path
         d="m 389.18,354.39 c -1.82,6.66 -3.75,16.95 -5.22,25.67 0.84,2.5 1.79,5 2.82,7.46 0,0 4.44,0.38 7.17,-1.95 -1.12,-2.68 -0.72,-22.52 -4.77,-31.18 z"
         style="fill:#263238"
         id="path51" />
      <path
         d="m 389.22,384.32 c -2.32,-37.1 4,-71.49 20.64,-69.94 14.28,1.34 -6.54,63.8 -6.14,71 -6.54,2.54 -14.5,-1.06 -14.5,-1.06 z"
         style="fill:#2117fb"
         id="path52" />
      <path
         d="m 400,384.08 c 2.61,-26.67 16.68,-57.79 22.72,-47.39 7.67,13.2 -12,44.64 -12.53,49.81 -4.92,1.06 -10.19,-2.42 -10.19,-2.42 z"
         style="fill:#2117fb"
         id="path53" />
      <path
         d="m 397.37,324.29 c -1.69,-0.28 -2.63,-1.33 -2.52,-2.82 0.12,-1.68 1.5,-3.35 2.78,-3.37 0.62,0 1.66,0.32 1.92,2.63 l -1,0.12 c -0.12,-1.1 -0.45,-1.75 -0.89,-1.75 v 0 c -0.68,0 -1.72,1.24 -1.8,2.44 -0.07,1 0.49,1.56 1.68,1.76 z"
         style="fill:#2117fb"
         id="path54" />
      <path
         d="m 415.33,331 a 3.79,3.79 0 0 1 -2,-0.77 l 0.54,-0.83 c 0.93,0.6 1.65,0.76 1.93,0.42 0.42,-0.54 0.13,-2.12 -0.74,-2.95 -0.7,-0.67 -1.52,-0.62 -2.43,0.18 l -0.65,-0.76 a 2.61,2.61 0 0 1 3.77,-0.14 c 1.22,1.16 1.63,3.28 0.83,4.29 a 1.48,1.48 0 0 1 -1.25,0.56 z"
         style="fill:#2117fb"
         id="path55" />
      <path
         d="m 390.82,346.1 a 2.49,2.49 0 0 1 -2.62,-2 c -0.4,-1.63 0.4,-3.64 1.62,-4.06 0.57,-0.19 1.67,-0.21 2.63,1.92 l -0.92,0.42 c -0.45,-1 -1,-1.54 -1.39,-1.39 -0.64,0.22 -1.25,1.71 -1,2.87 0.23,1 1,1.34 2.14,1.16 l 0.15,1 a 3.59,3.59 0 0 1 -0.61,0.08 z"
         style="fill:#2117fb"
         id="path56" />
      <path
         d="m 380.17,366.81 a 2.42,2.42 0 0 1 -2.29,-1.49 c -0.7,-1.53 -0.29,-3.66 0.82,-4.3 0.53,-0.3 1.61,-0.52 2.95,1.4 l -0.82,0.57 c -0.64,-0.91 -1.25,-1.32 -1.63,-1.1 -0.59,0.34 -0.91,1.92 -0.41,3 0.41,0.89 1.19,1.13 2.32,0.73 l 0.33,0.95 a 3.72,3.72 0 0 1 -1.27,0.24 z"
         style="fill:#2117fb"
         id="path57" />
      <path
         d="m 397.89,336.62 a 0.52,0.52 0 0 1 -0.29,-0.09 2.94,2.94 0 0 1 -1.32,-3.63 3.37,3.37 0 0 1 3.49,-2 c 0.62,0.11 2.07,0.66 2.17,3.32 a 0.5,0.5 0 0 1 -1,0 c -0.06,-1.39 -0.53,-2.23 -1.35,-2.38 a 2.4,2.4 0 0 0 -2.39,1.43 c -0.36,0.85 0,1.71 1,2.42 a 0.5,0.5 0 0 1 -0.29,0.91 z"
         style="fill:#ffffff"
         id="path58" />
      <path
         d="m 409.74,363.61 a 0.48,0.48 0 0 1 -0.48,-0.4 0.49,0.49 0 0 1 0.38,-0.59 c 1.36,-0.28 2.11,-0.89 2.13,-1.72 a 2.41,2.41 0 0 0 -1.81,-2.12 c -0.9,-0.22 -1.7,0.27 -2.23,1.37 a 0.50089919,0.50089919 0 1 1 -0.9,-0.44 3,3 0 0 1 3.36,-1.91 3.4,3.4 0 0 1 2.58,3.11 c 0,0.63 -0.32,2.15 -2.92,2.69 z"
         style="fill:#ffffff"
         id="path59" />
      <path
         d="m 423.8,355.18 c -0.58,0 -1.35,-0.34 -2.21,-1.63 l 0.83,-0.56 c 0.62,0.92 1.21,1.34 1.6,1.13 0.6,-0.32 1,-1.9 0.47,-3 -0.38,-0.89 -1.16,-1.15 -2.3,-0.78 l -0.31,-0.95 c 1.62,-0.53 2.94,0 3.53,1.34 0.67,1.54 0.22,3.66 -0.91,4.27 a 1.39,1.39 0 0 1 -0.7,0.18 z"
         style="fill:#2117fb"
         id="path60" />
      <path
         d="m 420.82,393.87 a 22.23,22.23 0 0 0 -5.39,-14.54 1.45,1.45 0 0 0 1.24,-1.42 1.48,1.48 0 0 0 -1.48,-1.47 h -33.48 a 1.46,1.46 0 0 0 -0.22,2.9 22.32,22.32 0 0 0 6.51,34.31 1.62,1.62 0 0 0 0.75,3.06 h 19.39 a 1.63,1.63 0 0 0 1.62,-1.62 1.64,1.64 0 0 0 -0.87,-1.44 22.36,22.36 0 0 0 11.93,-19.78 z"
         style="fill:#263238"
         id="path61" />
    </g>
  </g>
</svg>
