<?xml version="1.0" encoding="UTF-8" standalone="no"?>
<svg
   viewBox="0 0 500 500"
   version="1.1"
   id="svg124"
   xmlns="http://www.w3.org/2000/svg"
   xmlns:svg="http://www.w3.org/2000/svg">
  <defs
     id="defs124" />
  <g
     id="g124"
     transform="translate(0,80.809982)">
    <g
       id="freepik--Machine--inject-36">
      <path
         d="m 378.09,187.54 h 12 c 0,-11.78 -3.68,-28.92 -14.07,-38.45 -11.14,-10.2 -36.69,-8.15 -39.57,-7.88 l 1.12,11.95 c 8.82,-0.81 24.87,-0.23 30.34,4.78 8.09,7.37 10.18,22.06 10.18,29.6 z"
         style="fill:#263238"
         id="path1" />
      <g
         style="opacity:0.2;isolation:isolate"
         id="g2">
        <path
           d="m 378.09,187.54 h 12 c 0,-11.78 -3.68,-28.92 -14.07,-38.45 -11.14,-10.2 -36.69,-8.15 -39.57,-7.88 l 1.12,11.95 c 8.82,-0.81 24.87,-0.23 30.34,4.78 8.09,7.37 10.18,22.06 10.18,29.6 z"
           style="fill:#ffffff"
           id="path2" />
      </g>
      <polygon
         points="390.09,187.54 390.09,186.99 378.09,187.09 378.09,187.54 "
         style="fill:#263238"
         id="polygon2" />
      <path
         d="m 377.73,181.62 11.93,-1.36 q 0.06,0.57 0.12,1.11 l -11.95,1.17 c -0.03,-0.3 -0.06,-0.61 -0.1,-0.92 z m -0.88,-5.47 11.74,-2.48 c 0.08,0.37 0.15,0.73 0.22,1.09 L 377,177.05 Z m -1.4,-5.3 11.41,-3.69 c 0.12,0.36 0.23,0.72 0.34,1.08 l -11.48,3.47 z m -1.95,-5 10.85,-5.13 0.48,1.05 -11,4.88 c -0.08,-0.24 -0.21,-0.5 -0.33,-0.77 z m -2.5,-4.39 9.83,-6.88 0.68,1 -10,6.57 z m -3.1,-3.56 8,-8.94 0.14,0.13 0.81,0.76 -8.43,8.55 z m -3.52,-2.1 4.62,-11.06 c 0.4,0.16 0.78,0.33 1.16,0.51 L 365,156.11 Z m -4.83,-1.5 2.65,-11.71 1.13,0.27 -2.93,11.64 z m -5.39,-0.9 1.37,-11.92 1.11,0.13 -1.64,11.9 z m -5.66,-0.43 0.49,-12 1.01,0.03 -0.61,12 z m -6,-12.06 h 1.06 l 0.14,12 h -1 z"
         style="fill:#263238"
         id="path3" />
      <polygon
         points="337.97,153.13 337.04,141.16 336.45,141.21 337.57,153.16 "
         style="fill:#263238"
         id="polygon3" />
      <path
         d="m 260.45,187.54 h -12 c 0,-11.78 3.69,-28.92 14.08,-38.45 11.13,-10.2 36.69,-8.15 39.56,-7.88 L 301,153.16 c -8.83,-0.81 -24.88,-0.23 -30.34,4.78 -8.06,7.37 -10.21,22.06 -10.21,29.6 z"
         style="fill:#263238"
         id="path4" />
      <g
         style="opacity:0.2;isolation:isolate"
         id="g5">
        <path
           d="m 260.45,187.54 h -12 c 0,-11.78 3.69,-28.92 14.08,-38.45 11.13,-10.2 36.69,-8.15 39.56,-7.88 L 301,153.16 c -8.83,-0.81 -24.88,-0.23 -30.34,4.78 -8.06,7.37 -10.21,22.06 -10.21,29.6 z"
           style="fill:#ffffff"
           id="path5" />
      </g>
      <polygon
         points="248.45,187.54 248.45,186.99 260.45,187.09 260.45,187.54 "
         style="fill:#263238"
         id="polygon5" />
      <path
         d="m 260.71,182.54 -11.94,-1.17 c 0,-0.36 0.07,-0.73 0.12,-1.11 l 11.92,1.36 c -0.04,0.31 -0.07,0.62 -0.1,0.92 z m 0.8,-5.49 -11.77,-2.29 c 0.07,-0.36 0.14,-0.72 0.22,-1.09 l 11.74,2.48 c -0.07,0.3 -0.13,0.6 -0.19,0.9 z m 1.32,-5.34 -11.49,-3.47 c 0.11,-0.36 0.22,-0.72 0.34,-1.08 l 11.42,3.69 z m 1.85,-5 -11,-4.88 q 0.22,-0.53 0.48,-1.05 l 10.85,5.13 c -0.09,0.24 -0.21,0.5 -0.33,0.77 z m 2.44,-4.53 -10,-6.57 c 0.22,-0.33 0.44,-0.67 0.67,-1 l 9.84,6.88 z m 3,-3.75 -8.42,-8.55 c 0.26,-0.26 0.53,-0.51 0.8,-0.76 l 0.15,-0.13 8,8.94 z m 3.36,-2.29 -5.12,-10.86 c 0.38,-0.18 0.77,-0.35 1.16,-0.51 l 4.66,11.06 z m 4.67,-1.61 -2.93,-11.64 1.14,-0.27 2.64,11.68 z m 5.33,-1 -1.48,-11.92 1.11,-0.13 1.36,11.92 z m 5.62,-0.5 -0.62,-12 1.08,-0.05 0.49,12 z m 6.71,-0.1 h -1 l 0.13,-12 h 1.07 z"
         style="fill:#263238"
         id="path6" />
      <polygon
         points="300.58,153.13 301.51,141.16 302.09,141.21 300.98,153.16 "
         style="fill:#263238"
         id="polygon6" />
      <path
         d="m 254.22,185 v 0 a 30.73,30.73 0 0 1 30.73,30.73 V 238.3 H 223.49 V 215.76 A 30.73,30.73 0 0 1 254.22,185 Z"
         style="fill:#2117fb"
         id="path7" />
      <path
         d="m 254.22,185 v 0 a 30.73,30.73 0 0 1 30.73,30.73 V 238.3 H 223.49 V 215.76 A 30.73,30.73 0 0 1 254.22,185 Z"
         style="opacity:0.8;fill:#ffffff"
         id="path8" />
      <rect
         x="223.07001"
         y="240.63"
         width="62.299999"
         height="178.56"
         style="fill:#263238"
         id="rect8" />
      <rect
         x="223.07001"
         y="240.63"
         width="62.299999"
         height="178.56"
         style="opacity:0.4;isolation:isolate;fill:#ffffff"
         id="rect9" />
      <path
         d="m 286.78,243 h -65.12 a 2.33,2.33 0 0 1 -2.33,-2.33 v 0 a 2.33,2.33 0 0 1 2.33,-2.34 h 65.12 a 2.34,2.34 0 0 1 2.33,2.34 v 0 a 2.33,2.33 0 0 1 -2.33,2.33 z"
         style="fill:#263238"
         id="path9" />
      <path
         d="m 286.78,243 h -65.12 a 2.33,2.33 0 0 1 -2.33,-2.33 v 0 a 2.33,2.33 0 0 1 2.33,-2.34 h 65.12 a 2.34,2.34 0 0 1 2.33,2.34 v 0 a 2.33,2.33 0 0 1 -2.33,2.33 z"
         style="opacity:0.2;isolation:isolate;fill:#ffffff"
         id="path10" />
      <path
         d="M 272,204.45 V 228 a 2.65,2.65 0 0 1 -2.26,2.63 2.69,2.69 0 0 1 -0.4,0 h -30.23 a 2.66,2.66 0 0 1 -2.66,-2.66 v -23.52 a 2.54,2.54 0 0 1 0.27,-1.16 2.65,2.65 0 0 1 2.39,-1.51 H 251 a 2.65,2.65 0 0 0 2.54,-1.83 2.66,2.66 0 0 1 2.53,-1.84 h 6.31 a 2.65,2.65 0 0 1 2.53,1.84 2.66,2.66 0 0 0 2.54,1.83 h 1.93 a 2.67,2.67 0 0 1 2.62,2.67 z"
         style="fill:#2117fb"
         id="path11" />
      <path
         d="m 269.73,205.57 v 25 0 h -30.62 a 2.66,2.66 0 0 1 -2.66,-2.66 v -23.46 a 2.54,2.54 0 0 1 0.27,-1.16 h 30.73 a 2.28,2.28 0 0 1 2.28,2.28 z"
         style="opacity:0.3;isolation:isolate;fill:#ffffff"
         id="path12" />
      <rect
         x="243.35001"
         y="184.75999"
         width="21.74"
         height="2.23"
         rx="1.12"
         style="fill:#263238"
         id="rect12" />
      <path
         d="m 384.22,185 v 0 a 30.73,30.73 0 0 1 30.73,30.73 V 238.3 H 353.49 V 215.76 A 30.73,30.73 0 0 1 384.22,185 Z"
         style="fill:#2117fb"
         id="path13" />
      <path
         d="m 384.22,185 v 0 a 30.73,30.73 0 0 1 30.73,30.73 V 238.3 H 353.49 V 215.76 A 30.73,30.73 0 0 1 384.22,185 Z"
         style="opacity:0.8;fill:#ffffff"
         id="path14" />
      <rect
         x="353.07001"
         y="240.63"
         width="62.299999"
         height="178.56"
         style="fill:#263238"
         id="rect14" />
      <rect
         x="353.07001"
         y="240.63"
         width="62.299999"
         height="178.55"
         style="opacity:0.4;isolation:isolate;fill:#ffffff"
         id="rect15" />
      <path
         d="m 416.78,243 h -65.12 a 2.33,2.33 0 0 1 -2.33,-2.33 v 0 a 2.33,2.33 0 0 1 2.33,-2.34 h 65.12 a 2.34,2.34 0 0 1 2.33,2.34 v 0 a 2.33,2.33 0 0 1 -2.33,2.33 z"
         style="fill:#263238"
         id="path15" />
      <path
         d="m 416.78,243 h -65.12 a 2.33,2.33 0 0 1 -2.33,-2.33 v 0 a 2.33,2.33 0 0 1 2.33,-2.34 h 65.12 a 2.34,2.34 0 0 1 2.33,2.34 v 0 a 2.33,2.33 0 0 1 -2.33,2.33 z"
         style="opacity:0.2;isolation:isolate;fill:#ffffff"
         id="path16" />
      <path
         d="M 402,204.45 V 228 a 2.65,2.65 0 0 1 -2.26,2.63 2.69,2.69 0 0 1 -0.4,0 h -30.23 a 2.66,2.66 0 0 1 -2.66,-2.66 v -23.52 a 2.54,2.54 0 0 1 0.27,-1.16 2.65,2.65 0 0 1 2.39,-1.51 H 381 a 2.65,2.65 0 0 0 2.54,-1.83 2.66,2.66 0 0 1 2.53,-1.84 h 6.31 a 2.65,2.65 0 0 1 2.53,1.84 2.66,2.66 0 0 0 2.54,1.83 h 1.93 a 2.67,2.67 0 0 1 2.62,2.67 z"
         style="fill:#2117fb"
         id="path17" />
      <path
         d="M 402,204.45 V 228 a 2.65,2.65 0 0 1 -2.26,2.63 2.69,2.69 0 0 1 -0.4,0 h -30.23 a 2.66,2.66 0 0 1 -2.66,-2.66 v -23.52 a 2.54,2.54 0 0 1 0.27,-1.16 2.65,2.65 0 0 1 2.39,-1.51 H 381 a 2.65,2.65 0 0 0 2.54,-1.83 2.66,2.66 0 0 1 2.53,-1.84 h 6.31 a 2.65,2.65 0 0 1 2.53,1.84 2.66,2.66 0 0 0 2.54,1.83 h 1.93 a 2.67,2.67 0 0 1 2.62,2.67 z"
         style="opacity:0.5;fill:#ffffff"
         id="path18" />
      <path
         d="M 402,204.45 V 228 a 2.65,2.65 0 0 1 -2.26,2.63 2.69,2.69 0 0 1 -0.4,0 h -30.23 a 2.66,2.66 0 0 1 -2.66,-2.66 v -23.52 a 2.54,2.54 0 0 1 0.27,-1.16 2.65,2.65 0 0 1 2.39,-1.51 H 381 a 2.65,2.65 0 0 0 2.54,-1.83 2.66,2.66 0 0 1 2.53,-1.84 h 6.31 a 2.65,2.65 0 0 1 2.53,1.84 2.66,2.66 0 0 0 2.54,1.83 h 1.93 a 2.67,2.67 0 0 1 2.62,2.67 z"
         style="fill:none;stroke:#2117fb;stroke-width:0.5px;stroke-linecap:round;stroke-linejoin:round;stroke-dasharray:3.05809, 2.03873"
         id="path19" />
      <path
         d="m 399.73,205.57 v 25 0 h -30.62 a 2.66,2.66 0 0 1 -2.66,-2.66 v -23.46 a 2.54,2.54 0 0 1 0.27,-1.16 h 30.73 a 2.28,2.28 0 0 1 2.28,2.28 z"
         style="fill:none;stroke:#2117fb;stroke-width:0.5px;stroke-linecap:round;stroke-linejoin:round;stroke-dasharray:3, 2"
         id="path20" />
      <path
         d="m 399.73,205.57 v 25 0 h -30.62 a 2.66,2.66 0 0 1 -2.66,-2.66 v -23.46 a 2.54,2.54 0 0 1 0.27,-1.16 h 30.73 a 2.28,2.28 0 0 1 2.28,2.28 z"
         style="opacity:0.3;isolation:isolate;fill:#ffffff"
         id="path21" />
      <rect
         x="373.35001"
         y="184.75999"
         width="21.74"
         height="2.23"
         rx="1.12"
         style="fill:#263238"
         id="rect21" />
      <path
         d="m 402.47,259.94 h -36.34 a 4.36,4.36 0 0 1 -4.36,-4.36 v 0 a 4.37,4.37 0 0 1 4.36,-4.37 h 36.34 a 4.37,4.37 0 0 1 4.37,4.37 v 0 a 4.37,4.37 0 0 1 -4.37,4.36 z"
         style="opacity:0.3;isolation:isolate;fill:#ffffff"
         id="path22" />
      <path
         d="m 365.26,253.91 h 1.53 a 1.88,1.88 0 1 1 0,3.75 h -1.53 z m 1.51,3.41 a 1.54,1.54 0 1 0 0,-3.07 h -1.11 v 3.07 z"
         style="fill:#263238"
         id="path23" />
      <path
         d="m 369.66,256.06 v -2.15 h 0.4 V 256 c 0,0.89 0.41,1.3 1.14,1.3 0.73,0 1.15,-0.41 1.15,-1.3 v -2.13 h 0.39 v 2.15 a 1.54,1.54 0 1 1 -3.08,0 z"
         style="fill:#263238"
         id="path24" />
      <path
         d="m 376.87,255.2 c 0,0.79 -0.58,1.28 -1.53,1.28 h -1 v 1.18 h -0.39 v -3.75 h 1.4 c 0.94,0 1.52,0.48 1.52,1.29 z m -0.39,0 c 0,-0.6 -0.4,-0.95 -1.15,-0.95 h -1 v 1.88 h 1 c 0.75,0 1.15,-0.34 1.15,-0.93 z"
         style="fill:#263238"
         id="path25" />
      <path
         d="m 377.73,253.91 h 0.4 v 3.41 h 2.1 v 0.34 h -2.5 z"
         style="fill:#263238"
         id="path26" />
      <path
         d="m 380.89,253.91 h 0.4 v 3.75 h -0.4 z"
         style="fill:#263238"
         id="path27" />
      <path
         d="m 382.18,255.79 a 1.89,1.89 0 0 1 2,-1.91 1.85,1.85 0 0 1 1.37,0.54 l -0.26,0.26 a 1.48,1.48 0 0 0 -1.1,-0.45 1.56,1.56 0 1 0 0,3.11 1.44,1.44 0 0 0 1.1,-0.45 l 0.26,0.25 a 1.86,1.86 0 0 1 -1.38,0.55 1.88,1.88 0 0 1 -1.99,-1.9 z"
         style="fill:#263238"
         id="path28" />
      <path
         d="m 388.62,256.66 h -2.09 l -0.45,1 h -0.41 l 1.71,-3.75 h 0.4 l 1.71,3.75 h -0.42 z m -0.14,-0.32 -0.9,-2 -0.9,2 z"
         style="fill:#263238"
         id="path29" />
      <path
         d="m 390.66,254.25 h -1.32 v -0.34 h 3 v 0.34 h -1.32 v 3.41 h -0.39 z"
         style="fill:#263238"
         id="path30" />
      <path
         d="m 395.66,257.32 v 0.34 H 393 v -3.75 h 2.58 v 0.34 h -2.18 v 1.34 h 1.94 v 0.33 h -1.94 v 1.4 z"
         style="fill:#263238"
         id="path31" />
      <path
         d="m 398.7,253.91 v 3.75 h -0.38 v -3.41 h -0.89 v -0.34 z"
         style="fill:#263238"
         id="path32" />
      <path
         d="m 399.61,257.39 a 0.28,0.28 0 0 1 0.28,-0.29 0.3,0.3 0 0 1 0,0.59 0.28,0.28 0 0 1 -0.28,-0.3 z"
         style="fill:#263238"
         id="path33" />
      <path
         d="m 400.68,255.79 c 0,-1.2 0.62,-1.91 1.49,-1.91 0.87,0 1.5,0.71 1.5,1.91 0,1.2 -0.63,1.9 -1.5,1.9 -0.87,0 -1.49,-0.69 -1.49,-1.9 z m 2.6,0 c 0,-1 -0.45,-1.56 -1.11,-1.56 -0.66,0 -1.1,0.55 -1.1,1.56 0,1.01 0.45,1.55 1.1,1.55 0.65,0 1.11,-0.55 1.11,-1.55 z"
         style="fill:#263238"
         id="path34" />
      <path
         d="m 272.8,259.94 h -36.34 a 4.37,4.37 0 0 1 -4.37,-4.36 v 0 a 4.37,4.37 0 0 1 4.37,-4.37 h 36.34 a 4.37,4.37 0 0 1 4.36,4.37 v 0 a 4.36,4.36 0 0 1 -4.36,4.36 z"
         style="opacity:0.3;isolation:isolate;fill:#ffffff"
         id="path35" />
      <path
         d="m 247.76,253.91 v 3.75 h -0.38 v -3 l -1.48,2.52 h -0.19 l -1.47,-2.5 v 3 h -0.38 v -3.75 h 0.33 l 1.63,2.78 1.61,-2.78 z"
         style="fill:#263238"
         id="path36" />
      <path
         d="m 251.33,256.66 h -2.09 l -0.45,1 h -0.41 l 1.72,-3.75 h 0.39 l 1.71,3.75 h -0.42 z m -0.14,-0.32 -0.9,-2 -0.9,2 z"
         style="fill:#263238"
         id="path37" />
      <path
         d="m 252.47,257.21 0.15,-0.31 a 1.87,1.87 0 0 0 1.24,0.45 c 0.7,0 1,-0.29 1,-0.66 0,-1 -2.31,-0.4 -2.31,-1.78 0,-0.55 0.43,-1 1.38,-1 a 2.11,2.11 0 0 1 1.16,0.33 l -0.13,0.32 a 1.93,1.93 0 0 0 -1,-0.31 c -0.69,0 -1,0.3 -1,0.68 0,1 2.31,0.4 2.31,1.77 0,0.55 -0.44,1 -1.4,1 a 2.08,2.08 0 0 1 -1.4,-0.49 z"
         style="fill:#263238"
         id="path38" />
      <path
         d="m 256.8,254.25 h -1.32 v -0.34 h 3 v 0.34 h -1.28 v 3.41 h -0.4 z"
         style="fill:#263238"
         id="path39" />
      <path
         d="m 261.8,257.32 v 0.34 h -2.65 v -3.75 h 2.57 v 0.34 h -2.18 v 1.34 h 1.94 v 0.33 h -1.94 v 1.4 z"
         style="fill:#263238"
         id="path40" />
      <path
         d="m 265.3,257.66 -0.86,-1.2 h -1.31 v 1.19 h -0.4 v -3.75 h 1.41 c 0.95,0 1.53,0.48 1.53,1.29 a 1.16,1.16 0 0 1 -0.86,1.18 l 0.92,1.28 z m 0,-2.46 c 0,-0.6 -0.39,-0.95 -1.14,-0.95 h -1 v 1.88 h 1 c 0.72,0 1.11,-0.34 1.11,-0.93 z"
         style="fill:#263238"
         id="path41" />
      <rect
         x="235.03999"
         y="339.17999"
         width="39.16"
         height="62.029999"
         style="opacity:0.2;isolation:isolate"
         id="rect41" />
      <rect
         x="365.04001"
         y="339.17999"
         width="39.16"
         height="62.029999"
         style="opacity:0.2;isolation:isolate"
         id="rect42" />
      <path
         d="m 404.52,229 a 4.76,4.76 0 1 1 -4.76,-4.75 4.76,4.76 0 0 1 4.76,4.75 z"
         style="fill:#2117fb"
         id="path42" />
      <line
         x1="399.76001"
         y1="226.44"
         x2="399.76001"
         y2="231.49001"
         style="fill:none;stroke:#ffffff;stroke-linecap:round;stroke-linejoin:round"
         id="line42" />
      <line
         x1="402.28"
         y1="228.96001"
         x2="397.23999"
         y2="228.96001"
         style="fill:none;stroke:#ffffff;stroke-linecap:round;stroke-linejoin:round"
         id="line43" />
      <polygon
         points="334.67,133.07 334.67,120.6 339.48,123.6 339.48,133.07 "
         style="fill:#263238"
         id="polygon43" />
      <path
         d="m 295.78,130.22 h 46.79 a 3.31,3.31 0 0 1 3.31,3.31 V 419.18 H 292.47 V 133.53 a 3.31,3.31 0 0 1 3.31,-3.31 z"
         style="fill:#263238"
         id="path43" />
      <path
         d="m 295.78,130.22 h 46.79 a 3.31,3.31 0 0 1 3.31,3.31 V 419.18 H 292.47 V 133.53 a 3.31,3.31 0 0 1 3.31,-3.31 z"
         style="opacity:0.4;isolation:isolate;fill:#ffffff"
         id="path44" />
      <path
         d="m 315,147.19 a 5.72,5.72 0 1 1 -5.72,-5.71 5.72,5.72 0 0 1 5.72,5.71 z"
         style="opacity:0.8;fill:#ffffff"
         id="path45" />
      <circle
         cx="309.29001"
         cy="147.19"
         r="4.0700002"
         style="opacity:0.8;fill:#ffffff"
         id="circle45" />
      <rect
         x="319.17999"
         y="144.74001"
         width="2.4300001"
         height="2.4300001"
         style="fill:#ffffff"
         id="rect45" />
      <rect
         x="323.57001"
         y="144.74001"
         width="2.4300001"
         height="2.4300001"
         style="fill:#ffffff"
         id="rect46" />
      <rect
         x="327.95999"
         y="144.74001"
         width="2.4300001"
         height="2.4300001"
         style="fill:#ffffff"
         id="rect47" />
      <rect
         x="332.35001"
         y="144.74001"
         width="2.4300001"
         height="2.4300001"
         style="fill:#ffffff"
         id="rect48" />
      <rect
         x="319.17999"
         y="148.74001"
         width="2.4300001"
         height="2.4300001"
         style="fill:#ffffff"
         id="rect49" />
      <rect
         x="323.57001"
         y="148.74001"
         width="2.4300001"
         height="2.4300001"
         style="fill:#ffffff"
         id="rect50" />
      <rect
         x="327.95999"
         y="148.74001"
         width="2.4300001"
         height="2.4300001"
         style="fill:#ffffff"
         id="rect51" />
      <rect
         x="332.35001"
         y="148.74001"
         width="2.4300001"
         height="2.4300001"
         style="fill:#ffffff"
         id="rect52" />
      <rect
         x="303.57999"
         y="161.28999"
         width="10.81"
         height="17.799999"
         rx="1.45"
         style="opacity:0.2;isolation:isolate"
         id="rect53" />
      <path
         d="m 320.47,179.09 v 0 a 1.22,1.22 0 0 1 -1.22,-1.22 V 162.5 a 1.22,1.22 0 0 1 1.22,-1.21 v 0 a 1.21,1.21 0 0 1 1.21,1.21 v 15.37 a 1.22,1.22 0 0 1 -1.21,1.22 z"
         style="opacity:0.2;isolation:isolate"
         id="path53" />
      <circle
         cx="320.47"
         cy="166.12"
         r="0.81"
         style="fill:#ffffff"
         id="circle53" />
      <path
         d="m 324.78,179.09 v 0 a 1.22,1.22 0 0 1 -1.21,-1.22 V 162.5 a 1.21,1.21 0 0 1 1.21,-1.21 v 0 a 1.22,1.22 0 0 1 1.22,1.21 v 15.37 a 1.22,1.22 0 0 1 -1.22,1.22 z"
         style="opacity:0.2;isolation:isolate"
         id="path54" />
      <circle
         cx="324.78"
         cy="176.12"
         r="0.81"
         style="fill:#ffffff"
         id="circle54" />
      <path
         d="m 329.1,179.09 v 0 a 1.22,1.22 0 0 1 -1.22,-1.22 V 162.5 a 1.22,1.22 0 0 1 1.22,-1.21 v 0 a 1.21,1.21 0 0 1 1.21,1.21 v 15.37 a 1.22,1.22 0 0 1 -1.21,1.22 z"
         style="opacity:0.2;isolation:isolate"
         id="path55" />
      <circle
         cx="329.10001"
         cy="169.12"
         r="0.81"
         style="fill:#ffffff"
         id="circle55" />
      <path
         d="m 333.41,179.09 v 0 a 1.22,1.22 0 0 1 -1.21,-1.22 V 162.5 a 1.21,1.21 0 0 1 1.21,-1.21 v 0 a 1.22,1.22 0 0 1 1.22,1.21 v 15.37 a 1.22,1.22 0 0 1 -1.22,1.22 z"
         style="opacity:0.2;isolation:isolate"
         id="path56" />
      <circle
         cx="333.41"
         cy="166.12"
         r="0.81"
         style="fill:#ffffff"
         id="circle56" />
      <rect
         x="303.57999"
         y="189.77"
         width="22.01"
         height="14.37"
         style="opacity:0.3;isolation:isolate;fill:#ffffff"
         id="rect56" />
      <path
         d="m 332.2,191.72 a 2,2 0 1 1 -2,-1.95 2,2 0 0 1 2,1.95 z"
         style="opacity:0.3;isolation:isolate;fill:#ffffff"
         id="path57" />
      <path
         d="m 346.52,105.67 a 5.44,5.44 0 0 0 -10.88,0 2.6,2.6 0 0 0 -1.48,-0.47 2.55,2.55 0 0 0 -0.69,5 4.48,4.48 0 0 0 -0.54,2.09 4.55,4.55 0 1 0 8.91,-1.23 5.44,5.44 0 0 0 4.68,-5.39 z"
         style="fill:#2117fb"
         id="path58" />
      <path
         d="m 346.52,105.67 a 5.44,5.44 0 0 0 -10.88,0 2.6,2.6 0 0 0 -1.48,-0.47 2.55,2.55 0 0 0 -0.69,5 4.48,4.48 0 0 0 -0.54,2.09 4.55,4.55 0 1 0 8.91,-1.23 5.44,5.44 0 0 0 4.68,-5.39 z"
         style="opacity:0.8;fill:#ffffff"
         id="path59" />
      <path
         d="m 319.17,403.52 v 0 a 17.4,17.4 0 0 1 -17.4,-17.41 v -117 a 17.4,17.4 0 0 1 17.4,-17.4 v 0 a 17.4,17.4 0 0 1 17.41,17.4 v 117 a 17.4,17.4 0 0 1 -17.41,17.41 z"
         style="opacity:0.2;isolation:isolate"
         id="path60" />
      <polygon
         points="353.07,419.18 353.07,353.78 415.37,419.18 "
         style="opacity:0.2;isolation:isolate"
         id="polygon60" />
      <rect
         x="223.07001"
         y="290.17001"
         width="62.299999"
         height="129.02"
         style="opacity:0.2;isolation:isolate"
         id="rect60" />
      <polygon
         points="292.47,419.18 345.88,419.18 345.88,346.23 292.47,290.17 "
         style="opacity:0.2;isolation:isolate"
         id="polygon61" />
    </g>
    <g
       id="freepik--Table--inject-36">
      <path
         d="M 222.28,288.4 H 198 v -0.93 h 5.48 a 1.56,1.56 0 0 0 1.53,-1.3 l 2.45,-14.58 0.48,-2.87 h 8.31 l 7.42,17.52 a 1.55,1.55 0 0 1 -1.39,2.16 z"
         style="fill:#2117fb"
         id="path61" />
      <path
         d="M 222.28,288.4 H 198 v -0.93 h 5.48 a 1.56,1.56 0 0 0 1.53,-1.3 l 2.45,-14.58 0.48,-2.87 h 8.31 l 7.42,17.52 a 1.55,1.55 0 0 1 -1.39,2.16 z"
         style="opacity:0.4;isolation:isolate;fill:#ffffff"
         id="path62" />
      <path
         d="m 222.31,287.47 h -18.79 a 1.56,1.56 0 0 0 1.53,-1.3 l 2.45,-14.58 h 8.7 l 6.62,15.11 a 0.55,0.55 0 0 1 -0.51,0.77 z"
         style="opacity:0.2;isolation:isolate"
         id="path63" />
      <path
         d="m 235.32,274.09 h -48.49 a 0.71,0.71 0 0 1 -0.71,-0.88 L 193,236.78 a 1.11,1.11 0 0 1 1,-0.87 h 48.49 a 0.7,0.7 0 0 1 0.71,0.87 l -6.89,36.43 a 1.11,1.11 0 0 1 -0.99,0.88 z"
         style="fill:#2117fb"
         id="path64" />
      <path
         d="m 235.32,274.09 h -48.49 a 0.71,0.71 0 0 1 -0.71,-0.88 L 193,236.78 a 1.11,1.11 0 0 1 1,-0.87 h 48.49 a 0.7,0.7 0 0 1 0.71,0.87 l -6.89,36.43 a 1.11,1.11 0 0 1 -0.99,0.88 z"
         style="opacity:0.4;isolation:isolate;fill:#ffffff"
         id="path65" />
      <path
         d="m 234.32,274.09 h -48.49 a 0.71,0.71 0 0 1 -0.71,-0.88 L 192,236.78 a 1.11,1.11 0 0 1 1,-0.87 h 48.49 a 0.7,0.7 0 0 1 0.71,0.87 l -6.89,36.43 a 1.11,1.11 0 0 1 -0.99,0.88 z"
         style="fill:#263238"
         id="path66" />
      <polygon
         points="187.32,271.86 193.69,238.14 240.05,238.14 233.67,271.86 "
         style="fill:#2117fb"
         id="polygon66" />
      <path
         d="m 225.36,262.21 h -28 a 2.4,2.4 0 0 0 -2.23,1.64 1.28,1.28 0 0 0 1.38,1.64 h 28 a 2.39,2.39 0 0 0 2.24,-1.64 1.29,1.29 0 0 0 -1.39,-1.64 z"
         style="opacity:0.4;isolation:isolate;fill:#ffffff"
         id="path67" />
      <path
         d="m 196.63,265 a 0.93,0.93 0 0 1 -1,-1.19 1.72,1.72 0 0 1 1.61,-1.18 h 20 a 0.93,0.93 0 0 1 1,1.18 1.73,1.73 0 0 1 -1.62,1.19 z"
         style="fill:#ffffff"
         id="path68" />
      <path
         d="m 210.86,243.08 -0.33,1.72 h -3.59 l -2.73,14.12 h 11.68 l 0.53,-2.71 H 219 l 2.54,-13.13 z m 4.22,14.85 h -9.68 l 2.35,-12.14 h 2.59 l -2,10.42 h 7.1 z m 2.29,-8.16 h -2 l -0.38,2 a 0.64,0.64 0 0 1 -0.6,0.5 0.39,0.39 0 0 1 -0.4,-0.5 l 0.38,-2 h -2 a 0.39,0.39 0 0 1 -0.4,-0.5 0.63,0.63 0 0 1 0.59,-0.49 h 2 l 0.39,-2 a 0.64,0.64 0 0 1 0.6,-0.49 0.39,0.39 0 0 1 0.4,0.49 l -0.39,2 h 2 a 0.4,0.4 0 0 1 0.4,0.49 0.63,0.63 0 0 1 -0.59,0.5 z"
         style="opacity:0.4;isolation:isolate;fill:#ffffff"
         id="path69" />
      <path
         d="m 152.87,288.4 v -1.13 l 18.67,-3.78 H 208 a 2.45,2.45 0 0 1 2.45,2.46 v 0 A 2.45,2.45 0 0 1 208,288.4 Z"
         style="fill:#2117fb"
         id="path70" />
      <path
         d="m 210.49,286 a 2.45,2.45 0 0 1 -0.71,1.73 2.48,2.48 0 0 1 -1.74,0.72 h -55.17 v -1.13 l 18.67,-3.78 H 208 a 2.45,2.45 0 0 1 2.49,2.46 z"
         style="opacity:0.4;isolation:isolate;fill:#ffffff"
         id="path71" />
      <path
         d="m 210.49,286 a 2.45,2.45 0 0 1 -0.71,1.73 2.48,2.48 0 0 1 -1.74,0.72 h -22.17 v -1.13 l 18.67,-3.78 H 208 a 2.45,2.45 0 0 1 2.49,2.46 z"
         style="opacity:0.4;isolation:isolate;fill:#ffffff"
         id="path72" />
      <polygon
         points="228.83,419.18 237.8,294.24 231.18,294.24 223.84,419.18 "
         style="fill:#263238"
         id="polygon72" />
      <polygon
         points="228.83,419.18 237.37,300.45 237.81,294.44 231.18,294.44 230.82,300.45 223.83,419.18 "
         style="opacity:0.1;isolation:isolate;fill:#ffffff"
         id="polygon73" />
      <polygon
         points="237.37,300.15 237.81,294.44 231.18,294.44 230.82,300.15 "
         style="opacity:0.2;isolation:isolate"
         id="polygon74" />
      <polygon
         points="192.18,419.18 192.99,294.24 186.36,294.24 187.18,419.18 "
         style="fill:#263238"
         id="polygon75" />
      <polygon
         points="186.49,314.6 187.18,419.18 192.17,419.18 192.86,314.6 192.99,294.44 186.36,294.44 "
         style="opacity:0.1;isolation:isolate;fill:#ffffff"
         id="polygon76" />
      <polygon
         points="186.49,314.83 192.86,314.83 192.99,294.44 186.36,294.44 "
         style="opacity:0.2;isolation:isolate"
         id="polygon77" />
      <polygon
         points="139.15,419.18 148.12,294.24 141.5,294.24 134.15,419.18 "
         style="fill:#263238"
         id="polygon78" />
      <polygon
         points="139.15,419.18 147.68,300.45 148.12,294.44 141.5,294.44 141.14,300.45 134.15,419.18 "
         style="opacity:0.1;isolation:isolate;fill:#ffffff"
         id="polygon79" />
      <polygon
         points="147.68,300.15 148.12,294.44 141.5,294.44 141.14,300.15 "
         style="opacity:0.2;isolation:isolate"
         id="polygon80" />
      <polygon
         points="285.97,419.18 278.63,294.24 272,294.24 280.97,419.18 "
         style="fill:#263238"
         id="polygon81" />
      <polygon
         points="272.44,300.45 280.98,419.18 285.97,419.18 278.99,300.45 278.63,294.44 272,294.44 "
         style="opacity:0.1;isolation:isolate;fill:#ffffff"
         id="polygon82" />
      <polygon
         points="272,294.44 272.44,300.15 278.99,300.15 278.63,294.44 "
         style="opacity:0.2;isolation:isolate"
         id="polygon83" />
      <path
         d="m 138.4,291.11 h 143.32 a 2.16,2.16 0 0 1 2.16,2.16 v 4.1 H 136.24 v -4.1 a 2.16,2.16 0 0 1 2.16,-2.16 z"
         transform="rotate(180,210.06,294.24)"
         style="fill:#2117fb"
         id="path83" />
      <path
         d="m 138.4,291.11 h 143.32 a 2.16,2.16 0 0 1 2.16,2.16 v 4.1 H 136.24 v -4.1 a 2.16,2.16 0 0 1 2.16,-2.16 z"
         transform="rotate(180,210.06,294.24)"
         style="opacity:0.4;isolation:isolate;fill:#ffffff"
         id="path84" />
      <rect
         x="136.24001"
         y="291.10999"
         width="147.64"
         height="3.1300001"
         transform="rotate(180,210.06,292.675)"
         style="opacity:0.2;isolation:isolate"
         id="rect84" />
      <path
         d="M 133.15,291.93 H 287 a 1.76,1.76 0 0 0 1.77,-1.76 v 0 A 1.77,1.77 0 0 0 287,288.4 H 133.15 a 1.77,1.77 0 0 0 -1.77,1.77 v 0 a 1.76,1.76 0 0 0 1.77,1.76 z"
         style="fill:#2117fb"
         id="path85" />
      <path
         d="M 133.15,291.93 H 287 a 1.76,1.76 0 0 0 1.77,-1.76 v 0 A 1.77,1.77 0 0 0 287,288.4 H 133.15 a 1.77,1.77 0 0 0 -1.77,1.77 v 0 a 1.76,1.76 0 0 0 1.77,1.76 z"
         style="opacity:0.4;isolation:isolate;fill:#ffffff"
         id="path86" />
    </g>
    <g
       id="freepik--Character--inject-36">
      <g
         id="freepik--group--inject-36">
        <path
           d="m 144.82,281.88 7,1 a 26.54,26.54 0 0 1 4.88,-1 31.82,31.82 0 0 1 5.41,0 c 0,0 3.16,1.18 3.16,4.22 0,0 -7.38,2 -10.22,0.79 l -10.22,-0.79 z"
           style="fill:#ebb376"
           id="path87" />
        <path
           d="m 128.24,255.22 c 4.35,4.5 7.31,21.91 8.1,23.1 0.79,1.19 15.83,3.36 15.83,3.36 0,0 1.58,3.28 0,6 0,0 -18.63,-0.85 -20.89,-2 -2.26,-1.15 -7.8,-14.18 -7.8,-14.18 a 26.3,26.3 0 0 1 0.73,-9 c 1.26,-5.5 4.03,-7.28 4.03,-7.28 z"
           style="fill:#2117fb"
           id="path88" />
        <path
           d="m 128.24,255.22 c 4.35,4.5 7.31,21.91 8.1,23.1 0.79,1.19 15.83,3.36 15.83,3.36 0,0 1.58,3.28 0,6 0,0 -18.63,-0.85 -20.89,-2 -2.26,-1.15 -7.8,-14.18 -7.8,-14.18 a 26.3,26.3 0 0 1 0.73,-9 c 1.26,-5.5 4.03,-7.28 4.03,-7.28 z"
           style="opacity:0.6;fill:#ffffff"
           id="path89" />
        <path
           d="m 169.24,282.6 7,1 a 27.3,27.3 0 0 1 4.88,-1 33,33 0 0 1 5.41,0 c 0,0 3.17,1.19 3.17,4.22 0,0 -7.39,2 -10.22,0.8 l -10.22,-0.8 z"
           style="fill:#ebb376"
           id="path90" />
        <rect
           x="151.69"
           y="229.46001"
           width="4"
           height="4"
           rx="0.68000001"
           transform="rotate(180,153.695,231.465)"
           style="fill:none;stroke:#263238;stroke-width:0.5px;stroke-miterlimit:10"
           id="rect90" />
        <path
           d="m 152.62,240.29 a 7.63,7.63 0 0 1 -0.47,1 9.88,9.88 0 0 1 -4.26,4.07 9.67,9.67 0 0 1 -1.41,0.57 9,9 0 0 1 -7.69,-0.93 9.11,9.11 0 0 1 -2.58,-2.5 c -2.94,-4.16 -2.16,-8.26 -1.39,-15.3 a 9.69,9.69 0 0 1 14.78,-7.34 c 6.4,3.88 5.58,14.41 3.02,20.43 z"
           style="fill:#ebb376"
           id="path91" />
        <path
           d="m 147.89,245.31 a 9.67,9.67 0 0 1 -1.41,0.57 9,9 0 0 1 -7.69,-0.93 10.64,10.64 0 0 1 1.64,-2.16 13.92,13.92 0 0 1 7.46,2.52 z"
           style="opacity:0.2;isolation:isolate"
           id="path92" />
        <path
           d="m 128.42,251.75 c 2.92,3.69 15.46,4.2 15.46,4.2 0,0 5.49,-0.56 4.66,-2.38 -3,-1 -4.27,-2.72 -4.58,-4.67 a 9.06,9.06 0 0 1 0.28,-3.59 19.38,19.38 0 0 1 0.58,-1.93 l -9.12,-9.44 c 3.09,11.06 -3.3,14.68 -7.28,17.81 z"
           style="fill:#ebb376"
           id="path93" />
        <path
           d="m 152.8,219.14 c -2.65,-3.49 -4.68,-2.67 -4.68,-2.67 -1.76,-3 -10.56,-2.36 -14.77,1 -4.21,3.36 -5.3,9.24 -4.63,13.73 1,6.55 5.65,12.91 5.65,12.91 v 0 c 5.31,1 9.57,-0.54 9.68,-3.32 0.11,-2.78 2.71,-5 2.71,-5 2.63,0.65 4.71,-2.39 4.71,-2.39 0,0 2.69,-2.8 1.62,-6.28 -1.07,-3.48 1.91,-5.03 -0.29,-7.98 z"
           style="fill:#263238"
           id="path94" />
        <path
           d="m 145.7,234.05 a 4.55,4.55 0 0 0 1.8,3.48 c 1.32,0.84 2.59,-1 2.73,-3.13 0.11,-1.89 -0.41,-4.67 -2,-4.58 -1.59,0.09 -2.72,2.27 -2.53,4.23 z"
           style="fill:#ebb376"
           id="path95" />
        <path
           d="m 150.24,233.78 c 0,0 -0.21,6 -1.62,8.54 -1.41,2.54 -1.15,3.3 -3.32,3.86 0,0 1.38,1.55 2.47,1.22 1.09,-0.33 0.77,-1.26 1.76,-1.32 0.99,-0.06 2.63,-0.89 2.37,-1.9 -0.26,-1.01 -0.48,-1.27 0.75,-2.26 1.23,-0.99 1.53,-3 0.75,-3.78 a 2.36,2.36 0 0 0 -2.09,-0.4 l -0.27,-4.45 z"
           style="fill:#263238"
           id="path96" />
        <path
           d="m 148.29,254.34 c 0,0 -2.11,-9.48 -14.83,-9.39 l -3.24,4.69 z"
           style="fill:#2117fb"
           id="path97" />
        <path
           d="m 148.29,254.34 c 0,0 -2.11,-9.48 -14.83,-9.39 l -3.24,4.69 z"
           style="opacity:0.8;fill:#ffffff"
           id="path98" />
        <polygon
           points="133.22,412.01 136.86,395.15 129.56,395.03 125.91,411.88 "
           style="fill:#ebb376"
           id="polygon98" />
        <polygon
           points="136.86,395.16 134.78,404.8 127.54,404.31 129.56,395.03 "
           style="opacity:0.2;isolation:isolate"
           id="polygon99" />
        <path
           d="m 149.4,370.62 a 229.32,229.32 0 0 1 -10.65,31.43 l -13.34,-1 c 0,0 5.47,-21.38 7.46,-41 1.22,-12.05 1.13,-22.05 -2.42,-22.82 -2.23,-0.49 -7.44,-0.47 -14.11,-0.32 V 312 c 18.73,3.84 37.36,11.1 38.78,16.92 1.98,8.23 -1.48,25.57 -5.72,41.7 z"
           style="fill:#2117fb"
           id="path99" />
        <polygon
           points="139.88,402.71 142.21,395.85 124.72,395.03 124,401.66 "
           style="fill:#2117fb"
           id="polygon100" />
        <polygon
           points="139.88,402.71 142.21,395.85 124.72,395.03 124,401.66 "
           style="opacity:0.2;fill:#ffffff"
           id="polygon101" />
        <path
           d="m 134.32,411.64 h 0.15 c 0,0 0.16,0 0.18,0.07 v 0 a 0.06,0.06 0 0 0 0.06,0 8.84,8.84 0 0 0 1.91,0.37 2,2 0 0 0 1.39,-0.27 0.9,0.9 0 0 0 0.26,-0.93 0.63,0.63 0 0 0 -0.36,-0.51 3,3 0 0 0 -2,0.37 2.58,2.58 0 0 0 0.72,-1.67 0.69,0.69 0 0 0 -0.62,-0.55 1.07,1.07 0 0 0 -0.81,0.19 c -0.76,0.66 -0.88,2.72 -0.88,2.85 z m 0.78,-0.42 -0.15,0.09 a 3.7,3.7 0 0 1 0.62,-2.24 0.5,0.5 0 0 1 0.37,-0.13 H 136 c 0.24,0 0.3,0.17 0.31,0.27 a 3.45,3.45 0 0 1 -1.21,2.01 z m 0.1,0.36 c 0.89,-0.48 2.14,-1 2.6,-0.8 a 0.31,0.31 0 0 1 0.18,0.25 0.66,0.66 0 0 1 -0.16,0.6 c -0.37,0.31 -1.33,0.29 -2.62,-0.05 z"
           style="fill:#2117fb"
           id="path101" />
        <path
           d="m 134.14,410.75 -8.18,-0.51 a 0.52,0.52 0 0 0 -0.57,0.46 v 0 l -0.81,6.46 a 1.29,1.29 0 0 0 1.2,1.36 c 2.85,0.13 4.22,0.06 7.83,0.25 a 68.76,68.76 0 0 0 9.61,0.31 c 3.05,-0.3 2.68,-3.3 1.36,-3.45 -3.12,-0.35 -7.26,-2.65 -9.21,-4.39 a 2.07,2.07 0 0 0 -1.23,-0.49 z"
           style="fill:#263238"
           id="path102" />
        <path
           d="m 149.4,370.62 c -5,-3.16 -10.81,-6.87 -16.53,-10.53 1.22,-12.09 1.13,-22.09 -2.42,-22.86 -2.23,-0.49 -7.44,-0.47 -14.11,-0.32 V 312 c 18.73,3.84 37.36,11.1 38.78,16.92 1.98,8.23 -1.48,25.57 -5.72,41.7 z"
           style="opacity:0.2;isolation:isolate"
           id="path103" />
        <path
           d="m 142.37,304.63 2.31,-11.41 a 130.79,130.79 0 0 1 8,-37.27 c 0,0 -10.92,-8.28 -22.41,-8.14 -9.2,0.1 -20.69,26.22 -27,53.68 z"
           style="fill:#2117fb"
           id="path104" />
        <path
           d="m 142.37,304.63 2.31,-11.41 a 130.79,130.79 0 0 1 8,-37.27 c 0,0 -10.92,-8.28 -22.41,-8.14 -9.2,0.1 -20.69,26.22 -27,53.68 z"
           style="opacity:0.9;fill:#ffffff"
           id="path105" />
        <path
           d="m 152.65,256 c 4.35,4.5 7.32,21.91 8.11,23.09 0.79,1.18 15.82,3.37 15.82,3.37 0,0 1.58,3.28 0,6 0,0 -18.63,-0.85 -20.88,-2 -2.25,-1.15 -7.81,-14.18 -7.81,-14.18 a 26.63,26.63 0 0 1 0.73,-9 c 1.26,-5.6 4.03,-7.28 4.03,-7.28 z"
           style="fill:#2117fb"
           id="path106" />
        <path
           d="m 152.65,256 c 4.35,4.5 7.32,21.91 8.11,23.09 0.79,1.18 15.82,3.37 15.82,3.37 0,0 1.58,3.28 0,6 0,0 -18.63,-0.85 -20.88,-2 -2.25,-1.15 -7.81,-14.18 -7.81,-14.18 a 26.63,26.63 0 0 1 0.73,-9 c 1.26,-5.6 4.03,-7.28 4.03,-7.28 z"
           style="opacity:0.8;fill:#ffffff"
           id="path107" />
        <path
           d="m 152.87,223.34 c 0,0 4.4,-3.63 -0.22,-8.78 -4.62,-5.15 -8.23,-4.88 -8.33,-4.09 -0.1,0.79 2.66,1.32 2.66,2 0,0 -5.14,0.4 -6.6,-0.66 -1.46,-1.06 -5.67,-0.39 -4.48,0.4 1.19,0.79 -0.53,1.45 -2.77,1.71 -2.24,0.26 -6.33,4.09 -5.21,5.94 a 4.55,4.55 0 0 1 -1.51,5.93 c -2,1.19 -0.66,3.69 0,2.37 0.66,-1.32 1.51,-1.32 1.51,-1.32 0,0 -0.06,5.67 0,7.12 0.06,1.45 1.26,3.38 1.26,3.8 0,0.42 -0.8,-0.38 0.13,1.87 0.93,2.25 2.07,1.46 2.07,1.46 0,0 -1.48,0 0,1.72 a 3.28,3.28 0 0 0 3,1.36 c 0,0 5.07,-5.06 4.42,-11.13 -0.65,-6.07 14.07,-9.7 14.07,-9.7 z"
           style="fill:#263238"
           id="path108" />
        <polygon
           points="175.95,412.01 179.59,395.15 172.29,395.03 168.64,411.88 "
           style="fill:#ebb376"
           id="polygon108" />
        <polygon
           points="179.59,395.16 177.51,404.8 170.27,404.31 172.29,395.03 "
           style="opacity:0.2;isolation:isolate"
           id="polygon109" />
        <path
           d="m 142.1,309.59 1.17,-9.44 -38.17,-6.28 c 0,0 -12.48,24.73 -6.37,36.85 5.6,11.12 65.26,4.5 74.45,6.51 9.19,2.01 -5,63.8 -5,63.8 l 13.34,1 c 0,0 20.61,-55.6 16.37,-73.09 -1.89,-7.61 -33.34,-17.71 -55.79,-19.35 z"
           style="fill:#2117fb"
           id="path109" />
        <polygon
           points="182.61,402.71 184.94,395.85 167.45,395.03 166.73,401.66 "
           style="fill:#2117fb"
           id="polygon110" />
        <polygon
           points="182.61,402.71 184.94,395.85 167.45,395.03 166.73,401.66 "
           style="opacity:0.2;fill:#ffffff"
           id="polygon111" />
        <path
           d="m 177.05,411.64 h 0.15 c 0,0 0.16,0 0.18,0.07 0.02,0.07 0,0 0,0 a 0.09,0.09 0 0 0 0.07,0 8.64,8.64 0 0 0 1.9,0.37 1.94,1.94 0 0 0 1.39,-0.27 0.9,0.9 0 0 0 0.26,-0.81 0.63,0.63 0 0 0 -0.36,-0.51 3,3 0 0 0 -2,0.37 2.58,2.58 0 0 0 0.72,-1.67 0.69,0.69 0 0 0 -0.62,-0.55 1.07,1.07 0 0 0 -0.81,0.19 c -0.76,0.66 -0.88,2.72 -0.88,2.85 z m 0.78,-0.42 -0.15,0.09 a 3.7,3.7 0 0 1 0.62,-2.24 0.5,0.5 0 0 1 0.37,-0.13 h 0.08 c 0.24,0 0.3,0.17 0.31,0.27 a 3.45,3.45 0 0 1 -1.23,2.01 z m 0.11,0.36 c 0.88,-0.48 2.13,-1 2.59,-0.8 a 0.31,0.31 0 0 1 0.18,0.25 0.66,0.66 0 0 1 -0.16,0.6 c -0.37,0.31 -1.33,0.29 -2.61,-0.05 z"
           style="fill:#2117fb"
           id="path111" />
        <path
           d="m 176.87,410.75 -8.18,-0.51 a 0.52,0.52 0 0 0 -0.57,0.46 v 0 l -0.81,6.46 a 1.29,1.29 0 0 0 1.2,1.36 c 2.85,0.13 4.23,0.06 7.83,0.25 a 68.76,68.76 0 0 0 9.61,0.31 c 3.05,-0.3 2.68,-3.3 1.36,-3.45 -3.12,-0.35 -7.26,-2.65 -9.21,-4.39 a 2.07,2.07 0 0 0 -1.23,-0.49 z"
           style="fill:#263238"
           id="path112" />
        <polygon
           points="121.39,300.48 121.96,297.88 104.24,295.3 103.7,298.17 "
           id="polygon112" />
        <polygon
           points="123.22,300.48 139.56,302.73 139.56,300.17 123.43,297.89 "
           id="polygon113" />
        <polygon
           points="140.58,302.73 142.95,303.05 142.95,300.71 140.58,300.31 "
           id="polygon114" />
      </g>
      <path
         d="m 88.6,329.29 h 72.25 a 7.91,7.91 0 0 1 7.91,7.91 v 4.23 H 80.69 v -4.23 a 7.91,7.91 0 0 1 7.91,-7.91 z"
         style="fill:#2117fb"
         id="path114" />
      <path
         d="m 112.1,299.22 h 48.49 a 3.87,3.87 0 0 1 3.77,4.75 l -8.66,37.46 h -2 l 7.39,-32.83 a 3.88,3.88 0 0 0 -3.78,-4.73 h -44.22 z"
         style="fill:#263238"
         id="path115" />
      <path
         d="m 130.45,342.74 v 31.65 a 1.84,1.84 0 0 1 -1.84,1.84 h -7.76 a 1.84,1.84 0 0 1 -1.84,-1.84 v -31.65 z"
         style="fill:#263238"
         id="path116" />
      <path
         d="m 87.62,415.82 a 3.37,3.37 0 1 0 -3.37,3.36 3.36,3.36 0 0 0 3.37,-3.36 z"
         style="fill:#263238"
         id="path117" />
      <path
         d="m 85.93,415.82 a 1.68,1.68 0 1 0 -1.68,1.68 1.68,1.68 0 0 0 1.68,-1.68 z"
         style="opacity:0.2;fill:#ffffff"
         id="path118" />
      <path
         d="m 168.56,415.82 a 3.36,3.36 0 1 0 -3.36,3.36 3.35,3.35 0 0 0 3.36,-3.36 z"
         style="fill:#263238"
         id="path119" />
      <circle
         cx="165.2"
         cy="415.82001"
         r="1.6799999"
         style="opacity:0.2;fill:#ffffff"
         id="circle119" />
      <path
         d="m 127.51,401.07 v -36.18 h -5.57 v 36.18 c -21.66,0.55 -34.82,8.13 -37.46,9.79 a 1,1 0 0 0 -0.49,0.89 v 3 a 1.07,1.07 0 0 0 1.06,1.06 v 0 a 1.05,1.05 0 0 0 0.93,-0.54 L 87.26,413 a 121.92,121.92 0 0 1 34.68,-5.74 v 5.94 a 1.38,1.38 0 0 0 1.38,1.38 h 2.81 a 1.38,1.38 0 0 0 1.38,-1.38 v -5.94 a 121.92,121.92 0 0 1 34.68,5.74 l 1.29,2.25 a 1,1 0 0 0 0.92,0.54 v 0 a 1.06,1.06 0 0 0 1.06,-1.06 v -3 a 1,1 0 0 0 -0.49,-0.89 c -2.63,-1.64 -15.8,-9.22 -37.46,-9.77 z"
         style="fill:#263238"
         id="path120" />
      <rect
         x="122.9"
         y="412.45999"
         width="3.6500001"
         height="6.73"
         style="fill:#263238"
         id="rect120" />
      <rect
         x="119.01"
         y="342.73999"
         width="11.44"
         height="13.15"
         style="opacity:0.2;isolation:isolate"
         id="rect121" />
      <path
         d="m 171.17,339.48 v 3.78 a 1.93,1.93 0 0 1 -1.94,1.93 h -89 a 1.92,1.92 0 0 1 -1.93,-1.93 v -3.78 a 1.93,1.93 0 0 1 1.93,-1.93 h 89 a 1.94,1.94 0 0 1 1.94,1.93 z"
         style="fill:#263238"
         id="path121" />
      <path
         d="M 130.22,341.43 H 78.29 c 0,0 -16.5,-27.43 -16.5,-72.78 V 252 a 12.4,12.4 0 0 1 12.4,-12.39 h 22 a 12.39,12.39 0 0 1 12.39,12 c 0.66,23.39 4.1,73.99 21.64,89.82 z"
         style="fill:#263238"
         id="path122" />
      <path
         d="M 118.8,341.43 H 80.64 a 3.94,3.94 0 0 1 -3.51,-2.12 C 73.37,332.06 61.79,306.64 61.79,268.65 V 252 a 12.39,12.39 0 0 1 12.39,-12.39 h 19 a 12.39,12.39 0 0 1 12.39,12 c 0.57,20.87 3.38,63.47 16.48,83.61 a 4,4 0 0 1 -3.25,6.21 z"
         style="opacity:0.2;fill:#ffffff"
         id="path123" />
      <path
         d="m 171.17,339.48 v 3.78 a 1.92,1.92 0 0 1 -1.93,1.93 h -39.89 a 2.61,2.61 0 0 1 -2.61,-2.61 v -2.42 a 2.61,2.61 0 0 1 2.61,-2.61 h 39.88 a 1.94,1.94 0 0 1 1.94,1.93 z"
         style="opacity:0.2;isolation:isolate"
         id="path124" />
    </g>
  </g>
</svg>
