<svg width="100" height="100" viewBox="0 0 100 100" fill="none" xmlns="http://www.w3.org/2000/svg">
<rect width="100" height="100" rx="32.142857" fill="white"/>
<path d="m 19.047619,60.448214 v -16.40744 c 0,-2.972381 2.63631,-5.350298 5.858512,-5.350298 h 15.134405 c 1.887738,0 2.799047,0.416131 3.742916,1.753691 l 4.035893,5.588095 c 1.366965,1.902321 4.426429,1.902321 5.760834,0 l 4.035833,-5.588095 c 0.943869,-1.307857 1.887738,-1.753691 3.742917,-1.753691 h 13.735119 c 3.254762,0 5.858333,2.407619 5.858333,5.350298 v 12.51369 c 0,2.972322 -2.63631,5.350298 -5.858333,5.350298 h -9.894643 c -3.254762,0 -5.858334,-2.407619 -5.858334,-5.350298 0,-3.121012 -4.458988,-4.339643 -6.346726,-1.723988 l -3.482559,4.874881 c -1.204226,1.664286 -2.310834,2.199405 -4.751905,2.199405 h -6.607083 c -2.473572,0 -3.547619,-0.535119 -4.751846,-2.199405 L 29.853274,54.771071 C 27.965536,52.155357 23.506607,53.374048 23.506607,56.495 v 3.953214 c 0,1.070238 -0.423155,1.456548 -1.594821,1.456548 H 20.675 c -1.171726,0 -1.594821,-0.38631 -1.594821,-1.456548 z" fill="#2117FB"/>
</svg>
