<svg width="375" height="85" viewBox="0 0 375 85" fill="none" xmlns="http://www.w3.org/2000/svg">
<g filter="url(#filter0_d_1_10000)">
<rect y="19" width="375" height="66" fill="white"/>
</g>
<path d="M59.5 44C59.5 45.933 57.933 47.5 56 47.5C54.067 47.5 52.5 45.933 52.5 44C52.5 42.067 54.067 40.5 56 40.5C57.933 40.5 59.5 42.067 59.5 44Z" stroke="#656E81" stroke-width="2"/>
<path d="M65.011 46.0968C65.5329 45.9561 65.7939 45.8857 65.8969 45.7511C66 45.6166 66 45.4001 66 44.9672V43.0335C66 42.6006 66 42.3841 65.8969 42.2496C65.7938 42.115 65.5329 42.0446 65.011 41.9039C63.0606 41.3779 61.8399 39.3388 62.3433 37.4012C62.4817 36.8683 62.5509 36.6019 62.4848 36.4456C62.4187 36.2893 62.2291 36.1817 61.8497 35.9663L60.125 34.987C59.7528 34.7757 59.5667 34.67 59.3997 34.6925C59.2326 34.715 59.0442 34.903 58.6672 35.279C57.208 36.7348 54.7936 36.7347 53.3343 35.279C52.9574 34.9029 52.769 34.7149 52.6019 34.6924C52.4349 34.6699 52.2488 34.7756 51.8765 34.9869L50.1518 35.9662C49.7725 36.1815 49.5829 36.2892 49.5168 36.4455C49.4507 36.6017 49.5199 36.8682 49.6582 37.4011C50.1614 39.3388 48.9397 41.3779 46.989 41.9039C46.4671 42.0446 46.2062 42.115 46.1031 42.2495C46 42.3841 46 42.6006 46 43.0335V44.9672C46 45.4001 46 45.6166 46.1031 45.7511C46.2062 45.8857 46.4671 45.9561 46.989 46.0968C48.9394 46.6228 50.1601 48.6619 49.6567 50.5995C49.5183 51.1324 49.4491 51.3988 49.5152 51.5551C49.5813 51.7114 49.7709 51.8191 50.1502 52.0344L51.8749 53.0137C52.2472 53.225 52.4333 53.3307 52.6004 53.3082C52.7675 53.2857 52.9559 53.0976 53.3327 52.7216C54.7927 51.2647 57.2088 51.2646 58.6689 52.7215C59.0457 53.0976 59.2341 53.2856 59.4012 53.3081C59.5682 53.3306 59.7544 53.2249 60.1266 53.0136L61.8513 52.0343C62.2307 51.819 62.4204 51.7113 62.4864 51.555C62.5525 51.3987 62.4833 51.1323 62.3448 50.5994C61.8412 48.6619 63.0609 46.6229 65.011 46.0968Z" stroke="#656E81" stroke-width="2" stroke-linecap="round"/>
<path d="M41.0044 69.12C40.2844 69.12 39.6777 69.08 39.1844 69C38.6977 68.9267 38.301 68.8033 37.9944 68.63C37.6944 68.45 37.4777 68.2167 37.3444 67.93C37.211 67.6433 37.1444 67.2933 37.1444 66.88C37.1444 66.6133 37.1777 66.3267 37.2444 66.02C37.3177 65.7067 37.421 65.39 37.5544 65.07L38.4144 65.32C38.2944 65.5667 38.201 65.8 38.1344 66.02C38.0677 66.24 38.0344 66.4367 38.0344 66.61C38.0344 66.81 38.0744 66.98 38.1544 67.12C38.241 67.2533 38.3777 67.3633 38.5644 67.45C38.751 67.53 38.991 67.59 39.2844 67.63C39.5844 67.67 39.9477 67.69 40.3744 67.69H41.7744C42.221 67.69 42.5944 67.68 42.8944 67.66C43.201 67.6333 43.4477 67.5933 43.6344 67.54C43.821 67.4867 43.951 67.4167 44.0244 67.33C44.1044 67.2367 44.1444 67.1233 44.1444 66.99C44.1444 66.89 44.1344 66.76 44.1144 66.6C44.101 66.4333 44.071 66.22 44.0244 65.96L43.8544 65.06L44.8344 64.9L44.9744 65.8C45.0077 66.02 45.0344 66.2367 45.0544 66.45C45.081 66.6567 45.0944 66.8367 45.0944 66.99C45.0944 67.41 45.031 67.7567 44.9044 68.03C44.7777 68.3033 44.5577 68.52 44.2444 68.68C43.9377 68.84 43.521 68.9533 42.9944 69.02C42.4677 69.0867 41.8044 69.12 41.0044 69.12ZM41.7244 65.35C41.5644 65.35 41.431 65.3033 41.3244 65.21C41.2244 65.11 41.1744 64.9533 41.1744 64.74C41.1744 64.52 41.2244 64.3633 41.3244 64.27C41.431 64.17 41.5644 64.12 41.7244 64.12H41.8944C42.0544 64.12 42.1844 64.17 42.2844 64.27C42.391 64.3633 42.4444 64.52 42.4444 64.74C42.4444 64.9533 42.391 65.11 42.2844 65.21C42.1844 65.3033 42.0544 65.35 41.8944 65.35H41.7244ZM40.2344 65.35C40.0744 65.35 39.941 65.3033 39.8344 65.21C39.7344 65.11 39.6844 64.9533 39.6844 64.74C39.6844 64.52 39.7344 64.3633 39.8344 64.27C39.941 64.17 40.0744 64.12 40.2344 64.12H40.4044C40.5644 64.12 40.6944 64.17 40.7944 64.27C40.901 64.3633 40.9544 64.52 40.9544 64.74C40.9544 64.9533 40.901 65.11 40.7944 65.21C40.6944 65.3033 40.5644 65.35 40.4044 65.35H40.2344ZM46.0755 61.6H47.1455V69H46.0755V61.6ZM49.3491 69C48.9491 69 48.6391 68.8967 48.4191 68.69C48.1991 68.4767 48.0891 68.15 48.0891 67.71V67.01H49.1091V67.69H50.6691C50.9491 67.69 51.1424 67.6367 51.2491 67.53C51.3624 67.4233 51.4191 67.2767 51.4191 67.09C51.4191 66.91 51.3391 66.7133 51.1791 66.5C51.0191 66.28 50.7491 65.9867 50.3691 65.62L49.3591 64.63L50.2691 63.67L51.1391 64.57C51.3724 64.81 51.5691 65.0367 51.7291 65.25C51.8891 65.4567 52.0191 65.66 52.1191 65.86C52.2191 66.06 52.2891 66.2633 52.3291 66.47C52.3757 66.67 52.3991 66.8833 52.3991 67.11C52.3991 67.7033 52.2391 68.1667 51.9191 68.5C51.6057 68.8333 51.1557 69 50.5691 69H49.3491ZM53.4095 61.6H54.4795V69H53.4095V61.6ZM56.683 69C56.283 69 55.973 68.8967 55.753 68.69C55.533 68.4767 55.423 68.15 55.423 67.71V67.01H56.443V67.69H57.803C58.0964 67.69 58.2997 67.66 58.413 67.6C58.533 67.5333 58.593 67.42 58.593 67.26C58.593 67.1867 58.5764 67.0967 58.543 66.99C58.5164 66.8833 58.4764 66.7633 58.423 66.63L57.523 64.07L58.633 63.67L59.643 66.54C59.723 66.7733 59.7997 66.9633 59.873 67.11C59.953 67.2567 60.033 67.3733 60.113 67.46C60.193 67.5467 60.2797 67.6067 60.373 67.64C60.473 67.6733 60.583 67.69 60.703 67.69H60.993V68.73L60.723 69C60.4697 69 60.2497 68.98 60.063 68.94C59.8764 68.9 59.7097 68.8333 59.563 68.74C59.4164 68.6467 59.283 68.5233 59.163 68.37C59.0497 68.21 58.9397 68.01 58.833 67.77L58.793 67.78C58.7197 68.22 58.5797 68.5333 58.373 68.72C58.173 68.9067 57.8597 69 57.433 69H56.683ZM60.7222 67.96L60.9922 67.69H61.9322V67.64C61.7655 67.46 61.6322 67.2467 61.5322 67C61.4322 66.7533 61.3822 66.49 61.3822 66.21C61.3822 65.89 61.4355 65.5933 61.5422 65.32C61.6555 65.04 61.8089 64.8 62.0022 64.6C62.2022 64.3933 62.4322 64.2333 62.6922 64.12C62.9589 64 63.2455 63.94 63.5522 63.94C64.0455 63.94 64.4522 64.04 64.7722 64.24C65.0989 64.44 65.3689 64.72 65.5822 65.08L64.6822 65.92C64.5289 65.6867 64.3522 65.52 64.1522 65.42C63.9589 65.3133 63.7322 65.26 63.4722 65.26C63.0989 65.26 62.8089 65.3433 62.6022 65.51C62.3955 65.6767 62.2922 65.91 62.2922 66.21C62.2922 66.5567 62.4389 66.8333 62.7322 67.04C63.0255 67.24 63.4222 67.34 63.9222 67.34C64.0889 67.34 64.2622 67.33 64.4422 67.31C64.6222 67.2833 64.7922 67.2467 64.9522 67.2L65.8722 66.95L66.2022 68.13L64.7822 68.56C64.4822 68.6467 64.1955 68.72 63.9222 68.78C63.6555 68.8333 63.3689 68.8767 63.0622 68.91C62.7622 68.9433 62.4222 68.9667 62.0422 68.98C61.6689 68.9933 61.2289 69 60.7222 69V67.96ZM66.9019 67.7L68.6719 66.07L66.2719 63.67L67.0519 62.87L69.4919 65.31C69.6585 65.1433 69.7719 64.9767 69.8319 64.81C69.8985 64.6367 69.9319 64.4033 69.9319 64.11V61.6H70.9919V64.11C70.9919 64.31 70.9752 64.49 70.9419 64.65C70.9152 64.8033 70.8685 64.9533 70.8019 65.1C70.7352 65.24 70.6452 65.3767 70.5319 65.51C70.4185 65.6433 70.2785 65.7833 70.1119 65.93L70.5519 66.36C70.6852 66.4933 70.7952 66.6167 70.8819 66.73C70.9752 66.8433 71.0485 66.9567 71.1019 67.07C71.1619 67.1767 71.2019 67.2867 71.2219 67.4C71.2485 67.5133 71.2619 67.6333 71.2619 67.76C71.2619 67.9333 71.2319 68.0967 71.1719 68.25C71.1119 68.3967 71.0252 68.5267 70.9119 68.64C70.8052 68.7533 70.6752 68.8433 70.5219 68.91C70.3685 68.97 70.1985 69 70.0119 69H66.9019V67.7ZM69.2719 66.66L68.1419 67.65L68.1519 67.69H70.3119L69.2719 66.66ZM72.2865 61.6H73.3565V69H72.2865V61.6Z" fill="#656E81"/>
<path d="M130.782 69.12C130.062 69.12 129.455 69.08 128.962 69C128.475 68.9267 128.078 68.8033 127.772 68.63C127.472 68.45 127.255 68.2167 127.122 67.93C126.988 67.6433 126.922 67.2933 126.922 66.88C126.922 66.6133 126.955 66.3267 127.022 66.02C127.095 65.7067 127.198 65.39 127.332 65.07L128.192 65.32C128.072 65.5667 127.978 65.8 127.912 66.02C127.845 66.24 127.812 66.4367 127.812 66.61C127.812 66.81 127.852 66.98 127.932 67.12C128.018 67.2533 128.155 67.3633 128.342 67.45C128.528 67.53 128.768 67.59 129.062 67.63C129.362 67.67 129.725 67.69 130.152 67.69H131.552C131.998 67.69 132.372 67.68 132.672 67.66C132.978 67.6333 133.225 67.5933 133.412 67.54C133.598 67.4867 133.728 67.4167 133.802 67.33C133.882 67.2367 133.922 67.1233 133.922 66.99C133.922 66.89 133.912 66.76 133.892 66.6C133.878 66.4333 133.848 66.22 133.802 65.96L133.632 65.06L134.612 64.9L134.752 65.8C134.785 66.02 134.812 66.2367 134.832 66.45C134.858 66.6567 134.872 66.8367 134.872 66.99C134.872 67.41 134.808 67.7567 134.682 68.03C134.555 68.3033 134.335 68.52 134.022 68.68C133.715 68.84 133.298 68.9533 132.772 69.02C132.245 69.0867 131.582 69.12 130.782 69.12ZM131.502 65.35C131.342 65.35 131.208 65.3033 131.102 65.21C131.002 65.11 130.952 64.9533 130.952 64.74C130.952 64.52 131.002 64.3633 131.102 64.27C131.208 64.17 131.342 64.12 131.502 64.12H131.672C131.832 64.12 131.962 64.17 132.062 64.27C132.168 64.3633 132.222 64.52 132.222 64.74C132.222 64.9533 132.168 65.11 132.062 65.21C131.962 65.3033 131.832 65.35 131.672 65.35H131.502ZM130.012 65.35C129.852 65.35 129.718 65.3033 129.612 65.21C129.512 65.11 129.462 64.9533 129.462 64.74C129.462 64.52 129.512 64.3633 129.612 64.27C129.718 64.17 129.852 64.12 130.012 64.12H130.182C130.342 64.12 130.472 64.17 130.572 64.27C130.678 64.3633 130.732 64.52 130.732 64.74C130.732 64.9533 130.678 65.11 130.572 65.21C130.472 65.3033 130.342 65.35 130.182 65.35H130.012ZM135.853 61.6H136.923V69H135.853V61.6ZM136.966 70.09H137.356C137.996 70.09 138.453 69.9433 138.726 69.65C139 69.3633 139.133 68.9433 139.126 68.39C139.126 68.2233 139.116 68.05 139.096 67.87C139.076 67.6833 139.05 67.4933 139.016 67.3L138.806 66.03L139.776 65.87L139.926 66.75C139.98 67.07 140.02 67.3667 140.046 67.64C140.073 67.9133 140.086 68.1533 140.086 68.36C140.086 68.8067 140.033 69.2133 139.926 69.58C139.82 69.9533 139.653 70.2733 139.426 70.54C139.206 70.8133 138.923 71.0233 138.576 71.17C138.236 71.3233 137.833 71.4 137.366 71.4H136.966V70.09ZM140.767 70.09H141.377C142.05 70.09 142.58 69.9933 142.967 69.8C143.36 69.6067 143.627 69.34 143.767 69H142.577C142.037 69 141.617 68.8467 141.317 68.54C141.017 68.2333 140.867 67.8067 140.867 67.26C140.867 66.9267 140.917 66.6167 141.017 66.33C141.117 66.0433 141.254 65.7933 141.427 65.58C141.607 65.3667 141.817 65.2 142.057 65.08C142.304 64.96 142.567 64.9 142.847 64.9C143.44 64.9 143.91 65.1467 144.257 65.64C144.604 66.1267 144.787 66.81 144.807 67.69H145.297V68.73L145.027 69H144.687C144.514 69.7667 144.157 70.3567 143.617 70.77C143.077 71.19 142.354 71.4 141.447 71.4H140.767V70.09ZM141.777 67.09C141.777 67.3033 141.85 67.4567 141.997 67.55C142.15 67.6433 142.367 67.69 142.647 67.69H143.887V67.58C143.887 67.16 143.78 66.8267 143.567 66.58C143.354 66.3333 143.077 66.21 142.737 66.21C142.457 66.21 142.227 66.2933 142.047 66.46C141.867 66.6267 141.777 66.8367 141.777 67.09ZM145.031 67.96L145.301 67.69H145.411C145.711 67.69 145.937 67.65 146.091 67.57C146.244 67.4833 146.377 67.3233 146.491 67.09L146.891 66.27L147.761 66.69L147.341 67.52C147.527 67.6133 147.714 67.6867 147.901 67.74C148.087 67.7933 148.274 67.82 148.461 67.82C148.754 67.82 148.967 67.7567 149.101 67.63C149.234 67.4967 149.301 67.2667 149.301 66.94V66.27H150.281V66.94C150.281 67.24 150.324 67.4567 150.411 67.59C150.504 67.7233 150.657 67.79 150.871 67.79H151.011C151.204 67.79 151.351 67.7233 151.451 67.59C151.551 67.4567 151.601 67.24 151.601 66.94V65.87H152.581V66.94C152.581 67.44 152.831 67.69 153.331 67.69H153.711V68.73L153.441 69C152.954 69 152.577 68.91 152.311 68.73C152.051 68.5433 151.884 68.25 151.811 67.85H151.751C151.711 68.29 151.594 68.6133 151.401 68.82C151.214 69.02 150.961 69.12 150.641 69.12C149.954 69.12 149.547 68.6967 149.421 67.85H149.361C149.307 68.2767 149.187 68.5967 149.001 68.81C148.814 69.0167 148.571 69.12 148.271 69.12C148.077 69.12 147.881 69.0833 147.681 69.01C147.481 68.9367 147.237 68.8133 146.951 68.64L146.711 68.5C146.517 68.7067 146.291 68.8433 146.031 68.91C145.771 68.97 145.437 69 145.031 69V67.96ZM150.451 65.35C150.297 65.35 150.167 65.3033 150.061 65.21C149.961 65.11 149.911 64.9533 149.911 64.74C149.911 64.52 149.961 64.3633 150.061 64.27C150.167 64.17 150.297 64.12 150.451 64.12H150.631C150.784 64.12 150.911 64.17 151.011 64.27C151.117 64.3633 151.171 64.52 151.171 64.74C151.171 64.9533 151.117 65.11 151.011 65.21C150.911 65.3033 150.784 65.35 150.631 65.35H150.451ZM148.961 65.35C148.801 65.35 148.667 65.3033 148.561 65.21C148.461 65.11 148.411 64.9533 148.411 64.74C148.411 64.52 148.461 64.3633 148.561 64.27C148.667 64.17 148.801 64.12 148.961 64.12H149.131C149.291 64.12 149.421 64.17 149.521 64.27C149.627 64.3633 149.681 64.52 149.681 64.74C149.681 64.9533 149.627 65.11 149.521 65.21C149.421 65.3033 149.291 65.35 149.131 65.35H148.961ZM149.711 63.97C149.551 63.97 149.421 63.9233 149.321 63.83C149.221 63.73 149.171 63.5733 149.171 63.36C149.171 63.1467 149.221 62.99 149.321 62.89C149.421 62.79 149.551 62.74 149.711 62.74H149.881C150.041 62.74 150.171 62.79 150.271 62.89C150.371 62.99 150.421 63.1467 150.421 63.36C150.421 63.5733 150.371 63.73 150.271 63.83C150.171 63.9233 150.041 63.97 149.881 63.97H149.711ZM153.439 67.96L153.709 67.69H154.019C154.566 67.69 154.839 67.44 154.839 66.94V65.47H155.819V66.94C155.819 67.44 156.069 67.69 156.569 67.69H156.949V68.73L156.679 69C156.166 69 155.772 68.9 155.499 68.7C155.226 68.5 155.042 68.1867 154.949 67.76H154.899C154.812 68.2 154.656 68.5167 154.429 68.71C154.209 68.9033 153.879 69 153.439 69V67.96ZM155.239 64.55C155.079 64.55 154.946 64.5033 154.839 64.41C154.739 64.31 154.689 64.1533 154.689 63.94C154.689 63.72 154.739 63.5633 154.839 63.47C154.946 63.37 155.079 63.32 155.239 63.32H155.409C155.569 63.32 155.699 63.37 155.799 63.47C155.906 63.5633 155.959 63.72 155.959 63.94C155.959 64.1533 155.906 64.31 155.799 64.41C155.699 64.5033 155.569 64.55 155.409 64.55H155.239ZM158.111 68.43C157.958 68.6433 157.771 68.7933 157.551 68.88C157.331 68.96 157.041 69 156.681 69V67.96L156.951 67.69C157.205 67.69 157.388 67.6433 157.501 67.55C157.615 67.4567 157.715 67.2967 157.801 67.07L158.081 66.37C158.161 66.1633 158.255 65.97 158.361 65.79C158.468 65.61 158.591 65.4567 158.731 65.33C158.871 65.1967 159.031 65.0933 159.211 65.02C159.391 64.9467 159.598 64.91 159.831 64.91C160.411 64.91 160.855 65.15 161.161 65.63C161.468 66.11 161.621 66.7733 161.621 67.62V67.97L160.781 69.22L158.111 68.43ZM158.611 67.22L160.671 67.83V67.62C160.671 67.18 160.575 66.84 160.381 66.6C160.195 66.3533 159.941 66.23 159.621 66.23C159.388 66.23 159.198 66.2933 159.051 66.42C158.905 66.5467 158.788 66.73 158.701 66.97L158.611 67.22Z" fill="#656E81"/>
<path d="M146.926 34.911L140.274 38.1045C139.762 38.3503 139.214 38.4119 138.657 38.2869C138.292 38.2052 138.109 38.1643 137.962 38.1475C136.137 37.9391 135 39.3834 135 41.0443V41.9557C135 43.6166 136.137 45.0609 137.962 44.8525C138.109 44.8357 138.292 44.7948 138.657 44.7131C139.214 44.5881 139.762 44.6497 140.274 44.8955L146.926 48.089C148.453 48.8221 149.217 49.1886 150.068 48.9029C150.92 48.6172 151.212 48.0041 151.796 46.778C153.401 43.4112 153.401 39.5888 151.796 36.222C151.212 34.9959 150.92 34.3828 150.068 34.0971C149.217 33.8114 148.453 34.1779 146.926 34.911Z" stroke="#656E81" stroke-width="2" stroke-linecap="round" stroke-linejoin="round"/>
<path d="M143.458 52.7709L141.967 54C138.605 51.3339 139.016 50.0625 139.016 45H140.15C140.61 47.8609 141.695 49.216 143.193 50.197C144.115 50.8012 144.305 52.0725 143.458 52.7709Z" stroke="#656E81" stroke-width="2" stroke-linecap="round" stroke-linejoin="round"/>
<path d="M139.5 44.5V38.5" stroke="#656E81" stroke-width="2" stroke-linecap="round" stroke-linejoin="round"/>
<path d="M227 49V45" stroke="#656E81" stroke-width="2" stroke-linecap="round"/>
<path d="M232 49V39" stroke="#656E81" stroke-width="2" stroke-linecap="round"/>
<path d="M237 49V43" stroke="#656E81" stroke-width="2" stroke-linecap="round"/>
<path d="M222.5 44C222.5 39.5217 222.5 37.2825 223.891 35.8912C225.282 34.5 227.522 34.5 232 34.5C236.478 34.5 238.718 34.5 240.109 35.8912C241.5 37.2825 241.5 39.5217 241.5 44C241.5 48.4783 241.5 50.7175 240.109 52.1088C238.718 53.5 236.478 53.5 232 53.5C227.522 53.5 225.282 53.5 223.891 52.1088C222.5 50.7175 222.5 48.4783 222.5 44Z" stroke="#656E81" stroke-width="2" stroke-linejoin="round"/>
<path d="M218.248 70.09H218.638C219.278 70.09 219.734 69.9433 220.008 69.65C220.281 69.3633 220.414 68.9433 220.408 68.39C220.408 68.2233 220.398 68.05 220.378 67.87C220.358 67.6833 220.331 67.4933 220.298 67.3L220.088 66.03L221.058 65.87L221.208 66.75C221.268 67.0833 221.308 67.3967 221.328 67.69H222.258V68.73L221.988 69H221.328C221.281 69.36 221.191 69.6867 221.058 69.98C220.924 70.2733 220.748 70.5233 220.528 70.73C220.308 70.9433 220.041 71.1067 219.728 71.22C219.414 71.34 219.054 71.4 218.648 71.4H218.248V70.09ZM221.986 67.96L222.256 67.69H222.506C222.973 67.69 223.293 67.6433 223.466 67.55C223.646 67.45 223.736 67.2733 223.736 67.02C223.736 66.9133 223.726 66.78 223.706 66.62C223.693 66.4533 223.663 66.2333 223.616 65.96L223.456 65.06L224.436 64.9L224.576 65.8C224.609 66.0267 224.636 66.25 224.656 66.47C224.676 66.6833 224.686 66.8667 224.686 67.02C224.686 67.7 224.513 68.2 224.166 68.52C223.819 68.84 223.266 69 222.506 69H221.986V67.96ZM224.416 71.1C224.256 71.1 224.123 71.05 224.016 70.95C223.916 70.8567 223.866 70.7033 223.866 70.49C223.866 70.27 223.916 70.11 224.016 70.01C224.123 69.9167 224.256 69.87 224.416 69.87H224.586C224.746 69.87 224.876 69.9167 224.976 70.01C225.083 70.11 225.136 70.27 225.136 70.49C225.136 70.7033 225.083 70.8567 224.976 70.95C224.876 71.05 224.746 71.1 224.586 71.1H224.416ZM222.926 71.1C222.766 71.1 222.633 71.05 222.526 70.95C222.426 70.8567 222.376 70.7033 222.376 70.49C222.376 70.27 222.426 70.11 222.526 70.01C222.633 69.9167 222.766 69.87 222.926 69.87H223.096C223.256 69.87 223.386 69.9167 223.486 70.01C223.593 70.11 223.646 70.27 223.646 70.49C223.646 70.7033 223.593 70.8567 223.486 70.95C223.386 71.05 223.256 71.1 223.096 71.1H222.926ZM225.552 70.09H225.942C226.582 70.09 227.039 69.9433 227.312 69.65C227.586 69.3633 227.719 68.9433 227.712 68.39C227.712 68.2233 227.702 68.05 227.682 67.87C227.662 67.6833 227.636 67.4933 227.602 67.3L227.392 66.03L228.362 65.87L228.512 66.75C228.566 67.07 228.606 67.3667 228.632 67.64C228.659 67.9133 228.672 68.1533 228.672 68.36C228.672 68.8067 228.619 69.2133 228.512 69.58C228.406 69.9533 228.239 70.2733 228.012 70.54C227.792 70.8133 227.509 71.0233 227.162 71.17C226.822 71.3233 226.419 71.4 225.952 71.4H225.552V70.09ZM231.603 69C230.943 69 230.456 68.8533 230.143 68.56C229.836 68.2667 229.683 67.78 229.683 67.1V61.6H230.753V66.96C230.753 67.2467 230.813 67.44 230.933 67.54C231.06 67.64 231.273 67.69 231.573 67.69H231.883V68.73L231.613 69H231.603ZM231.615 67.96L231.885 67.69H233.065L233.085 67.64C232.805 67.3867 232.601 67.1133 232.475 66.82C232.355 66.5267 232.295 66.2267 232.295 65.92C232.295 65.6333 232.341 65.3633 232.435 65.11C232.528 64.85 232.658 64.6267 232.825 64.44C232.998 64.2467 233.201 64.0967 233.435 63.99C233.675 63.8767 233.938 63.82 234.225 63.82C234.511 63.82 234.771 63.8767 235.005 63.99C235.238 64.0967 235.438 64.2467 235.605 64.44C235.778 64.6267 235.911 64.85 236.005 65.11C236.098 65.3633 236.145 65.6333 236.145 65.92C236.145 66.2267 236.081 66.5267 235.955 66.82C235.835 67.1133 235.635 67.3867 235.355 67.64L235.375 67.69H236.585V68.73L236.315 69H236.205C235.851 69 235.508 68.9567 235.175 68.87C234.841 68.7767 234.525 68.6233 234.225 68.41C233.925 68.6233 233.608 68.7767 233.275 68.87C232.948 68.9567 232.608 69 232.255 69H231.615V67.96ZM234.225 67.51C234.565 67.3167 234.825 67.11 235.005 66.89C235.185 66.6633 235.275 66.4033 235.275 66.11C235.275 65.81 235.178 65.5733 234.985 65.4C234.798 65.22 234.561 65.13 234.275 65.13H234.165C233.878 65.13 233.638 65.22 233.445 65.4C233.258 65.5733 233.165 65.81 233.165 66.11C233.165 66.4033 233.255 66.6633 233.435 66.89C233.621 67.11 233.885 67.3167 234.225 67.51ZM234.875 62.9C234.715 62.9 234.581 62.8533 234.475 62.76C234.375 62.66 234.325 62.5033 234.325 62.29C234.325 62.07 234.375 61.9133 234.475 61.82C234.581 61.72 234.715 61.67 234.875 61.67H235.045C235.205 61.67 235.335 61.72 235.435 61.82C235.541 61.9133 235.595 62.07 235.595 62.29C235.595 62.5033 235.541 62.66 235.435 62.76C235.335 62.8533 235.205 62.9 235.045 62.9H234.875ZM233.385 62.9C233.225 62.9 233.091 62.8533 232.985 62.76C232.885 62.66 232.835 62.5033 232.835 62.29C232.835 62.07 232.885 61.9133 232.985 61.82C233.091 61.72 233.225 61.67 233.385 61.67H233.555C233.715 61.67 233.845 61.72 233.945 61.82C234.051 61.9133 234.105 62.07 234.105 62.29C234.105 62.5033 234.051 62.66 233.945 62.76C233.845 62.8533 233.715 62.9 233.555 62.9H233.385ZM236.312 67.96L236.582 67.69H236.892C237.439 67.69 237.712 67.44 237.712 66.94V65.47H238.692V66.94C238.692 67.44 238.942 67.69 239.442 67.69H239.822V68.73L239.552 69C239.039 69 238.645 68.9 238.372 68.7C238.099 68.5 237.915 68.1867 237.822 67.76H237.772C237.685 68.2 237.529 68.5167 237.302 68.71C237.082 68.9033 236.752 69 236.312 69V67.96ZM238.852 64.55C238.692 64.55 238.559 64.5033 238.452 64.41C238.352 64.31 238.302 64.1533 238.302 63.94C238.302 63.72 238.352 63.5633 238.452 63.47C238.559 63.37 238.692 63.32 238.852 63.32H239.022C239.182 63.32 239.312 63.37 239.412 63.47C239.519 63.5633 239.572 63.72 239.572 63.94C239.572 64.1533 239.519 64.31 239.412 64.41C239.312 64.5033 239.182 64.55 239.022 64.55H238.852ZM237.362 64.55C237.202 64.55 237.069 64.5033 236.962 64.41C236.862 64.31 236.812 64.1533 236.812 63.94C236.812 63.72 236.862 63.5633 236.962 63.47C237.069 63.37 237.202 63.32 237.362 63.32H237.532C237.692 63.32 237.822 63.37 237.922 63.47C238.029 63.5633 238.082 63.72 238.082 63.94C238.082 64.1533 238.029 64.31 237.922 64.41C237.822 64.5033 237.692 64.55 237.532 64.55H237.362ZM239.554 67.96L239.824 67.69H240.224C240.491 67.69 240.674 67.6333 240.774 67.52C240.881 67.4067 240.934 67.23 240.934 66.99V61.6H241.994V66.99C241.994 67.6767 241.858 68.1833 241.584 68.51C241.318 68.83 240.864 68.9933 240.224 69H239.554V67.96ZM243.286 61.6H244.356V69H243.286V61.6Z" fill="#656E81"/>
<path d="M320 50V47" stroke="#2117FB" stroke-width="2" stroke-linecap="round"/>
<path d="M310.351 45.2135C309.998 42.9162 309.822 41.7676 310.256 40.7494C310.69 39.7311 311.654 39.0344 313.581 37.6411L315.021 36.6C317.418 34.8667 318.617 34 320 34C321.383 34 322.582 34.8667 324.979 36.6L326.419 37.6411C328.346 39.0344 329.31 39.7311 329.744 40.7494C330.178 41.7676 330.002 42.9162 329.649 45.2135L329.348 47.1724C328.847 50.4289 328.597 52.0572 327.429 53.0286C326.261 54 324.554 54 321.139 54H318.861C315.446 54 313.739 54 312.571 53.0286C311.403 52.0572 311.153 50.4289 310.652 47.1724L310.351 45.2135Z" stroke="#2117FB" stroke-width="2" stroke-linejoin="round"/>
<path d="M309.474 69C308.867 68.9933 308.427 68.8567 308.154 68.59C307.887 68.3233 307.754 67.93 307.754 67.41V67.33H307.694C307.594 67.75 307.44 68.0467 307.234 68.22C307.034 68.3867 306.744 68.47 306.364 68.47C305.897 68.47 305.54 68.3467 305.294 68.1C305.054 67.8467 304.934 67.49 304.934 67.03C304.934 66.53 305.077 66.1167 305.364 65.79C305.657 65.4633 306.074 65.16 306.614 64.88L307.704 64.32V63.78H308.754V67.1C308.754 67.32 308.804 67.4733 308.904 67.56C309.01 67.6467 309.187 67.69 309.434 67.69H309.744V68.73L309.474 69ZM306.644 67.16C307.037 67.16 307.31 67.1167 307.464 67.03C307.624 66.9433 307.704 66.79 307.704 66.57V65.29L306.884 65.7C306.524 65.8733 306.26 66.0267 306.094 66.16C305.927 66.2933 305.844 66.46 305.844 66.66C305.844 66.84 305.9 66.97 306.014 67.05C306.134 67.1233 306.344 67.16 306.644 67.16ZM308.154 62.97C307.994 62.97 307.86 62.9233 307.754 62.83C307.654 62.73 307.604 62.5733 307.604 62.36C307.604 62.14 307.654 61.9833 307.754 61.89C307.86 61.79 307.994 61.74 308.154 61.74H308.324C308.484 61.74 308.614 61.79 308.714 61.89C308.82 61.9833 308.874 62.14 308.874 62.36C308.874 62.5733 308.82 62.73 308.714 62.83C308.614 62.9233 308.484 62.97 308.324 62.97H308.154ZM306.664 62.97C306.504 62.97 306.37 62.9233 306.264 62.83C306.164 62.73 306.114 62.5733 306.114 62.36C306.114 62.14 306.164 61.9833 306.264 61.89C306.37 61.79 306.504 61.74 306.664 61.74H306.834C306.994 61.74 307.124 61.79 307.224 61.89C307.33 61.9833 307.384 62.14 307.384 62.36C307.384 62.5733 307.33 62.73 307.224 62.83C307.124 62.9233 306.994 62.97 306.834 62.97H306.664ZM309.47 67.96L309.74 67.69H310.05C310.597 67.69 310.87 67.44 310.87 66.94V65.47H311.85V66.94C311.85 67.44 312.1 67.69 312.6 67.69H312.98V68.73L312.71 69C312.197 69 311.804 68.9 311.53 68.7C311.257 68.5 311.074 68.1867 310.98 67.76H310.93C310.844 68.2 310.687 68.5167 310.46 68.71C310.24 68.9033 309.91 69 309.47 69V67.96ZM312.02 71.1C311.86 71.1 311.727 71.05 311.62 70.95C311.52 70.8567 311.47 70.7033 311.47 70.49C311.47 70.27 311.52 70.11 311.62 70.01C311.727 69.9167 311.86 69.87 312.02 69.87H312.19C312.35 69.87 312.48 69.9167 312.58 70.01C312.687 70.11 312.74 70.27 312.74 70.49C312.74 70.7033 312.687 70.8567 312.58 70.95C312.48 71.05 312.35 71.1 312.19 71.1H312.02ZM310.53 71.1C310.37 71.1 310.237 71.05 310.13 70.95C310.03 70.8567 309.98 70.7033 309.98 70.49C309.98 70.27 310.03 70.11 310.13 70.01C310.237 69.9167 310.37 69.87 310.53 69.87H310.7C310.86 69.87 310.99 69.9167 311.09 70.01C311.197 70.11 311.25 70.27 311.25 70.49C311.25 70.7033 311.197 70.8567 311.09 70.95C310.99 71.05 310.86 71.1 310.7 71.1H310.53ZM312.712 67.96L312.982 67.69H313.092C313.392 67.69 313.619 67.65 313.772 67.57C313.926 67.4833 314.059 67.3233 314.172 67.09L314.572 66.27L315.442 66.69L315.022 67.52C315.209 67.6133 315.396 67.6867 315.582 67.74C315.769 67.7933 315.956 67.82 316.142 67.82C316.436 67.82 316.649 67.7567 316.782 67.63C316.916 67.4967 316.982 67.2667 316.982 66.94V66.27H317.962V66.94C317.962 67.24 318.006 67.4567 318.092 67.59C318.186 67.7233 318.339 67.79 318.552 67.79H318.692C318.886 67.79 319.032 67.7233 319.132 67.59C319.232 67.4567 319.282 67.24 319.282 66.94V65.87H320.262V66.94C320.262 67.44 320.512 67.69 321.012 67.69H321.392V68.73L321.122 69C320.636 69 320.259 68.91 319.992 68.73C319.732 68.5433 319.566 68.25 319.492 67.85H319.432C319.392 68.29 319.276 68.6133 319.082 68.82C318.896 69.02 318.642 69.12 318.322 69.12C317.636 69.12 317.229 68.6967 317.102 67.85H317.042C316.989 68.2767 316.869 68.5967 316.682 68.81C316.496 69.0167 316.252 69.12 315.952 69.12C315.759 69.12 315.562 69.0833 315.362 69.01C315.162 68.9367 314.919 68.8133 314.632 68.64L314.392 68.5C314.199 68.7067 313.972 68.8433 313.712 68.91C313.452 68.97 313.119 69 312.712 69V67.96ZM321.121 67.96L321.391 67.69H321.701C322.247 67.69 322.521 67.44 322.521 66.94V65.47H323.501V66.94C323.501 67.44 323.751 67.69 324.251 67.69H324.631V68.73L324.361 69C323.847 69 323.454 68.9 323.181 68.7C322.907 68.5 322.724 68.1867 322.631 67.76H322.581C322.494 68.2 322.337 68.5167 322.111 68.71C321.891 68.9033 321.561 69 321.121 69V67.96ZM323.671 71.1C323.511 71.1 323.377 71.05 323.271 70.95C323.171 70.8567 323.121 70.7033 323.121 70.49C323.121 70.27 323.171 70.11 323.271 70.01C323.377 69.9167 323.511 69.87 323.671 69.87H323.841C324.001 69.87 324.131 69.9167 324.231 70.01C324.337 70.11 324.391 70.27 324.391 70.49C324.391 70.7033 324.337 70.8567 324.231 70.95C324.131 71.05 324.001 71.1 323.841 71.1H323.671ZM322.181 71.1C322.021 71.1 321.887 71.05 321.781 70.95C321.681 70.8567 321.631 70.7033 321.631 70.49C321.631 70.27 321.681 70.11 321.781 70.01C321.887 69.9167 322.021 69.87 322.181 69.87H322.351C322.511 69.87 322.641 69.9167 322.741 70.01C322.847 70.11 322.901 70.27 322.901 70.49C322.901 70.7033 322.847 70.8567 322.741 70.95C322.641 71.05 322.511 71.1 322.351 71.1H322.181ZM324.363 67.96L324.633 67.69H324.883C325.349 67.69 325.669 67.6433 325.843 67.55C326.023 67.45 326.113 67.2733 326.113 67.02C326.113 66.9133 326.103 66.78 326.083 66.62C326.069 66.4533 326.039 66.2333 325.993 65.96L325.833 65.06L326.813 64.9L326.953 65.8C326.986 66.0267 327.013 66.25 327.033 66.47C327.053 66.6833 327.063 66.8667 327.063 67.02C327.063 67.7 326.889 68.2 326.543 68.52C326.196 68.84 325.643 69 324.883 69H324.363V67.96ZM325.043 63.35H325.443L325.453 63.31C325.326 63.1633 325.263 62.9867 325.263 62.78C325.263 62.5067 325.359 62.28 325.553 62.1C325.753 61.92 326.003 61.83 326.303 61.83C326.483 61.83 326.659 61.87 326.833 61.95C327.013 62.03 327.159 62.1367 327.273 62.27L326.823 62.88C326.669 62.72 326.496 62.64 326.303 62.64C326.189 62.64 326.096 62.67 326.023 62.73C325.949 62.7833 325.913 62.85 325.913 62.93C325.913 63.17 326.146 63.29 326.613 63.29H327.323V64.1H325.043V63.35ZM326.816 70.09H327.206C327.846 70.09 328.303 69.9433 328.576 69.65C328.849 69.3633 328.983 68.9433 328.976 68.39C328.976 68.2233 328.966 68.05 328.946 67.87C328.926 67.6833 328.899 67.4933 328.866 67.3L328.656 66.03L329.626 65.87L329.776 66.75C329.836 67.0833 329.876 67.3967 329.896 67.69H330.826V68.73L330.556 69H329.896C329.849 69.36 329.759 69.6867 329.626 69.98C329.493 70.2733 329.316 70.5233 329.096 70.73C328.876 70.9433 328.609 71.1067 328.296 71.22C327.983 71.34 327.623 71.4 327.216 71.4H326.816V70.09ZM330.554 67.96L330.824 67.69H331.224C331.491 67.69 331.674 67.6333 331.774 67.52C331.881 67.4067 331.934 67.23 331.934 66.99V61.6H332.994V66.99C332.994 67.6767 332.858 68.1833 332.584 68.51C332.318 68.83 331.864 68.9933 331.224 69H330.554V67.96ZM334.286 61.6H335.356V69H334.286V61.6Z" fill="#2117FB"/>
<defs>
<filter id="filter0_d_1_10000" x="-16" y="0" width="407" height="98" filterUnits="userSpaceOnUse" color-interpolation-filters="sRGB">
<feFlood flood-opacity="0" result="BackgroundImageFix"/>
<feColorMatrix in="SourceAlpha" type="matrix" values="0 0 0 0 0 0 0 0 0 0 0 0 0 0 0 0 0 0 127 0" result="hardAlpha"/>
<feOffset dy="-3"/>
<feGaussianBlur stdDeviation="8"/>
<feComposite in2="hardAlpha" operator="out"/>
<feColorMatrix type="matrix" values="0 0 0 0 0.0177083 0 0 0 0 0.116875 0 0 0 0 0.265625 0 0 0 0.1 0"/>
<feBlend mode="normal" in2="BackgroundImageFix" result="effect1_dropShadow_1_10000"/>
<feBlend mode="normal" in="SourceGraphic" in2="effect1_dropShadow_1_10000" result="shape"/>
</filter>
</defs>
</svg>
